<svg width="309" height="130" viewBox="0 0 309 130" fill="none" xmlns="http://www.w3.org/2000/svg">
<path d="M56 23.9645C56 12.9285 63.8834 7.49854 71.0385 7.49854C76.6178 7.49854 79.8929 10.5476 80.3784 11.7081H80.5615V8.11076H89.961V39.8182H80.5615V36.2209H80.3784C79.8929 37.3773 76.6178 40.4304 71.0385 40.4304C63.8834 40.4264 56 35.0005 56 23.9645ZM72.9805 32.0114C77.1033 32.0114 80.8042 29.1464 80.8042 23.9645C80.8042 18.7826 77.1033 15.9136 72.9805 15.9136C68.8578 15.9136 65.2802 18.8426 65.2802 23.9645C65.2802 29.0863 68.9811 32.0114 72.9805 32.0114Z" fill="#4C1676"/>
<path d="M93 7.61222L102.4 7.61222V11.2095H102.583C103.068 10.0491 106.343 7 111.923 7C119.078 7 126.961 12.426 126.961 23.466C126.961 34.506 119.078 39.9319 111.923 39.9319C106.343 39.9319 103.068 36.8828 102.583 35.7224H102.4V50.9039H93V7.61222ZM109.977 31.5129C113.98 31.5129 117.677 28.5838 117.677 23.466C117.677 18.3481 113.976 15.415 109.977 15.415C105.977 15.415 102.153 18.2801 102.153 23.466C102.153 28.6518 105.854 31.5129 109.977 31.5129Z" fill="#4C1676"/>
<path d="M129.863 23.9645C129.863 13.1726 138.352 7.49854 146.601 7.49854C154.851 7.49854 163.339 13.1686 163.339 23.9645C163.339 34.7604 154.851 40.4304 146.601 40.4304C138.352 40.4304 129.863 34.7604 129.863 23.9645ZM146.601 31.8914C150.664 31.8914 154.059 28.8423 154.059 23.9645C154.059 19.0867 150.664 16.0376 146.601 16.0376C142.538 16.0376 139.144 19.0867 139.144 23.9645C139.144 28.8423 142.538 31.8914 146.601 31.8914Z" fill="#4C1676"/>
<path d="M163.582 31.4032L171.039 29.3905C171.525 30.915 172.615 33.0478 175.588 33.0478C177.287 33.0478 178.863 32.1955 178.863 30.4268C178.863 29.3905 178.258 28.4141 176.193 27.7419L171.947 26.1573C166.73 24.2686 164.489 20.8514 164.489 16.8899C164.489 10.9758 169.766 7.49854 175.95 7.49854C182.134 7.49854 186.197 10.8517 187.292 15.9736L179.953 17.8023C179.166 15.3614 177.59 14.8132 176.316 14.8132C174.498 14.8132 173.586 15.9096 173.586 17.01C173.586 18.0463 174.191 19.0227 176.316 19.6909L180.256 21.1555C183.65 22.3159 188.139 24.6928 188.139 30.4228C188.139 36.8251 182.743 40.4224 175.707 40.4224C169.34 40.4224 164.549 37.4334 163.578 31.3992" fill="#4C1676"/>
<path d="M193.663 30.0629V15.6096H188.995V8.11093H193.663V0H203.062V8.11093H209.672V15.6096H203.062V28.5383C203.062 30.1229 203.974 31.8315 206.823 31.8315C207.551 31.8315 208.642 31.7115 209.796 31.3433V38.5379C208.582 39.7584 205.916 40.1825 203.731 40.1825C197.909 40.1825 193.663 37.3175 193.663 30.0589" fill="#4C1676"/>
<path d="M218.59 38.3297C214.372 35.8208 211.129 31.0471 211.129 23.9645C211.129 12.9285 219.012 7.49854 226.167 7.49854C231.747 7.49854 235.022 10.5476 235.507 11.7081H235.69V8.11076H245.09V39.8182H235.69V36.2209H235.507C235.022 37.3773 231.747 40.4304 226.167 40.4304C223.605 40.4304 220.946 39.7342 218.59 38.3297ZM228.109 32.0114C232.232 32.0114 235.933 29.1464 235.933 23.9645C235.933 18.7826 232.232 15.9136 228.109 15.9136C223.987 15.9136 220.409 18.8426 220.409 23.9645C220.409 29.0863 224.11 32.0114 228.109 32.0114Z" fill="#4C1676"/>
<path d="M112.608 45.8007H122.008V49.398H122.191C122.676 48.2376 125.952 45.1885 131.531 45.1885C138.686 45.1885 146.569 50.6144 146.569 61.6544C146.569 72.6944 138.686 78.1164 131.531 78.1164C125.952 78.1164 122.676 75.0673 122.191 73.9109H122.008V89.0924H112.608V45.7967V45.8007ZM129.589 69.7013C133.592 69.7013 137.289 66.7723 137.289 61.6544C137.289 56.5366 133.588 53.6035 129.589 53.6035C125.589 53.6035 121.765 56.4686 121.765 61.6544C121.765 66.8403 125.466 69.7013 129.589 69.7013Z" fill="#4C1676"/>
<path d="M149.538 45.8006H158.938V54.3997C159.968 49.2779 163.001 45.1924 168.703 45.1924C169.432 45.1924 170.16 45.2524 170.948 45.4965V54.4597C170.22 54.3397 169.551 54.2757 168.763 54.2757C162.515 54.2757 158.938 58.4852 158.938 64.4594V77.5081H149.538V45.8006Z" fill="#4C1676"/>
<path d="M171.493 61.7145C171.493 50.9826 179.436 45.1885 187.562 45.1885C195.688 45.1885 204.969 50.7985 202.967 65.3118H180.53C181.804 68.725 184.956 70.4336 189.142 70.4336C191.932 70.4336 194.419 69.7614 196.723 67.9927L200.969 72.4423C198.363 75.7355 193.874 78.1124 188.111 78.1124C179.38 78.1124 171.497 72.1382 171.497 61.7105M194.717 58.5453C194.049 54.888 190.837 53.1193 187.682 53.1193C184.526 53.1193 181.374 54.7639 180.343 58.5453H194.717Z" fill="#4C1676"/>
<path d="M226.012 59.5817C226.012 55.5562 223.827 53.6075 220.978 53.6075C218.129 53.6075 215.642 55.5602 215.642 59.5817V77.5082H206.242V45.8007H215.642V49.7021C217.341 47.0812 220.25 45.1885 224.436 45.1885C228.137 45.1885 231.349 46.773 233.35 50.1863C235.292 47.3212 238.687 45.1885 243.661 45.1885C250.331 45.1885 255.182 49.458 255.182 59.2135V77.5082H245.782V59.5817C245.782 55.5562 243.597 53.6075 240.748 53.6075C237.716 53.6075 235.412 55.5602 235.412 59.5817V77.5082H226.012V59.5817Z" fill="#4C1676"/>
<path d="M259.667 34.2124H269.066V42.4434H259.667V34.2124ZM259.667 45.8006H269.066V77.5081H259.667V45.8006Z" fill="#4C1676"/>
<path d="M272.039 61.6544C272.039 50.6184 279.922 45.1885 287.078 45.1885C292.657 45.1885 295.932 48.2376 296.417 49.398H296.601V45.8007H306V77.5082H296.601V73.9109H296.417C295.932 75.0673 292.657 78.1164 287.078 78.1164C279.922 78.1164 272.039 72.6904 272.039 61.6544ZM289.02 69.7013C293.142 69.7013 296.843 66.8363 296.843 61.6544C296.843 56.4726 293.142 53.6035 289.02 53.6035C284.897 53.6035 281.319 56.5326 281.319 61.6544C281.319 66.7763 285.02 69.7013 289.02 69.7013Z" fill="#4C1676"/>
<path d="M56.408 95.712V98.064H65.76V106.24H56.408V128.528H47V106.24H40.896V98.064H47V95.656C47 87.312 51.368 83 59.04 83C61.952 83 64.976 83.672 66.768 84.792L64.864 92.24C63.576 91.624 62.176 91.288 60.608 91.288C57.808 91.288 56.408 92.744 56.408 95.712Z" fill="#4C1676"/>
<path d="M3 112.09C3 101.054 10.8834 95.624 18.0385 95.624C23.6178 95.624 26.8929 98.6731 27.3784 99.8335H27.5615V96.2362H36.961V127.944H27.5615V124.346H27.3784C26.8929 125.503 23.6178 128.556 18.0385 128.556C10.8834 128.552 3 123.126 3 112.09ZM19.9805 120.137C24.1033 120.137 27.8042 117.272 27.8042 112.09C27.8042 106.908 24.1033 104.039 19.9805 104.039C15.8578 104.039 12.2802 106.968 12.2802 112.09C12.2802 117.212 15.9811 120.137 19.9805 120.137Z" fill="#4C1676"/>
<path d="M105 112.09C105 101.054 112.883 95.624 120.039 95.624C125.618 95.624 128.893 98.6731 129.378 99.8335H129.561V96.2362H138.961V127.944H129.561V124.346H129.378C128.893 125.503 125.618 128.556 120.039 128.556C112.883 128.552 105 123.126 105 112.09ZM121.981 120.137C126.103 120.137 129.804 117.272 129.804 112.09C129.804 106.908 126.103 104.039 121.981 104.039C117.858 104.039 114.28 106.968 114.28 112.09C114.28 117.212 117.981 120.137 121.981 120.137Z" fill="#4C1676"/>
<path d="M175.961 128.916H166.561V125.319H166.378C165.893 126.479 162.618 129.528 157.038 129.528C149.883 129.528 142 124.102 142 113.062C142 102.022 149.883 96.5965 157.038 96.5965C162.618 96.5965 165.893 99.6456 166.378 100.806H166.561V85.6245H175.961V128.916ZM158.984 105.016C154.981 105.016 151.284 107.945 151.284 113.062C151.284 118.18 154.985 121.113 158.984 121.113C162.984 121.113 166.808 118.248 166.808 113.062C166.808 107.877 163.107 105.016 158.984 105.016Z" fill="#4C1676"/>
<path d="M179 112.09C179 101.298 187.488 95.624 195.738 95.624C203.987 95.624 212.476 101.294 212.476 112.09C212.476 122.886 203.987 128.556 195.738 128.556C187.488 128.556 179 122.886 179 112.09ZM195.738 120.017C199.801 120.017 203.195 116.968 203.195 112.09C203.195 107.212 199.801 104.163 195.738 104.163C191.675 104.163 188.28 107.212 188.28 112.09C188.28 116.968 191.675 120.017 195.738 120.017Z" fill="#4C1676"/>
<path d="M216.004 119.529L223.462 117.516C223.947 119.041 225.037 121.173 228.01 121.173C229.709 121.173 231.285 120.321 231.285 118.552C231.285 117.516 230.68 116.54 228.615 115.867L224.369 114.283C219.152 112.394 216.911 108.977 216.911 105.015C216.911 99.1013 222.188 95.624 228.372 95.624C234.556 95.624 238.619 98.9772 239.714 104.099L232.376 105.928C231.588 103.487 230.012 102.939 228.738 102.939C226.92 102.939 226.008 104.035 226.008 105.135C226.008 106.172 226.613 107.148 228.738 107.816L232.678 109.281C236.073 110.441 240.561 112.818 240.561 118.548C240.561 124.951 235.165 128.548 228.13 128.548C221.762 128.548 216.971 125.559 216 119.525" fill="#4C1676"/>
<path d="M93 85.624H102.4V93.855H93V85.624ZM93 97.2122H102.4V128.624H93V97.2122Z" fill="#4C1676"/>
<path d="M69 85.624H78.3996V93.855H69V85.624ZM69 97.2122H78.3996V128.624H69V97.2122Z" fill="#4C1676"/>
<path d="M90 85.624H81V128.624H85.5H90V85.624Z" fill="#4C1676"/>
</svg>
