<svg width="681" height="518" viewBox="0 0 681 518" fill="none" xmlns="http://www.w3.org/2000/svg">
<g clip-path="url(#clip0_2_17)">
<rect width="681" height="518" fill="#4C1676"/>
<path d="M-164 137.046C-164 76.2373 -120.547 46.3178 -81.1077 46.3178C-50.3548 46.3178 -32.3023 63.1186 -29.6263 69.5125H-28.6172V49.6912H23.1932V224.401H-28.6172V204.58H-29.6263C-32.3023 210.952 -50.3548 227.775 -81.1077 227.775C-120.547 227.753 -164 197.855 -164 137.046ZM-70.4034 181.385C-47.6788 181.385 -27.2792 165.599 -27.2792 137.046C-27.2792 108.494 -47.6788 92.6852 -70.4034 92.6852C-93.1281 92.6852 -112.848 108.825 -112.848 137.046C-112.848 165.268 -92.4481 181.385 -70.4034 181.385Z" fill="white" fill-opacity="0.05"/>
<path d="M47.9357 49.6912H99.7461V69.5125H100.755C103.431 63.1186 121.484 46.3178 152.237 46.3178C191.676 46.3178 235.129 76.2152 235.129 137.046C235.129 197.877 191.676 227.775 152.237 227.775C121.484 227.775 103.431 210.974 100.755 204.58H99.7461V288.231H47.9357V49.6912ZM141.51 181.385C163.577 181.385 183.955 165.246 183.955 137.046C183.955 108.847 163.555 92.6852 141.51 92.6852C119.466 92.6852 98.3861 108.472 98.3861 137.046C98.3861 165.621 118.786 181.385 141.51 181.385Z" fill="white" fill-opacity="0.05"/>
<path d="M243.135 137.046C243.135 77.5822 289.923 46.3178 335.394 46.3178C380.865 46.3178 427.652 77.5602 427.652 137.046C427.652 196.532 380.865 227.775 335.394 227.775C289.923 227.775 243.135 196.532 243.135 137.046ZM335.394 180.724C357.789 180.724 376.5 163.923 376.5 137.046C376.5 110.169 357.789 93.3687 335.394 93.3687C312.998 93.3687 294.288 110.169 294.288 137.046C294.288 163.923 312.998 180.724 335.394 180.724Z" fill="white" fill-opacity="0.05"/>
<path d="M428.99 178.034L470.096 166.944C472.773 175.344 478.783 187.096 495.168 187.096C504.534 187.096 513.221 182.4 513.221 172.654C513.221 166.944 509.887 161.564 498.502 157.86L475.098 149.129C446.341 138.722 433.992 119.893 433.992 98.065C433.992 65.4777 463.077 46.3178 497.164 46.3178C531.251 46.3178 553.647 64.7942 559.679 93.016L519.231 103.092C514.888 89.6426 506.201 86.622 499.182 86.622C489.158 86.622 484.135 92.6632 484.135 98.7265C484.135 104.437 487.469 109.817 499.182 113.499L520.898 121.568C539.608 127.962 564.351 141.059 564.351 172.632C564.351 207.909 534.607 227.731 495.826 227.731C460.73 227.731 434.321 211.261 428.968 178.012" fill="white" fill-opacity="0.05"/>
<path d="M594.797 170.648V91.0102H569.067V49.6918H594.797V5H646.607V49.6918H683.042V91.0102H646.607V162.248C646.607 170.979 651.631 180.394 667.336 180.394C671.35 180.394 677.36 179.732 683.721 177.704V217.347C677.031 224.071 662.335 226.408 650.293 226.408C618.202 226.408 594.797 210.622 594.797 170.626" fill="white" fill-opacity="0.05"/>
<path d="M148.025 257.363H199.836V277.185H200.845C203.521 270.791 221.573 253.99 252.326 253.99C291.765 253.99 335.218 283.887 335.218 344.718C335.218 405.55 291.765 435.425 252.326 435.425C221.573 435.425 203.521 418.624 200.845 412.252H199.836V495.903H148.025V257.341V257.363ZM241.622 389.057C263.688 389.057 284.066 372.918 284.066 344.718C284.066 316.519 263.666 300.357 241.622 300.357C219.577 300.357 198.497 316.144 198.497 344.718C198.497 373.293 218.897 389.057 241.622 389.057Z" fill="white" fill-opacity="0.05"/>
<path d="M351.582 257.363H403.392V304.745C409.073 276.523 425.788 254.012 457.221 254.012C461.235 254.012 465.249 254.343 469.592 255.687V305.076C465.578 304.414 461.893 304.061 457.55 304.061C423.112 304.061 403.392 327.256 403.392 360.174V432.073H351.582V257.363Z" fill="white" fill-opacity="0.05"/>
<path d="M472.597 345.049C472.597 285.916 516.379 253.99 561.171 253.99C605.962 253.99 657.114 284.902 646.081 364.871H522.412C529.431 383.678 546.803 393.092 569.879 393.092C585.255 393.092 598.965 389.388 611.665 379.643L635.07 404.161C620.702 422.306 595.96 435.403 564.198 435.403C516.072 435.403 472.619 402.485 472.619 345.027M600.61 327.587C596.925 307.435 579.223 297.69 561.829 297.69C544.434 297.69 527.062 306.751 521.381 327.587H600.61Z" fill="white" fill-opacity="0.05"/>
<path d="M773.107 333.297C773.107 311.117 761.065 300.379 745.359 300.379C729.654 300.379 715.944 311.139 715.944 333.297V432.074H664.134V257.363H715.944V278.86C725.31 264.419 741.345 253.99 764.421 253.99C784.82 253.99 802.522 262.721 813.555 281.528C824.259 265.742 842.97 253.99 870.389 253.99C907.152 253.99 933.89 277.515 933.89 331.269V432.074H882.08V333.297C882.08 311.117 870.038 300.379 854.332 300.379C837.618 300.379 824.917 311.139 824.917 333.297V432.074H773.107V333.297Z" fill="white" fill-opacity="0.05"/>
<rect width="681" height="518" fill="url(#paint0_radial_2_17)" fill-opacity="0.59"/>
</g>
<defs>
<radialGradient id="paint0_radial_2_17" cx="0" cy="0" r="1" gradientUnits="userSpaceOnUse" gradientTransform="translate(340.5 259) rotate(90) scale(259 340.5)">
<stop offset="0.345" stop-color="#4C1676" stop-opacity="0.33"/>
<stop offset="0.93" stop-color="#4C1676"/>
</radialGradient>
<clipPath id="clip0_2_17">
<rect width="681" height="518" fill="white"/>
</clipPath>
</defs>
</svg>
