<svg width="20" height="20" viewBox="0 0 20 20" fill="none" xmlns="http://www.w3.org/2000/svg">
<path fill-rule="evenodd" clip-rule="evenodd" d="M5.91581 1.04163H14.0833C14.9308 1.04163 15.5141 1.04163 16.005 1.21163C16.4636 1.37386 16.8787 1.63957 17.218 1.98815C17.5573 2.33673 17.8118 2.75881 17.9616 3.22163C18.125 3.71913 18.1241 4.31079 18.1241 5.18829V16.9783C18.1241 18.2 16.685 18.9266 15.7375 18.0591C15.7071 18.03 15.6666 18.0138 15.6246 18.0138C15.5825 18.0138 15.542 18.03 15.5116 18.0591L15.1083 18.4275C14.335 19.1358 13.1633 19.1358 12.39 18.4275C12.25 18.2968 12.0656 18.2241 11.8741 18.2241C11.6826 18.2241 11.4983 18.2968 11.3583 18.4275C10.585 19.1358 9.41331 19.1358 8.63998 18.4275C8.50001 18.2968 8.31565 18.2241 8.12414 18.2241C7.93264 18.2241 7.74828 18.2968 7.60831 18.4275C6.83498 19.1358 5.66331 19.1358 4.88998 18.4275L4.48748 18.0591C4.45704 18.0298 4.41642 18.0134 4.37415 18.0134C4.33188 18.0134 4.29125 18.0298 4.26081 18.0591C3.31331 18.9258 1.87415 18.2 1.87415 16.9783V5.18913C1.87415 4.31079 1.87415 3.71913 2.03665 3.22163C2.18649 2.75881 2.44095 2.33673 2.78028 1.98815C3.11961 1.63957 3.53469 1.37386 3.99331 1.21163C4.48498 1.04079 5.06831 1.04163 5.91581 1.04163ZM6.03665 2.29163C5.01915 2.29163 4.66831 2.29996 4.40331 2.39246C4.12655 2.49169 3.87633 2.65325 3.672 2.86466C3.46768 3.07607 3.31472 3.33165 3.22498 3.61163C3.13248 3.89329 3.12498 4.26496 3.12498 5.30829V16.9783C3.12498 17.0783 3.17415 17.1383 3.23665 17.1675C3.26516 17.181 3.29695 17.1862 3.32831 17.1825C3.36203 17.1767 3.39316 17.1607 3.41748 17.1366C3.67824 16.8966 4.01972 16.7633 4.37415 16.7633C4.72857 16.7633 5.07005 16.8966 5.33081 17.1366L5.73331 17.505C5.87328 17.6357 6.05764 17.7083 6.24915 17.7083C6.44065 17.7083 6.62501 17.6357 6.76498 17.505C7.13535 17.1637 7.62053 16.9743 8.12414 16.9743C8.62776 16.9743 9.11294 17.1637 9.48331 17.505C9.62328 17.6357 9.80764 17.7083 9.99915 17.7083C10.1906 17.7083 10.375 17.6357 10.515 17.505C10.8853 17.1637 11.3705 16.9743 11.8741 16.9743C12.3778 16.9743 12.8629 17.1637 13.2333 17.505C13.3733 17.6357 13.5576 17.7083 13.7491 17.7083C13.9406 17.7083 14.125 17.6357 14.265 17.505L14.6675 17.1366C14.9282 16.8966 15.2697 16.7633 15.6241 16.7633C15.9786 16.7633 16.3201 16.8966 16.5808 17.1366C16.6166 17.17 16.6475 17.18 16.6708 17.1825C16.7019 17.1861 16.7334 17.1809 16.7616 17.1675C16.8241 17.1383 16.8741 17.0775 16.8741 16.9783V5.30829C16.8741 4.26496 16.8658 3.89329 16.7741 3.61079C16.6841 3.33079 16.5309 3.07527 16.3262 2.864C16.1216 2.65273 15.8711 2.49139 15.5941 2.39246C15.33 2.30079 14.9791 2.29246 13.9616 2.29246L6.03665 2.29163ZM5.20831 6.24996C5.20831 6.0842 5.27416 5.92523 5.39137 5.80802C5.50858 5.69081 5.66755 5.62496 5.83331 5.62496H6.24998C6.41574 5.62496 6.57471 5.69081 6.69192 5.80802C6.80913 5.92523 6.87498 6.0842 6.87498 6.24996C6.87498 6.41572 6.80913 6.57469 6.69192 6.6919C6.57471 6.80911 6.41574 6.87496 6.24998 6.87496H5.83331C5.66755 6.87496 5.50858 6.80911 5.39137 6.6919C5.27416 6.57469 5.20831 6.41572 5.20831 6.24996ZM8.12498 6.24996C8.12498 6.0842 8.19083 5.92523 8.30804 5.80802C8.42525 5.69081 8.58422 5.62496 8.74998 5.62496H14.1666C14.3324 5.62496 14.4914 5.69081 14.6086 5.80802C14.7258 5.92523 14.7916 6.0842 14.7916 6.24996C14.7916 6.41572 14.7258 6.57469 14.6086 6.6919C14.4914 6.80911 14.3324 6.87496 14.1666 6.87496H8.74998C8.58422 6.87496 8.42525 6.80911 8.30804 6.6919C8.19083 6.57469 8.12498 6.41572 8.12498 6.24996ZM5.20831 9.16663C5.20831 9.00087 5.27416 8.84189 5.39137 8.72468C5.50858 8.60747 5.66755 8.54163 5.83331 8.54163H6.24998C6.41574 8.54163 6.57471 8.60747 6.69192 8.72468C6.80913 8.84189 6.87498 9.00087 6.87498 9.16663C6.87498 9.33239 6.80913 9.49136 6.69192 9.60857C6.57471 9.72578 6.41574 9.79163 6.24998 9.79163H5.83331C5.66755 9.79163 5.50858 9.72578 5.39137 9.60857C5.27416 9.49136 5.20831 9.33239 5.20831 9.16663ZM8.12498 9.16663C8.12498 9.00087 8.19083 8.84189 8.30804 8.72468C8.42525 8.60747 8.58422 8.54163 8.74998 8.54163H14.1666C14.3324 8.54163 14.4914 8.60747 14.6086 8.72468C14.7258 8.84189 14.7916 9.00087 14.7916 9.16663C14.7916 9.33239 14.7258 9.49136 14.6086 9.60857C14.4914 9.72578 14.3324 9.79163 14.1666 9.79163H8.74998C8.58422 9.79163 8.42525 9.72578 8.30804 9.60857C8.19083 9.49136 8.12498 9.33239 8.12498 9.16663ZM5.20831 12.0833C5.20831 11.9175 5.27416 11.7586 5.39137 11.6414C5.50858 11.5241 5.66755 11.4583 5.83331 11.4583H6.24998C6.41574 11.4583 6.57471 11.5241 6.69192 11.6414C6.80913 11.7586 6.87498 11.9175 6.87498 12.0833C6.87498 12.2491 6.80913 12.408 6.69192 12.5252C6.57471 12.6424 6.41574 12.7083 6.24998 12.7083H5.83331C5.66755 12.7083 5.50858 12.6424 5.39137 12.5252C5.27416 12.408 5.20831 12.2491 5.20831 12.0833ZM8.12498 12.0833C8.12498 11.9175 8.19083 11.7586 8.30804 11.6414C8.42525 11.5241 8.58422 11.4583 8.74998 11.4583H14.1666C14.3324 11.4583 14.4914 11.5241 14.6086 11.6414C14.7258 11.7586 14.7916 11.9175 14.7916 12.0833C14.7916 12.2491 14.7258 12.408 14.6086 12.5252C14.4914 12.6424 14.3324 12.7083 14.1666 12.7083H8.74998C8.58422 12.7083 8.42525 12.6424 8.30804 12.5252C8.19083 12.408 8.12498 12.2491 8.12498 12.0833Z" fill="black"/>
</svg>
