<svg width="50" height="56" viewBox="0 0 50 56" fill="none" xmlns="http://www.w3.org/2000/svg">
<path fill-rule="evenodd" clip-rule="evenodd" d="M30.2001 4.50053H17.8001C17.4081 6.42232 16.4597 8.18642 15.0728 9.5733C13.6859 10.9602 11.9218 11.9086 10.0001 12.3005V14.0339C11.9218 14.4258 13.6859 15.3742 15.0728 16.7611C16.4597 18.148 17.4081 19.9121 17.8001 21.8339H30.2001C30.592 19.9121 31.5404 18.148 32.9273 16.7611C34.3142 15.3742 36.0783 14.4258 38.0001 14.0339V12.3005C36.0783 11.9086 34.3142 10.9602 32.9273 9.5733C31.5404 8.18642 30.592 6.42232 30.2001 4.50053ZM31.8134 0.508533C31.081 0.501422 30.3005 0.498756 29.4721 0.500533H18.5281C17.6996 0.500533 16.9201 0.5032 16.1894 0.508533C16.0436 0.49922 15.8974 0.501895 15.7521 0.516533C14.5467 0.537867 13.4774 0.588533 12.5494 0.713866C10.8747 0.937866 9.36273 1.43387 8.14939 2.6472C6.93339 3.8632 6.43739 5.3752 6.21339 7.0472C6.08806 7.97787 6.03739 9.0472 6.01606 10.2525C6.00157 10.397 5.99889 10.5423 6.00806 10.6872C6.00095 11.4214 5.99828 12.2019 6.00006 13.0285V13.3059C6.00006 14.1325 6.00273 14.913 6.00806 15.6472C5.99889 15.7921 6.00157 15.9374 6.01606 16.0819C6.03739 17.2899 6.08806 18.3565 6.21339 19.2845C6.43739 20.9592 6.93339 22.4712 8.14939 23.6845C9.36273 24.9005 10.8747 25.3965 12.5494 25.6205C13.4774 25.7459 14.5467 25.7965 15.7521 25.8179C15.8974 25.8325 16.0436 25.8352 16.1894 25.8259C16.9201 25.833 17.6996 25.8356 18.5281 25.8339H29.4721C30.2987 25.8339 31.0792 25.8312 31.8134 25.8259C31.9583 25.835 32.1036 25.8324 32.2481 25.8179C33.4561 25.7965 34.5254 25.7459 35.4507 25.6205C37.1254 25.3965 38.6374 24.9005 39.8507 23.6845C41.0667 22.4712 41.5627 20.9592 41.7867 19.2845C41.9109 18.2214 41.9768 17.1522 41.9841 16.0819C41.9986 15.9374 42.0012 15.7921 41.9921 15.6472C41.9992 14.913 42.0018 14.1325 42.0001 13.3059V13.0285C42.0001 12.2019 41.9974 11.4214 41.9921 10.6872C42.0012 10.5423 41.9986 10.397 41.9841 10.2525C41.9768 9.18218 41.9109 8.11302 41.7867 7.04987C41.5627 5.3752 41.0667 3.8632 39.8534 2.64987C38.6374 1.43387 37.1254 0.937866 35.4534 0.713866C34.3894 0.589608 33.3193 0.523732 32.2481 0.516533C32.1036 0.502041 31.9583 0.499365 31.8134 0.508533ZM34.3841 4.61787C34.6864 5.41541 35.1547 6.13968 35.7578 6.7428C36.3609 7.34592 37.0852 7.81415 37.8827 8.11653C37.8659 7.93836 37.8454 7.76055 37.8214 7.5832C37.6587 6.3512 37.3707 5.8232 37.0214 5.47653C36.6721 5.12987 36.1494 4.84453 34.9201 4.67653C34.7427 4.6534 34.5649 4.63384 34.3867 4.61787M37.8854 18.2179C37.0879 18.5202 36.3636 18.9885 35.7605 19.5916C35.1573 20.1947 34.6891 20.919 34.3867 21.7165C34.5734 21.6988 34.7512 21.6792 34.9201 21.6579C36.1521 21.4899 36.6801 21.2045 37.0267 20.8579C37.3734 20.5112 37.6614 19.9832 37.8267 18.7512C37.8481 18.5823 37.8676 18.4045 37.8854 18.2179ZM13.6187 21.7165C13.3163 20.919 12.8481 20.1947 12.245 19.5916C11.6419 18.9885 10.9176 18.5202 10.1201 18.2179C10.1378 18.4045 10.1583 18.5823 10.1814 18.7512C10.3467 19.9832 10.6321 20.5112 10.9814 20.8579C11.3307 21.2045 11.8534 21.4899 13.0827 21.6579C13.2534 21.6792 13.4321 21.6988 13.6187 21.7165ZM10.1201 8.11653C10.9176 7.81415 11.6419 7.34592 12.245 6.7428C12.8481 6.13968 13.3163 5.41541 13.6187 4.61787C13.4321 4.63564 13.2543 4.65609 13.0854 4.6792C11.8534 4.84453 11.3254 5.12987 10.9787 5.4792C10.6321 5.82853 10.3467 6.3512 10.1787 7.58053L10.1201 8.11653ZM24.0001 12.5005C23.8233 12.5005 23.6537 12.5708 23.5287 12.6958C23.4036 12.8208 23.3334 12.9904 23.3334 13.1672C23.3334 13.344 23.4036 13.5136 23.5287 13.6386C23.6537 13.7636 23.8233 13.8339 24.0001 13.8339C24.1769 13.8339 24.3464 13.7636 24.4715 13.6386C24.5965 13.5136 24.6667 13.344 24.6667 13.1672C24.6667 12.9904 24.5965 12.8208 24.4715 12.6958C24.3464 12.5708 24.1769 12.5005 24.0001 12.5005ZM19.3334 13.1672C19.3334 11.9295 19.8251 10.7425 20.7002 9.86737C21.5754 8.9922 22.7624 8.50053 24.0001 8.50053C25.2377 8.50053 26.4247 8.9922 27.2999 9.86737C28.1751 10.7425 28.6667 11.9295 28.6667 13.1672C28.6667 14.4049 28.1751 15.5919 27.2999 16.467C26.4247 17.3422 25.2377 17.8339 24.0001 17.8339C22.7624 17.8339 21.5754 17.3422 20.7002 16.467C19.8251 15.5919 19.3334 14.4049 19.3334 13.1672ZM15.1574 33.0285C20.1334 32.0659 25.4587 32.2819 29.7707 34.8525C30.3734 35.2125 30.9441 35.6632 31.4374 36.2179C32.4401 37.3459 32.9574 38.7432 32.9814 40.1459C33.4898 39.8152 34.0027 39.4534 34.5201 39.0605L39.3414 35.4205C40.5493 34.5341 42.0085 34.0561 43.5067 34.0561C45.005 34.0561 46.4642 34.5341 47.6721 35.4205C49.8987 37.1005 50.7894 40.1219 49.1921 42.6819C48.0587 44.4979 46.3521 47.0125 44.6134 48.6232C42.8534 50.2499 40.3547 51.6205 38.4641 52.5325C36.1654 53.6419 33.6854 54.2552 31.2721 54.6445C26.3387 55.4445 21.2081 55.3219 16.3334 54.3165C13.8195 53.7997 11.2599 53.5379 8.69339 53.5352H2.66673C2.13629 53.5352 1.62759 53.3245 1.25251 52.9494C0.87744 52.5743 0.666727 52.0656 0.666727 51.5352C0.666727 51.0048 0.87744 50.4961 1.25251 50.121C1.62759 49.7459 2.13629 49.5352 2.66673 49.5352H8.69339C11.5254 49.5352 14.3867 49.8312 17.1414 50.3992C21.5845 51.3109 26.1559 51.4112 30.6347 50.6952C32.8427 50.3379 34.9067 49.8072 36.7254 48.9299C38.5467 48.0499 40.5947 46.8925 41.8934 45.6899C43.2081 44.4712 44.6774 42.3619 45.8001 40.5645C46.1387 40.0205 46.0907 39.2392 45.2614 38.6125C44.2747 37.8659 42.7361 37.8659 41.7521 38.6125L36.9334 42.2525C35.0081 43.7059 32.6401 45.2605 29.7041 45.7299C29.3965 45.7785 29.088 45.8212 28.7787 45.8579C28.6258 45.8845 28.4667 45.9023 28.3014 45.9112C26.5881 46.0775 24.8627 46.0775 23.1494 45.9112C22.8838 45.8919 22.6247 45.8198 22.3873 45.6991C22.1499 45.5784 21.9391 45.4115 21.7671 45.2081C21.5951 45.0048 21.4654 44.7692 21.3857 44.5151C21.306 44.261 21.2778 43.9935 21.3028 43.7284C21.3279 43.4633 21.4056 43.2058 21.5315 42.9711C21.6574 42.7364 21.8288 42.5292 22.0359 42.3617C22.2429 42.1942 22.4813 42.0697 22.7371 41.9955C22.9929 41.9214 23.2609 41.8991 23.5254 41.9299C25.0047 42.073 26.4946 42.0704 27.9734 41.9219L28.0534 41.9139C28.3022 41.7595 28.5136 41.5518 28.6724 41.3057C28.8312 41.0597 28.9335 40.7815 28.9717 40.4912C29.01 40.2009 28.9833 39.9057 28.8937 39.627C28.8041 39.3482 28.6537 39.0928 28.4534 38.8792C28.2395 38.6468 27.9924 38.4473 27.7201 38.2872C24.5707 36.4072 20.3627 36.0952 15.9174 36.9539C11.5749 37.8256 7.4583 39.5821 3.82406 42.1139C3.60974 42.2659 3.36759 42.3741 3.11142 42.4325C2.85526 42.4909 2.5901 42.4983 2.33109 42.4542C2.07207 42.4101 1.82428 42.3155 1.60185 42.1756C1.37942 42.0358 1.18671 41.8535 1.03473 41.6392C0.882744 41.4249 0.774461 41.1827 0.716063 40.9266C0.657665 40.6704 0.650293 40.4052 0.69437 40.1462C0.783387 39.6231 1.07656 39.1568 1.50939 38.8499C5.60893 35.9896 10.2555 34.0077 15.1574 33.0285Z" fill="#491474"/>
</svg>
