<svg width="20" height="20" viewBox="0 0 20 20" fill="none" xmlns="http://www.w3.org/2000/svg">
<path d="M6.45834 7.5C6.45834 7.33424 6.3925 7.17527 6.27529 7.05806C6.15808 6.94085 5.9991 6.875 5.83334 6.875C5.66758 6.875 5.50861 6.94085 5.3914 7.05806C5.27419 7.17527 5.20834 7.33424 5.20834 7.5V15C5.20834 15.1658 5.27419 15.3247 5.3914 15.4419C5.50861 15.5592 5.66758 15.625 5.83334 15.625C5.9991 15.625 6.15808 15.5592 6.27529 15.4419C6.3925 15.3247 6.45834 15.1658 6.45834 15V7.5ZM10 4.375C10.1658 4.375 10.3247 4.44085 10.442 4.55806C10.5592 4.67527 10.625 4.83424 10.625 5V15C10.625 15.1658 10.5592 15.3247 10.442 15.4419C10.3247 15.5592 10.1658 15.625 10 15.625C9.83425 15.625 9.67528 15.5592 9.55807 15.4419C9.44086 15.3247 9.37501 15.1658 9.37501 15V5C9.37501 4.83424 9.44086 4.67527 9.55807 4.55806C9.67528 4.44085 9.83425 4.375 10 4.375ZM14.7917 10.8333C14.7917 10.6676 14.7258 10.5086 14.6086 10.3914C14.4914 10.2742 14.3324 10.2083 14.1667 10.2083C14.0009 10.2083 13.8419 10.2742 13.7247 10.3914C13.6075 10.5086 13.5417 10.6676 13.5417 10.8333V15C13.5417 15.1658 13.6075 15.3247 13.7247 15.4419C13.8419 15.5592 14.0009 15.625 14.1667 15.625C14.3324 15.625 14.4914 15.5592 14.6086 15.4419C14.7258 15.3247 14.7917 15.1658 14.7917 15V10.8333Z" fill="black"/>
<path fill-rule="evenodd" clip-rule="evenodd" d="M9.95249 1.04163C8.02832 1.04163 6.52082 1.04163 5.34416 1.19996C4.14082 1.36163 3.19082 1.69996 2.44499 2.44496C1.69916 3.19079 1.36166 4.14079 1.19999 5.34496C1.04166 6.52079 1.04166 8.02829 1.04166 9.95246V10.0475C1.04166 11.9716 1.04166 13.4791 1.19999 14.6558C1.36166 15.8591 1.69999 16.8091 2.44499 17.555C3.19082 18.3008 4.14082 18.6383 5.34499 18.8C6.52082 18.9583 8.02832 18.9583 9.95249 18.9583H10.0475C11.9717 18.9583 13.4792 18.9583 14.6558 18.8C15.8592 18.6383 16.8092 18.3 17.555 17.555C18.3008 16.8091 18.6383 15.8591 18.8 14.655C18.9583 13.4791 18.9583 11.9716 18.9583 10.0475V9.95246C18.9583 8.02829 18.9583 6.52079 18.8 5.34413C18.6383 4.14079 18.3 3.19079 17.555 2.44496C16.8092 1.69913 15.8592 1.36163 14.655 1.19996C13.4792 1.04163 11.9717 1.04163 10.0475 1.04163H9.95249ZM3.32916 3.32913C3.80416 2.85413 4.44582 2.58163 5.51166 2.43829C6.59499 2.29329 8.01832 2.29163 9.99999 2.29163C11.9817 2.29163 13.405 2.29329 14.4883 2.43829C15.5542 2.58163 16.1967 2.85496 16.6717 3.32913C17.1458 3.80413 17.4183 4.44579 17.5617 5.51163C17.7067 6.59496 17.7083 8.01829 17.7083 9.99996C17.7083 11.9816 17.7067 13.405 17.5617 14.4883C17.4183 15.5541 17.145 16.1966 16.6708 16.6716C16.1958 17.1458 15.5542 17.4183 14.4883 17.5616C13.405 17.7066 11.9817 17.7083 9.99999 17.7083C8.01832 17.7083 6.59499 17.7066 5.51166 17.5616C4.44582 17.4183 3.80332 17.145 3.32832 16.6708C2.85416 16.1958 2.58166 15.5541 2.43832 14.4883C2.29332 13.405 2.29166 11.9816 2.29166 9.99996C2.29166 8.01829 2.29332 6.59496 2.43832 5.51163C2.58166 4.44579 2.85499 3.80413 3.32916 3.32913Z" fill="black"/>
</svg>
