<svg width="20" height="20" viewBox="0 0 20 20" fill="none" xmlns="http://www.w3.org/2000/svg">
<path fill-rule="evenodd" clip-rule="evenodd" d="M6.0525 2.71663C6.10185 2.25664 6.31951 1.83113 6.66363 1.52193C7.00775 1.21272 7.45404 1.04166 7.91667 1.04163H12.0833C12.546 1.04166 12.9922 1.21272 13.3364 1.52193C13.6805 1.83113 13.8982 2.25664 13.9475 2.71663C14.5842 2.72996 15.1333 2.76246 15.6033 2.84913C16.235 2.96579 16.7725 3.18579 17.21 3.62413C17.7117 4.12496 17.9267 4.75746 18.0283 5.50746C18.125 6.22913 18.125 7.14829 18.125 8.28746V13.3791C18.125 14.5183 18.125 15.4375 18.0283 16.16C17.9267 16.91 17.7117 17.5416 17.21 18.0433C16.7083 18.545 16.0767 18.76 15.3267 18.8616C14.6042 18.9583 13.685 18.9583 12.5458 18.9583H7.45417C6.315 18.9583 5.39583 18.9583 4.67333 18.8616C3.92333 18.76 3.29167 18.545 2.79 18.0433C2.28833 17.5416 2.07333 16.91 1.9725 16.16C1.875 15.4375 1.875 14.5183 1.875 13.3791V8.28746C1.875 7.14829 1.875 6.22913 1.9725 5.50663C2.0725 4.75663 2.28917 4.12496 2.79 3.62329C3.2275 3.18579 3.765 2.96496 4.39667 2.84913C4.86667 2.76246 5.41667 2.72996 6.0525 2.71663ZM6.05417 3.96663C5.45583 3.97996 4.99417 4.00996 4.6225 4.07829C4.15083 4.16496 3.87667 4.30496 3.67417 4.50746C3.44333 4.73829 3.29333 5.06163 3.21083 5.67413C3.12667 6.30246 3.125 7.13746 3.125 8.33329V13.3333C3.125 14.5291 3.12667 15.3633 3.21083 15.9933C3.29333 16.605 3.44417 16.9283 3.67417 17.1591C3.905 17.39 4.22833 17.54 4.84083 17.6225C5.46917 17.7066 6.30417 17.7083 7.5 17.7083H12.5C13.6958 17.7083 14.53 17.7066 15.16 17.6225C15.7717 17.54 16.095 17.3891 16.3258 17.1591C16.5567 16.9283 16.7067 16.605 16.7892 15.9925C16.8733 15.3633 16.875 14.5291 16.875 13.3333V8.33329C16.875 7.13746 16.8733 6.30246 16.7892 5.67329C16.7067 5.06163 16.5558 4.73829 16.3258 4.50746C16.1225 4.30496 15.8492 4.16579 15.3775 4.07829C15.0058 4.00996 14.5442 3.97996 13.9458 3.96746C13.8925 4.424 13.6734 4.84505 13.33 5.15063C12.9866 5.4562 12.543 5.625 12.0833 5.62496H7.91667C7.45689 5.62497 7.01314 5.45606 6.66976 5.15031C6.32637 4.84457 6.1073 4.42332 6.05417 3.96663ZM7.91667 2.29163C7.75091 2.29163 7.59194 2.35747 7.47473 2.47468C7.35751 2.59189 7.29167 2.75087 7.29167 2.91663V3.74996C7.29167 4.09496 7.57167 4.37496 7.91667 4.37496H12.0833C12.2491 4.37496 12.4081 4.30911 12.5253 4.1919C12.6425 4.07469 12.7083 3.91572 12.7083 3.74996V2.91663C12.7083 2.75087 12.6425 2.59189 12.5253 2.47468C12.4081 2.35747 12.2491 2.29163 12.0833 2.29163H7.91667ZM5.20833 8.74996C5.20833 8.5842 5.27418 8.42523 5.39139 8.30802C5.5086 8.19081 5.66757 8.12496 5.83333 8.12496H14.1667C14.3324 8.12496 14.4914 8.19081 14.6086 8.30802C14.7258 8.42523 14.7917 8.5842 14.7917 8.74996C14.7917 8.91572 14.7258 9.07469 14.6086 9.1919C14.4914 9.30911 14.3324 9.37496 14.1667 9.37496H5.83333C5.66757 9.37496 5.5086 9.30911 5.39139 9.1919C5.27418 9.07469 5.20833 8.91572 5.20833 8.74996ZM6.04167 11.6666C6.04167 11.5009 6.10751 11.3419 6.22472 11.2247C6.34193 11.1075 6.50091 11.0416 6.66667 11.0416H13.3333C13.4991 11.0416 13.6581 11.1075 13.7753 11.2247C13.8925 11.3419 13.9583 11.5009 13.9583 11.6666C13.9583 11.8324 13.8925 11.9914 13.7753 12.1086C13.6581 12.2258 13.4991 12.2916 13.3333 12.2916H6.66667C6.50091 12.2916 6.34193 12.2258 6.22472 12.1086C6.10751 11.9914 6.04167 11.8324 6.04167 11.6666ZM6.875 14.5833C6.875 14.4175 6.94085 14.2586 7.05806 14.1414C7.17527 14.0241 7.33424 13.9583 7.5 13.9583H12.5C12.6658 13.9583 12.8247 14.0241 12.9419 14.1414C13.0592 14.2586 13.125 14.4175 13.125 14.5833C13.125 14.7491 13.0592 14.908 12.9419 15.0252C12.8247 15.1424 12.6658 15.2083 12.5 15.2083H7.5C7.33424 15.2083 7.17527 15.1424 7.05806 15.0252C6.94085 14.908 6.875 14.7491 6.875 14.5833Z" fill="black"/>
</svg>
