<svg width="40" height="41" viewBox="0 0 40 41" fill="none" xmlns="http://www.w3.org/2000/svg">
<rect y="0.617188" width="40" height="40" rx="20" fill="#EDE8F1"/>
<path fill-rule="evenodd" clip-rule="evenodd" d="M23 9.86719H18.944C17.106 9.86719 15.65 9.86719 14.511 10.0202C13.339 10.1782 12.39 10.5102 11.641 11.2582C10.893 12.0072 10.561 12.9562 10.403 14.1282C10.25 15.2682 10.25 16.7232 10.25 18.5612V24.6172C10.2498 25.5107 10.5687 26.3748 11.1491 27.0541C11.7295 27.7334 12.5334 28.183 13.416 28.3222C13.553 29.0862 13.818 29.7382 14.348 30.2692C14.95 30.8712 15.708 31.1292 16.608 31.2512C17.475 31.3672 18.578 31.3672 19.945 31.3672H23.055C24.422 31.3672 25.525 31.3672 26.392 31.2512C27.292 31.1292 28.05 30.8712 28.652 30.2692C29.254 29.6672 29.512 28.9092 29.634 28.0092C29.75 27.1422 29.75 26.0392 29.75 24.6722V19.5622C29.75 18.1952 29.75 17.0922 29.634 16.2252C29.512 15.3252 29.254 14.5672 28.652 13.9652C28.121 13.4352 27.469 13.1702 26.705 13.0332C26.5659 12.1506 26.1162 11.3467 25.4369 10.7663C24.7577 10.1858 23.8935 9.86701 23 9.86719ZM25.13 12.8882C24.9779 12.4442 24.6909 12.0588 24.3089 11.7861C23.927 11.5134 23.4693 11.3669 23 11.3672H19C17.093 11.3672 15.739 11.3692 14.71 11.5072C13.705 11.6422 13.125 11.8962 12.702 12.3192C12.279 12.7422 12.025 13.3222 11.89 14.3272C11.752 15.3562 11.75 16.7102 11.75 18.6172V24.6172C11.7497 25.0865 11.8962 25.5442 12.1689 25.9261C12.4417 26.308 12.827 26.5951 13.271 26.7472C13.25 26.1372 13.25 25.4472 13.25 24.6722V19.5622C13.25 18.1952 13.25 17.0922 13.367 16.2252C13.487 15.3252 13.747 14.5672 14.348 13.9652C14.95 13.3632 15.708 13.1052 16.608 12.9842C17.475 12.8672 18.578 12.8672 19.945 12.8672H23.055C23.83 12.8672 24.52 12.8672 25.13 12.8882ZM15.408 15.0272C15.685 14.7502 16.073 14.5702 16.808 14.4712C17.562 14.3702 18.564 14.3682 19.999 14.3682H22.999C24.434 14.3682 25.435 14.3702 26.191 14.4712C26.925 14.5702 27.313 14.7512 27.59 15.0272C27.867 15.3042 28.047 15.6922 28.146 16.4272C28.247 17.1812 28.249 18.1832 28.249 19.6182V24.6182C28.249 26.0532 28.247 27.0542 28.146 27.8102C28.047 28.5442 27.866 28.9322 27.59 29.2092C27.313 29.4862 26.925 29.6662 26.19 29.7652C25.435 29.8662 24.434 29.8682 22.999 29.8682H19.999C18.564 29.8682 17.562 29.8662 16.807 29.7652C16.073 29.6662 15.685 29.4852 15.408 29.2092C15.131 28.9322 14.951 28.5442 14.852 27.8092C14.751 27.0542 14.749 26.0532 14.749 24.6182V19.6182C14.749 18.1832 14.751 17.1812 14.852 16.4262C14.951 15.6922 15.132 15.3042 15.408 15.0272Z" fill="#622B86"/>
</svg>
