<svg width="48" height="48" viewBox="0 0 48 48" fill="none" xmlns="http://www.w3.org/2000/svg">
<path d="M20 21C20 22.656 19.104 24 18 24C16.896 24 16 22.656 16 21C16 19.344 16.896 18 18 18C19.104 18 20 19.344 20 21ZM32 21C32 22.656 31.104 24 30 24C28.896 24 28 22.656 28 21C28 19.344 28.896 18 30 18C31.104 18 32 19.344 32 21Z" fill="#999999"/>
<path fill-rule="evenodd" clip-rule="evenodd" d="M24 2.5C12.084 2.5 2.5 12.438 2.5 24.6V39.446C2.5 43.14 6.324 45.692 9.686 43.962C10.3537 43.6168 11.1029 43.4599 11.853 43.5082C12.6032 43.5565 13.326 43.8081 13.944 44.236C15.1364 45.0591 16.5511 45.4999 18 45.4999C19.4489 45.4999 20.8636 45.0591 22.056 44.236L22.762 43.752C23.1255 43.4995 23.5574 43.3642 24 43.3642C24.4426 43.3642 24.8745 43.4995 25.238 43.752L25.944 44.236C27.1364 45.0591 28.5511 45.4999 30 45.4999C31.4489 45.4999 32.8636 45.0591 34.056 44.236C34.6742 43.8077 35.3974 43.5559 36.148 43.5076C36.8985 43.4593 37.648 43.6164 38.316 43.962C41.676 45.692 45.5 43.138 45.5 39.446V24.602C45.5 12.438 35.916 2.5 24 2.5ZM5.5 24.6C5.5 14.01 13.824 5.5 24 5.5C34.176 5.5 42.5 14.01 42.5 24.6V39.446C42.5 41.042 40.92 41.93 39.688 41.294C38.5383 40.7009 37.249 40.4314 35.9579 40.5142C34.6669 40.597 33.4226 41.0289 32.358 41.764C31.6653 42.244 30.8427 42.5011 30 42.5011C29.1573 42.5011 28.3347 42.244 27.642 41.764L26.936 41.278C26.0728 40.6824 25.0488 40.3634 24 40.3634C22.9512 40.3634 21.9272 40.6824 21.064 41.278L20.358 41.762C19.6653 42.242 18.8427 42.4991 18 42.4991C17.1573 42.4991 16.3347 42.242 15.642 41.762C14.5772 41.0273 13.3328 40.5956 12.0418 40.5132C10.7508 40.4308 9.46157 40.7006 8.312 41.294C7.078 41.93 5.5 41.042 5.5 39.446V24.6Z" fill="#999999"/>
</svg>
