<svg width="24" height="24" viewBox="0 0 24 24" fill="none" xmlns="http://www.w3.org/2000/svg">
<path fill-rule="evenodd" clip-rule="evenodd" d="M14.325 3.75002H9.67502C9.52805 4.47069 9.17239 5.13222 8.65231 5.6523C8.13223 6.17238 7.47069 6.52804 6.75002 6.67502V7.32502C7.47069 7.47199 8.13223 7.82765 8.65231 8.34773C9.17239 8.86781 9.52805 9.52935 9.67502 10.25H14.325C14.472 9.52935 14.8277 8.86781 15.3477 8.34773C15.8678 7.82765 16.5294 7.47199 17.25 7.32502V6.67502C16.5294 6.52804 15.8678 6.17238 15.3477 5.6523C14.8277 5.13222 14.472 4.47069 14.325 3.75002ZM14.93 2.25302C14.6554 2.25035 14.3627 2.24935 14.052 2.25002H9.94802C9.63736 2.25002 9.34502 2.25102 9.07102 2.25302C9.01637 2.24952 8.96151 2.25053 8.90702 2.25602C8.45502 2.26402 8.05402 2.28302 7.70602 2.33002C7.07802 2.41402 6.51102 2.60002 6.05602 3.05502C5.60002 3.51102 5.41402 4.07802 5.33002 4.70502C5.28302 5.05402 5.26402 5.45502 5.25602 5.90702C5.25059 5.96118 5.24958 6.01569 5.25302 6.07002C5.25036 6.34535 5.24936 6.63802 5.25002 6.94802V7.05202C5.25002 7.36202 5.25102 7.65468 5.25302 7.93002C5.24958 7.98434 5.25059 8.03886 5.25602 8.09302C5.26402 8.54602 5.28302 8.94602 5.33002 9.29402C5.41402 9.92202 5.60002 10.489 6.05602 10.944C6.51102 11.4 7.07802 11.586 7.70602 11.67C8.05402 11.717 8.45502 11.736 8.90702 11.744C8.96151 11.7495 9.01637 11.7505 9.07102 11.747C9.34502 11.7497 9.63736 11.7507 9.94802 11.75H14.052C14.362 11.75 14.6547 11.749 14.93 11.747C14.9843 11.7505 15.0389 11.7495 15.093 11.744C15.546 11.736 15.947 11.717 16.294 11.67C16.922 11.586 17.489 11.4 17.944 10.944C18.4 10.489 18.586 9.92202 18.67 9.29402C18.7166 8.89533 18.7413 8.4944 18.744 8.09302C18.7495 8.03886 18.7505 7.98434 18.747 7.93002C18.7497 7.65468 18.7507 7.36202 18.75 7.05202V6.94802C18.75 6.63802 18.749 6.34535 18.747 6.07002C18.7505 6.01569 18.7495 5.96118 18.744 5.90702C18.7413 5.50563 18.7166 5.1047 18.67 4.70602C18.586 4.07802 18.4 3.51102 17.945 3.05602C17.489 2.60002 16.922 2.41402 16.295 2.33002C15.896 2.28342 15.4947 2.25872 15.093 2.25602C15.0389 2.25058 14.9843 2.24958 14.93 2.25302ZM15.894 3.79402C16.0074 4.09309 16.183 4.3647 16.4092 4.59087C16.6353 4.81704 16.9069 4.99262 17.206 5.10602C17.1997 5.0392 17.192 4.97252 17.183 4.90602C17.122 4.44402 17.014 4.24602 16.883 4.11602C16.752 3.98602 16.556 3.87902 16.095 3.81602C16.0285 3.80734 15.9618 3.80001 15.895 3.79402M17.207 8.89402C16.9079 9.00741 16.6363 9.183 16.4102 9.40917C16.184 9.63534 16.0084 9.90694 15.895 10.206C15.965 10.1994 16.0317 10.192 16.095 10.184C16.557 10.121 16.755 10.014 16.885 9.88402C17.015 9.75402 17.123 9.55602 17.185 9.09402C17.193 9.03068 17.2004 8.96402 17.207 8.89402ZM8.10702 10.206C7.99363 9.90694 7.81804 9.63534 7.59187 9.40917C7.3657 9.183 7.0941 9.00741 6.79502 8.89402C6.80169 8.96402 6.80936 9.03068 6.81802 9.09402C6.88002 9.55602 6.98702 9.75402 7.11802 9.88402C7.24902 10.014 7.44502 10.121 7.90602 10.184C7.97002 10.192 8.03702 10.1994 8.10702 10.206ZM6.79502 5.10602C7.0941 4.99262 7.3657 4.81704 7.59187 4.59087C7.81804 4.3647 7.99363 4.09309 8.10702 3.79402C8.03702 3.80068 7.97036 3.80835 7.90702 3.81702C7.44502 3.87902 7.24702 3.98602 7.11702 4.11702C6.98702 4.24802 6.88002 4.44402 6.81702 4.90502L6.79502 5.10602ZM12 6.75002C11.9337 6.75002 11.8701 6.77636 11.8232 6.82324C11.7764 6.87012 11.75 6.93371 11.75 7.00002C11.75 7.06632 11.7764 7.12991 11.8232 7.17679C11.8701 7.22368 11.9337 7.25002 12 7.25002C12.0663 7.25002 12.1299 7.22368 12.1768 7.17679C12.2237 7.12991 12.25 7.06632 12.25 7.00002C12.25 6.93371 12.2237 6.87012 12.1768 6.82324C12.1299 6.77636 12.0663 6.75002 12 6.75002ZM10.25 7.00002C10.25 6.53589 10.4344 6.09077 10.7626 5.76258C11.0908 5.43439 11.5359 5.25002 12 5.25002C12.4642 5.25002 12.9093 5.43439 13.2375 5.76258C13.5656 6.09077 13.75 6.53589 13.75 7.00002C13.75 7.46415 13.5656 7.90927 13.2375 8.23745C12.9093 8.56564 12.4642 8.75002 12 8.75002C11.5359 8.75002 11.0908 8.56564 10.7626 8.23745C10.4344 7.90927 10.25 7.46415 10.25 7.00002ZM8.68402 14.448C10.55 14.087 12.547 14.168 14.164 15.132C14.39 15.267 14.604 15.436 14.789 15.644C15.165 16.067 15.359 16.591 15.368 17.117C15.5587 16.993 15.751 16.8573 15.945 16.71L17.753 15.345C18.206 15.0126 18.7532 14.8333 19.315 14.8333C19.8769 14.8333 20.4241 15.0126 20.877 15.345C21.712 15.975 22.046 17.108 21.447 18.068C21.022 18.749 20.382 19.692 19.73 20.296C19.07 20.906 18.133 21.42 17.424 21.762C16.562 22.178 15.632 22.408 14.727 22.554C12.877 22.854 10.953 22.808 9.12502 22.431C8.18232 22.2372 7.22245 22.139 6.26002 22.138H4.00002C3.80111 22.138 3.61034 22.059 3.46969 21.9183C3.32904 21.7777 3.25002 21.5869 3.25002 21.388C3.25002 21.1891 3.32904 20.9983 3.46969 20.8577C3.61034 20.717 3.80111 20.638 4.00002 20.638H6.26002C7.32202 20.638 8.39502 20.749 9.42802 20.962C11.0942 21.3039 12.8085 21.3415 14.488 21.073C15.316 20.939 16.09 20.74 16.772 20.411C17.455 20.081 18.223 19.647 18.71 19.196C19.203 18.739 19.754 17.948 20.175 17.274C20.302 17.07 20.284 16.777 19.973 16.542C19.603 16.262 19.026 16.262 18.657 16.542L16.85 17.907C16.128 18.452 15.24 19.035 14.139 19.211C14.0237 19.2293 13.908 19.2453 13.792 19.259C13.7347 19.269 13.675 19.2757 13.613 19.279C12.9705 19.3414 12.3235 19.3414 11.681 19.279C11.5814 19.2718 11.4843 19.2448 11.3952 19.1995C11.3062 19.1542 11.2271 19.0916 11.1626 19.0154C11.0981 18.9391 11.0495 18.8508 11.0196 18.7555C10.9897 18.6602 10.9792 18.5599 10.9886 18.4605C10.998 18.361 11.0271 18.2645 11.0743 18.1765C11.1215 18.0885 11.1858 18.0108 11.2635 17.948C11.3411 17.8851 11.4305 17.8385 11.5264 17.8106C11.6223 17.7828 11.7228 17.7745 11.822 17.786C12.3768 17.8397 12.9355 17.8387 13.49 17.783L13.52 17.78C13.6133 17.7221 13.6926 17.6442 13.7522 17.552C13.8117 17.4597 13.85 17.3554 13.8644 17.2465C13.8787 17.1377 13.8688 17.027 13.8351 16.9224C13.8015 16.8179 13.7451 16.7221 13.67 16.642C13.5898 16.5549 13.4971 16.48 13.395 16.42C12.214 15.715 10.636 15.598 8.96902 15.92C7.34057 16.2469 5.79686 16.9056 4.43402 17.855C4.35365 17.912 4.26285 17.9526 4.16678 17.9745C4.07072 17.9964 3.97129 17.9992 3.87416 17.9827C3.77703 17.9661 3.6841 17.9306 3.60069 17.8782C3.51728 17.8257 3.44502 17.7574 3.38802 17.677C3.33103 17.5966 3.29042 17.5058 3.26852 17.4098C3.24662 17.3137 3.24386 17.2143 3.26039 17.1172C3.29377 16.921 3.40371 16.7461 3.56602 16.631C5.10335 15.5584 6.84581 14.8152 8.68402 14.448Z" fill="#491474"/>
</svg>
