<svg width="16" height="17" viewBox="0 0 16 17" fill="none" xmlns="http://www.w3.org/2000/svg">
<path fill-rule="evenodd" clip-rule="evenodd" d="M9.55002 2.66993H6.45002C6.35203 3.15038 6.11493 3.5914 5.76821 3.93812C5.42149 4.28484 4.98046 4.52195 4.50002 4.61993V5.05327C4.98046 5.15125 5.42149 5.38836 5.76821 5.73508C6.11493 6.0818 6.35203 6.52282 6.45002 7.00327H9.55002C9.648 6.52282 9.8851 6.0818 10.2318 5.73508C10.5785 5.38836 11.0196 5.15125 11.5 5.05327V4.61993C11.0196 4.52195 10.5785 4.28484 10.2318 3.93812C9.8851 3.5914 9.648 3.15038 9.55002 2.66993ZM9.95335 1.67193C9.77024 1.67016 9.57513 1.66949 9.36802 1.66993H6.63202C6.4249 1.66993 6.23002 1.6706 6.04735 1.67193C6.01091 1.6696 5.97434 1.67027 5.93801 1.67393C5.63668 1.67927 5.36935 1.69193 5.13735 1.72327C4.71868 1.77927 4.34068 1.90327 4.03735 2.2066C3.73335 2.5106 3.60935 2.8886 3.55335 3.3066C3.52202 3.53927 3.50935 3.8066 3.50402 4.10793C3.50039 4.14404 3.49972 4.18038 3.50201 4.2166C3.50024 4.40016 3.49957 4.59527 3.50002 4.80193V4.87127C3.50002 5.07793 3.50068 5.27304 3.50201 5.4566C3.49972 5.49282 3.50039 5.52916 3.50402 5.56527C3.50935 5.86727 3.52202 6.13393 3.55335 6.36593C3.60935 6.7846 3.73335 7.1626 4.03735 7.46593C4.34068 7.76993 4.71868 7.89393 5.13735 7.94993C5.36935 7.98127 5.63668 7.99393 5.93801 7.99927C5.97434 8.00293 6.01091 8.0036 6.04735 8.00127C6.23002 8.00304 6.4249 8.00371 6.63202 8.00327H9.36802C9.57468 8.00327 9.76979 8.0026 9.95335 8.00127C9.98957 8.00356 10.0259 8.00289 10.062 7.99927C10.364 7.99393 10.6313 7.98127 10.8627 7.94993C11.2813 7.89393 11.6593 7.76993 11.9627 7.46593C12.2667 7.1626 12.3907 6.7846 12.4467 6.36593C12.4777 6.10014 12.4942 5.83286 12.496 5.56527C12.4996 5.52916 12.5003 5.49282 12.498 5.4566C12.4998 5.27304 12.5005 5.07793 12.5 4.87127V4.80193C12.5 4.59527 12.4993 4.40016 12.498 4.2166C12.5003 4.18038 12.4996 4.14404 12.496 4.10793C12.4942 3.84034 12.4777 3.57306 12.4467 3.30727C12.3907 2.8886 12.2667 2.5106 11.9633 2.20727C11.6593 1.90327 11.2813 1.77927 10.8633 1.72327C10.5973 1.6922 10.3298 1.67573 10.062 1.67393C10.0259 1.67031 9.98957 1.66964 9.95335 1.67193ZM10.596 2.69927C10.6716 2.89865 10.7887 3.07972 10.9394 3.2305C11.0902 3.38128 11.2713 3.49834 11.4707 3.57393C11.4665 3.52939 11.4614 3.48494 11.4553 3.4406C11.4147 3.1326 11.3427 3.0006 11.2553 2.91393C11.168 2.82727 11.0373 2.75593 10.73 2.71393C10.6857 2.70815 10.6412 2.70326 10.5967 2.69927M11.4713 6.09927C11.272 6.17486 11.0909 6.29192 10.9401 6.4427C10.7893 6.59348 10.6723 6.77455 10.5967 6.97393C10.6433 6.96949 10.6878 6.9646 10.73 6.95927C11.038 6.91727 11.17 6.84593 11.2567 6.75927C11.3433 6.6726 11.4153 6.5406 11.4567 6.2326C11.462 6.19038 11.4669 6.14593 11.4713 6.09927ZM5.40468 6.97393C5.32909 6.77455 5.21203 6.59348 5.06125 6.4427C4.91047 6.29192 4.7294 6.17486 4.53002 6.09927C4.53446 6.14593 4.53957 6.19038 4.54535 6.2326C4.58668 6.5406 4.65802 6.6726 4.74535 6.75927C4.83268 6.84593 4.96335 6.91727 5.27068 6.95927C5.31335 6.9646 5.35802 6.96949 5.40468 6.97393ZM4.53002 3.57393C4.7294 3.49834 4.91047 3.38128 5.06125 3.2305C5.21203 3.07972 5.32909 2.89865 5.40468 2.69927C5.35802 2.70371 5.31357 2.70882 5.27135 2.7146C4.96335 2.75593 4.83135 2.82727 4.74468 2.9146C4.65802 3.00193 4.58668 3.1326 4.54468 3.43993L4.53002 3.57393ZM8.00002 4.66993C7.95581 4.66993 7.91342 4.68749 7.88216 4.71875C7.85091 4.75 7.83335 4.7924 7.83335 4.8366C7.83335 4.8808 7.85091 4.92319 7.88216 4.95445C7.91342 4.98571 7.95581 5.00327 8.00002 5.00327C8.04422 5.00327 8.08661 4.98571 8.11787 4.95445C8.14912 4.92319 8.16668 4.8808 8.16668 4.8366C8.16668 4.7924 8.14912 4.75 8.11787 4.71875C8.08661 4.68749 8.04422 4.66993 8.00002 4.66993ZM6.83335 4.8366C6.83335 4.52718 6.95626 4.23043 7.17506 4.01164C7.39385 3.79285 7.6906 3.66993 8.00002 3.66993C8.30943 3.66993 8.60618 3.79285 8.82497 4.01164C9.04377 4.23043 9.16668 4.52718 9.16668 4.8366C9.16668 5.14602 9.04377 5.44277 8.82497 5.66156C8.60618 5.88035 8.30943 6.00327 8.00002 6.00327C7.6906 6.00327 7.39385 5.88035 7.17506 5.66156C6.95626 5.44277 6.83335 5.14602 6.83335 4.8366ZM5.78935 9.80193C7.03335 9.56127 8.36468 9.61527 9.44268 10.2579C9.59335 10.3479 9.73602 10.4606 9.85935 10.5993C10.11 10.8813 10.2393 11.2306 10.2453 11.5813C10.3725 11.4986 10.5007 11.4082 10.63 11.3099L11.8353 10.3999C12.1373 10.1783 12.5021 10.0588 12.8767 10.0588C13.2512 10.0588 13.616 10.1783 13.918 10.3999C14.4747 10.8199 14.6973 11.5753 14.298 12.2153C14.0147 12.6693 13.588 13.2979 13.1533 13.7006C12.7133 14.1073 12.0887 14.4499 11.616 14.6779C11.0413 14.9553 10.4213 15.1086 9.81802 15.2059C8.58468 15.4059 7.30202 15.3753 6.08335 15.1239C5.45488 14.9947 4.81497 14.9293 4.17335 14.9286H2.66668C2.53407 14.9286 2.4069 14.8759 2.31313 14.7822C2.21936 14.6884 2.16668 14.5612 2.16668 14.4286C2.16668 14.296 2.21936 14.1688 2.31313 14.075C2.4069 13.9813 2.53407 13.9286 2.66668 13.9286H4.17335C4.88135 13.9286 5.59668 14.0026 6.28535 14.1446C7.39613 14.3725 8.53898 14.3976 9.65868 14.2186C10.2107 14.1293 10.7267 13.9966 11.1813 13.7773C11.6367 13.5573 12.1487 13.2679 12.4733 12.9673C12.802 12.6626 13.1693 12.1353 13.45 11.6859C13.5347 11.5499 13.5227 11.3546 13.3153 11.1979C13.0687 11.0113 12.684 11.0113 12.438 11.1979L11.2333 12.1079C10.752 12.4713 10.16 12.8599 9.42602 12.9773C9.34912 12.9894 9.27199 13.0001 9.19468 13.0093C9.15646 13.0159 9.11668 13.0204 9.07535 13.0226C8.64702 13.0642 8.21568 13.0642 7.78735 13.0226C7.72094 13.0178 7.65617 12.9998 7.59683 12.9696C7.53748 12.9394 7.48476 12.8977 7.44176 12.8468C7.39876 12.796 7.36635 12.7371 7.34642 12.6736C7.32649 12.61 7.31945 12.5432 7.32571 12.4769C7.33197 12.4106 7.3514 12.3462 7.38287 12.2876C7.41434 12.2289 7.45721 12.1771 7.50897 12.1352C7.56072 12.0933 7.62032 12.0622 7.68427 12.0437C7.74821 12.0251 7.81522 12.0196 7.88135 12.0273C8.25118 12.0631 8.62364 12.0624 8.99335 12.0253L9.01335 12.0233C9.07555 11.9847 9.12841 11.9327 9.16811 11.8712C9.20781 11.8097 9.23337 11.7402 9.24293 11.6676C9.2525 11.595 9.24584 11.5212 9.22343 11.4515C9.20102 11.3818 9.16342 11.318 9.11335 11.2646C9.05988 11.2065 8.9981 11.1566 8.93002 11.1166C8.14268 10.6466 7.09068 10.5686 5.97935 10.7833C4.89371 11.0012 3.86457 11.4403 2.95602 12.0733C2.90244 12.1113 2.8419 12.1383 2.77786 12.1529C2.71381 12.1675 2.64753 12.1694 2.58277 12.1584C2.51802 12.1473 2.45607 12.1237 2.40046 12.0887C2.34485 12.0538 2.29668 12.0082 2.25868 11.9546C2.22069 11.901 2.19362 11.8405 2.17902 11.7764C2.16442 11.7124 2.16257 11.6461 2.17359 11.5814C2.19585 11.4506 2.26914 11.334 2.37735 11.2573C3.40223 10.5422 4.56387 10.0467 5.78935 9.80193Z" fill="white"/>
</svg>
