<svg width="24" height="24" viewBox="0 0 24 24" fill="none" xmlns="http://www.w3.org/2000/svg">
<path fill-rule="evenodd" clip-rule="evenodd" d="M12 2.9C11.8285 3.17028 11.6671 3.4468 11.516 3.729L11.386 3.964L11.356 4.018C11.246 4.216 11.099 4.484 10.856 4.668C10.607 4.857 10.308 4.923 10.094 4.97L10.036 4.983L9.78099 5.04C9.31599 5.146 9.02599 5.213 8.83099 5.281C8.95099 5.462 9.15399 5.701 9.48199 6.085L9.65599 6.287L9.69599 6.334C9.84299 6.504 10.04 6.732 10.131 7.024C10.221 7.314 10.19 7.613 10.167 7.841L10.161 7.903L10.134 8.174C10.087 8.658 10.059 8.971 10.059 9.192C10.252 9.124 10.515 9.004 10.917 8.819L11.155 8.709L11.21 8.684C11.408 8.591 11.688 8.46 12 8.46C12.312 8.46 12.592 8.591 12.79 8.684L12.845 8.709L13.083 8.819C13.485 9.004 13.748 9.124 13.941 9.192C13.941 8.971 13.913 8.658 13.866 8.174L13.839 7.904L13.833 7.841C13.81 7.613 13.78 7.313 13.87 7.024C13.96 6.732 14.157 6.504 14.305 6.334L14.345 6.287L14.518 6.085C14.846 5.701 15.048 5.462 15.168 5.281C14.974 5.213 14.684 5.146 14.218 5.041L13.964 4.983L13.906 4.97C13.692 4.923 13.393 4.857 13.145 4.668C12.901 4.484 12.754 4.216 12.645 4.018L12.615 3.964L12.484 3.729C12.3329 3.4468 12.1715 3.17028 12 2.9ZM10.883 1.885C11.099 1.603 11.451 1.25 12 1.25C12.55 1.25 12.901 1.603 13.117 1.885C13.325 2.156 13.537 2.538 13.768 2.952L13.794 2.998L13.924 3.233L14.057 3.463L14.122 3.48L14.295 3.52L14.55 3.577L14.602 3.589C15.049 3.69 15.466 3.784 15.781 3.909C16.122 4.043 16.534 4.285 16.693 4.796C16.85 5.299 16.657 5.733 16.463 6.042C16.28 6.332 15.998 6.662 15.692 7.02L15.485 7.262L15.309 7.473C15.311 7.529 15.318 7.608 15.333 7.759L15.363 8.08C15.41 8.56 15.453 8.997 15.437 9.341C15.421 9.699 15.337 10.179 14.912 10.501C14.474 10.834 13.985 10.769 13.638 10.669C13.313 10.576 12.923 10.397 12.505 10.204L12.456 10.182L12.218 10.072L12 9.974L11.945 9.998L11.782 10.072L11.544 10.182L11.495 10.204C11.077 10.397 10.687 10.576 10.362 10.669C10.015 10.769 9.52599 10.834 9.08899 10.501C8.66299 10.179 8.57899 9.699 8.56299 9.341C8.54699 8.997 8.58999 8.56 8.63599 8.081L8.64099 8.029L8.66799 7.759C8.67839 7.66391 8.68606 7.56853 8.69099 7.473L8.63399 7.402L8.51599 7.262L8.34199 7.059L8.30799 7.02C8.00199 6.662 7.71999 6.332 7.53799 6.042C7.34299 5.733 7.14999 5.299 7.30699 4.796C7.46599 4.286 7.87799 4.043 8.21899 3.909C8.53399 3.784 8.95099 3.69 9.39899 3.589L9.44999 3.577L9.70499 3.52L9.94399 3.463L9.98399 3.394L10.075 3.234L10.206 2.998L10.232 2.952C10.462 2.538 10.676 2.156 10.883 1.885ZM3.99999 8.202C4.05199 8.298 4.16299 8.495 4.34599 8.632C4.54099 8.782 4.77599 8.832 4.87399 8.852L4.89899 8.857L4.91899 8.862L4.88699 8.9L4.86899 8.92C4.80099 8.999 4.64699 9.173 4.57699 9.4C4.50699 9.625 4.53199 9.855 4.54399 9.96C4.54399 9.97 4.54499 9.97933 4.54699 9.988V9.999C4.37744 9.91143 4.19068 9.86227 3.99999 9.855C3.75999 9.855 3.54699 9.954 3.45199 9.999L3.45399 9.988L3.45699 9.96C3.46799 9.855 3.49299 9.625 3.42299 9.4C3.35299 9.173 3.19899 8.999 3.13099 8.92L3.11299 8.9L3.07999 8.862L3.09999 8.857L3.12599 8.852C3.22299 8.832 3.45899 8.782 3.65499 8.632C3.79941 8.51498 3.91705 8.36835 3.99999 8.202ZM3.14399 6.715C3.27299 6.546 3.54599 6.25 3.99999 6.25C4.45399 6.25 4.72799 6.546 4.85599 6.714C4.97699 6.873 5.09599 7.086 5.20599 7.282L5.22399 7.316L5.27399 7.404L5.35799 7.423L5.39699 7.432C5.60699 7.479 5.84199 7.532 6.02699 7.605C6.23899 7.689 6.57499 7.87 6.70499 8.287C6.83199 8.696 6.66699 9.034 6.54899 9.221C6.41712 9.41498 6.27176 9.59943 6.11399 9.773L6.04099 9.859L6.05299 9.979L6.05599 10.018C6.07899 10.244 6.10199 10.488 6.09299 10.688C6.08299 10.9 6.03099 11.285 5.68299 11.549C5.32099 11.823 4.92799 11.756 4.71599 11.695C4.49462 11.6234 4.27901 11.5352 4.07099 11.431L3.99999 11.4L3.92899 11.433L3.89199 11.449C3.69495 11.5446 3.49185 11.6271 3.28399 11.696C3.07199 11.757 2.67899 11.824 2.31799 11.55C1.96799 11.286 1.91599 10.901 1.90699 10.688C1.89699 10.488 1.92199 10.245 1.94399 10.018L1.94699 9.98L1.95899 9.86L1.88599 9.774L1.85999 9.744C1.71226 9.57924 1.57562 9.40486 1.45099 9.222C1.33299 9.035 1.16799 8.697 1.29499 8.288C1.42499 7.871 1.76099 7.69 1.97199 7.606C2.19042 7.52854 2.41439 7.4677 2.64199 7.424L2.72699 7.404L2.77599 7.317L2.79499 7.283C2.90499 7.087 3.02299 6.873 3.14399 6.715ZM20 8.201C20.052 8.297 20.163 8.494 20.346 8.631C20.5104 8.74788 20.6997 8.82492 20.899 8.856L20.919 8.861L20.887 8.899L20.869 8.919C20.7402 9.05762 20.6409 9.22091 20.577 9.399C20.507 9.624 20.532 9.854 20.544 9.959C20.544 9.969 20.545 9.97833 20.547 9.987V9.998C20.3774 9.91078 20.1906 9.86196 20 9.855C19.76 9.855 19.547 9.954 19.453 9.999V9.988L19.456 9.96C19.4829 9.77302 19.4717 9.58253 19.423 9.4C19.3591 9.22191 19.2598 9.05863 19.131 8.92L19.113 8.9L19.08 8.862L19.1 8.857L19.126 8.852C19.223 8.832 19.459 8.782 19.654 8.632C19.837 8.495 19.948 8.297 20 8.201ZM19.144 6.714C19.273 6.546 19.546 6.25 20 6.25C20.454 6.25 20.727 6.546 20.856 6.714C20.977 6.873 21.096 7.086 21.206 7.282L21.224 7.316L21.274 7.404L21.358 7.423L21.397 7.432C21.607 7.479 21.843 7.532 22.027 7.605C22.239 7.689 22.575 7.87 22.705 8.287C22.832 8.696 22.667 9.034 22.549 9.221C22.442 9.39 22.284 9.574 22.139 9.744L22.114 9.774L22.041 9.859L22.053 9.979L22.056 10.018C22.078 10.244 22.102 10.488 22.093 10.688C22.083 10.9 22.031 11.285 21.683 11.549C21.321 11.823 20.928 11.756 20.716 11.695C20.525 11.64 20.306 11.539 20.108 11.448C20.096 11.4433 20.0837 11.4377 20.071 11.431L20 11.4L19.929 11.433L19.892 11.449C19.695 11.5446 19.4918 11.6271 19.284 11.696C19.072 11.757 18.679 11.824 18.318 11.55C17.968 11.286 17.916 10.901 17.907 10.688C17.897 10.488 17.922 10.245 17.944 10.018L17.947 9.98L17.959 9.86L17.886 9.774L17.86 9.744C17.7123 9.57924 17.5756 9.40486 17.451 9.222C17.334 9.035 17.168 8.697 17.295 8.288C17.425 7.871 17.761 7.69 17.972 7.606C18.1904 7.52854 18.4144 7.4677 18.642 7.424L18.727 7.404L18.776 7.317L18.795 7.283C18.905 7.087 19.023 6.872 19.144 6.714ZM8.68399 14.449C10.55 14.088 12.547 14.169 14.164 15.133C14.39 15.268 14.604 15.437 14.789 15.645C15.165 16.068 15.359 16.592 15.368 17.118C15.5587 16.994 15.751 16.8583 15.945 16.711L17.753 15.346C18.2059 15.0136 18.7531 14.8343 19.315 14.8343C19.8768 14.8343 20.424 15.0136 20.877 15.346C21.712 15.976 22.046 17.109 21.447 18.069C21.022 18.75 20.381 19.693 19.73 20.297C19.07 20.907 18.133 21.421 17.424 21.763C16.562 22.179 15.632 22.409 14.727 22.555C12.877 22.855 10.953 22.809 9.12499 22.432C8.18228 22.2382 7.22242 22.14 6.25999 22.139H3.99999C3.80108 22.139 3.61031 22.06 3.46966 21.9193C3.32901 21.7787 3.24999 21.5879 3.24999 21.389C3.24999 21.1901 3.32901 20.9993 3.46966 20.8587C3.61031 20.718 3.80108 20.639 3.99999 20.639H6.25999C7.32199 20.639 8.39499 20.75 9.42799 20.963C11.0942 21.3049 12.8084 21.3425 14.488 21.074C15.316 20.94 16.09 20.741 16.772 20.412C17.455 20.082 18.223 19.648 18.71 19.197C19.203 18.74 19.754 17.949 20.175 17.275C20.302 17.071 20.284 16.778 19.973 16.543C19.603 16.263 19.026 16.263 18.657 16.543L16.849 17.908C16.129 18.453 15.24 19.036 14.139 19.212C14.0236 19.2302 13.908 19.2463 13.792 19.26C13.7347 19.27 13.675 19.2767 13.613 19.28C12.9705 19.3424 12.3235 19.3424 11.681 19.28C11.5814 19.2728 11.4842 19.2457 11.3952 19.2005C11.3062 19.1552 11.2271 19.0926 11.1626 19.0164C11.0981 18.9401 11.0495 18.8517 11.0196 18.7565C10.9897 18.6612 10.9791 18.5609 10.9885 18.4614C10.9979 18.362 11.0271 18.2655 11.0743 18.1775C11.1215 18.0895 11.1858 18.0118 11.2634 17.9489C11.3411 17.8861 11.4305 17.8394 11.5264 17.8116C11.6223 17.7838 11.7228 17.7754 11.822 17.787C12.3767 17.8407 12.9354 17.8397 13.49 17.784L13.52 17.781C13.6133 17.7231 13.6926 17.6452 13.7521 17.553C13.8117 17.4607 13.85 17.3564 13.8644 17.2475C13.8787 17.1386 13.8687 17.0279 13.8351 16.9234C13.8015 16.8189 13.7451 16.7231 13.67 16.643C13.5898 16.5558 13.4971 16.481 13.395 16.421C12.214 15.716 10.636 15.599 8.96899 15.921C7.34054 16.2479 5.79683 16.9066 4.43399 17.856C4.27168 17.9711 4.07029 18.017 3.87413 17.9836C3.67796 17.9503 3.50309 17.8403 3.38799 17.678C3.27289 17.5157 3.22698 17.3143 3.26036 17.1181C3.29374 16.922 3.40368 16.7471 3.56599 16.632C5.10331 15.5594 6.84578 14.8162 8.68399 14.449Z" fill="#491474"/>
</svg>
