<svg width="64" height="65" viewBox="0 0 64 65" fill="none" xmlns="http://www.w3.org/2000/svg">
<path fill-rule="evenodd" clip-rule="evenodd" d="M27.8933 3.8335H36.1067C40.3813 3.8335 43.7333 3.8335 46.4107 4.08683C49.1387 4.34816 51.3733 4.88683 53.344 6.09216C55.4081 7.35677 57.1434 9.0921 58.408 11.1562C59.6133 13.1242 60.152 15.3615 60.4133 18.0895C60.6667 20.7668 60.6667 24.1188 60.6667 28.3962V31.2415C60.6667 34.2842 60.6667 36.6708 60.5333 38.5988C60.4 40.5588 60.1253 42.1908 59.4987 43.7002C58.7281 45.5606 57.5986 47.251 56.1747 48.6749C54.7508 50.0988 53.0604 51.2283 51.2 51.9988C49.0533 52.8895 46.6107 53.0868 43.2613 53.1455C42.4346 53.1426 41.6081 53.1746 40.784 53.2415C40.256 53.3002 40.0507 53.3855 39.9307 53.4548C39.8053 53.5295 39.632 53.6628 39.3333 54.0735C39.0107 54.5162 38.6453 55.1295 38.064 56.1108L36.6187 58.5535C34.5573 62.0388 29.4453 62.0388 27.3813 58.5535L25.936 56.1108C25.5409 55.4147 25.1174 54.735 24.6667 54.0735C24.368 53.6628 24.1947 53.5295 24.0693 53.4548C23.9493 53.3855 23.744 53.3002 23.216 53.2415C22.6507 53.1802 21.9093 53.1615 20.736 53.1428C17.3893 53.0868 14.9467 52.8895 12.8 51.9988C10.9396 51.2283 9.24918 50.0988 7.82529 48.6749C6.4014 47.251 5.27192 45.5606 4.50134 43.7002C3.87468 42.1908 3.60001 40.5588 3.46401 38.5988C3.33334 36.6708 3.33334 34.2842 3.33334 31.2388V28.3962C3.33334 24.1188 3.33334 20.7695 3.58668 18.0895C3.84801 15.3615 4.38668 13.1242 5.59201 11.1562C6.85662 9.0921 8.59195 7.35677 10.656 6.09216C12.624 4.88683 14.8613 4.34816 17.5893 4.08683C20.2667 3.8335 23.6187 3.8335 27.896 3.8335M17.9707 8.07083C15.5333 8.30283 13.984 8.7455 12.7467 9.50283C11.2206 10.4377 9.93756 11.7207 9.00268 13.2468C8.24534 14.4842 7.80268 16.0335 7.57068 18.4735C7.33601 20.9375 7.33334 24.1002 7.33334 28.5028V31.1695C7.33334 34.3028 7.33334 36.5535 7.45601 38.3295C7.57601 40.0868 7.80534 41.2335 8.19734 42.1722C9.3476 44.949 11.5538 47.1552 14.3307 48.3055C15.704 48.8762 17.4587 49.0895 20.808 49.1482H20.8907C21.952 49.1668 22.8827 49.1828 23.656 49.2682C24.4853 49.3615 25.2987 49.5455 26.08 49.9988C26.8533 50.4522 27.4133 51.0522 27.8987 51.7188C28.3493 52.3375 28.8107 53.1188 29.3333 54.0015L30.824 56.5188C30.9486 56.7183 31.122 56.8828 31.3277 56.9969C31.5334 57.1109 31.7648 57.1707 32 57.1707C32.2352 57.1707 32.4666 57.1109 32.6723 56.9969C32.878 56.8828 33.0514 56.7183 33.176 56.5188L34.6667 54.0015C35.1893 53.1188 35.6533 52.3375 36.1013 51.7188C36.5867 51.0522 37.1467 50.4495 37.92 49.9988C38.7013 49.5455 39.5147 49.3588 40.344 49.2682C41.1173 49.1828 42.048 49.1668 43.1093 49.1482H43.1947C46.5413 49.0895 48.296 48.8762 49.6693 48.3055C52.4462 47.1552 54.6524 44.949 55.8027 42.1722C56.1947 41.2335 56.424 40.0868 56.544 38.3295C56.6667 36.5535 56.6667 34.3028 56.6667 31.1695V28.5028C56.6667 24.1002 56.6667 20.9375 56.4293 18.4708C56.1973 16.0335 55.7547 14.4842 54.9973 13.2468C54.0629 11.722 52.7808 10.44 51.256 9.5055C50.0187 8.74816 48.4693 8.3055 46.0293 8.0735C43.5653 7.83883 40.4027 7.83616 36 7.83616H28C23.5973 7.83616 20.4347 7.83616 17.968 8.0735M40.7253 17.6468C44.0187 18.8762 46 22.2228 46 26.4095C46 29.5028 44.136 32.3882 42.1787 34.6255C40.1573 36.9322 37.7013 38.9268 35.88 40.2682L35.6667 40.4282C34.6747 41.1642 33.552 41.9962 32 41.9962C30.448 41.9962 29.3253 41.1642 28.336 40.4282L28.1227 40.2682C26.2987 38.9242 23.8427 36.9348 21.8213 34.6255C19.864 32.3882 18 29.5055 18 26.4095C18 22.2228 19.9813 18.8762 23.2747 17.6442C26.056 16.6042 29.2213 17.2815 32 19.4415C34.7813 17.2815 37.9467 16.6095 40.7253 17.6468ZM39.3253 21.3882C37.944 20.8735 35.7467 21.1482 33.4293 23.5162C33.2431 23.7065 33.0207 23.8576 32.7753 23.9609C32.5299 24.0641 32.2663 24.1172 32 24.1172C31.7337 24.1172 31.4702 24.0641 31.2247 23.9609C30.9793 23.8576 30.7569 23.7065 30.5707 23.5162C28.2533 21.1482 26.056 20.8762 24.6773 21.3882C23.3173 21.8948 22 23.4522 22 26.4068C22 27.9828 23.0213 29.9215 24.832 31.9882C26.5787 33.9855 28.7787 35.7802 30.4933 37.0442C31.1413 37.5242 31.4693 37.7588 31.7307 37.9002C31.9067 37.9962 31.9547 37.9935 31.9947 37.9935H32.0053C32.0453 37.9935 32.096 37.9935 32.2693 37.9002C32.6975 37.6392 33.1106 37.3543 33.5067 37.0468C35.224 35.7802 37.4213 33.9855 39.168 31.9882C40.9813 29.9215 42 27.9828 42 26.4068C42 23.4522 40.68 21.8975 39.3253 21.3882Z" fill="#491474"/>
</svg>
