<svg width="22" height="22" viewBox="0 0 22 22" fill="none" xmlns="http://www.w3.org/2000/svg">
<path fill-rule="evenodd" clip-rule="evenodd" d="M11 1.75C8.54675 1.75 6.19397 2.72455 4.45926 4.45926C2.72455 6.19397 1.75 8.54675 1.75 11C1.75 13.4533 2.72455 15.806 4.45926 17.5407C6.19397 19.2754 8.54675 20.25 11 20.25C13.4533 20.25 15.806 19.2754 17.5407 17.5407C19.2754 15.806 20.25 13.4533 20.25 11C20.25 8.54675 19.2754 6.19397 17.5407 4.45926C15.806 2.72455 13.4533 1.75 11 1.75ZM0.25 11C0.25 5.063 5.063 0.25 11 0.25C16.937 0.25 21.75 5.063 21.75 11C21.75 16.937 16.937 21.75 11 21.75C5.063 21.75 0.25 16.937 0.25 11ZM11 6.75C10.379 6.75 9.875 7.254 9.875 7.875C9.875 8.07391 9.79598 8.26468 9.65533 8.40533C9.51468 8.54598 9.32391 8.625 9.125 8.625C8.92609 8.625 8.73532 8.54598 8.59467 8.40533C8.45402 8.26468 8.375 8.07391 8.375 7.875C8.37497 7.41531 8.49565 6.96368 8.72498 6.56528C8.95431 6.16688 9.28423 5.83569 9.68175 5.60484C10.0793 5.37399 10.5304 5.25157 10.9901 5.24984C11.4498 5.24811 11.9019 5.36713 12.3011 5.59498C12.7004 5.82283 13.0328 6.15153 13.2651 6.54819C13.4974 6.94485 13.6215 7.39556 13.6249 7.85524C13.6284 8.31491 13.511 8.76743 13.2846 9.16751C13.0583 9.56759 12.7308 9.90122 12.335 10.135C12.1616 10.2329 12.0047 10.3574 11.87 10.504C11.768 10.624 11.75 10.704 11.75 10.75V12C11.75 12.1989 11.671 12.3897 11.5303 12.5303C11.3897 12.671 11.1989 12.75 11 12.75C10.8011 12.75 10.6103 12.671 10.4697 12.5303C10.329 12.3897 10.25 12.1989 10.25 12V10.75C10.25 10.244 10.472 9.834 10.727 9.533C10.979 9.236 11.293 9.009 11.572 8.844C11.7853 8.71911 11.9516 8.52737 12.0449 8.29847C12.1383 8.06957 12.1536 7.81628 12.0884 7.57781C12.0233 7.33934 11.8813 7.129 11.6846 6.97935C11.4878 6.8297 11.2472 6.74909 11 6.75ZM11 16C11.2652 16 11.5196 15.8946 11.7071 15.7071C11.8946 15.5196 12 15.2652 12 15C12 14.7348 11.8946 14.4804 11.7071 14.2929C11.5196 14.1054 11.2652 14 11 14C10.7348 14 10.4804 14.1054 10.2929 14.2929C10.1054 14.4804 10 14.7348 10 15C10 15.2652 10.1054 15.5196 10.2929 15.7071C10.4804 15.8946 10.7348 16 11 16Z" fill="#491474"/>
</svg>
