<svg width="36" height="28" viewBox="0 0 36 28" fill="none" xmlns="http://www.w3.org/2000/svg">
<path d="M34.2907 14.3579L29.5523 15.6272L30.455 16.5299C30.1001 16.8659 29.7349 17.1901 29.3522 17.4954C27.3102 19.1138 24.903 20.2706 22.344 20.8199C15.1911 22.4397 7.53875 19.1372 3.68699 12.8797C2.79599 11.4527 2.11094 9.89998 1.64353 8.28158C1.41859 7.46653 1.24623 6.63687 1.125 5.797C1.19803 6.64126 1.32365 7.48406 1.50185 8.31663C2.28622 11.8295 4.1398 15.0809 6.74123 17.5714C13.7714 24.2977 24.7774 24.4028 32.0705 18.1469L33.0184 19.0948L34.2878 14.3579H34.2907Z" fill="#491474"/>
</svg>
