<svg width="24" height="25" viewBox="0 0 24 25" fill="none" xmlns="http://www.w3.org/2000/svg">
<path fill-rule="evenodd" clip-rule="evenodd" d="M5.25 9.53933V8.23633C5.25 6.44612 5.96116 4.72923 7.22703 3.46336C8.4929 2.19749 10.2098 1.48633 12 1.48633C13.7902 1.48633 15.5071 2.19749 16.773 3.46336C18.0388 4.72923 18.75 6.44612 18.75 8.23633V9.53933C18.9767 9.55466 19.1907 9.57599 19.392 9.60333C20.292 9.72333 21.05 9.98333 21.652 10.5843C22.254 11.1863 22.512 11.9443 22.634 12.8443C22.75 13.7113 22.75 14.8143 22.75 16.1813V16.2913C22.75 17.6583 22.75 18.7613 22.634 19.6283C22.512 20.5283 22.254 21.2863 21.652 21.8883C21.05 22.4903 20.292 22.7483 19.392 22.8703C18.525 22.9863 17.422 22.9863 16.055 22.9863H7.945C6.578 22.9863 5.475 22.9863 4.608 22.8703C3.708 22.7483 2.95 22.4903 2.348 21.8883C1.746 21.2863 1.488 20.5283 1.367 19.6283C1.25 18.7613 1.25 17.6583 1.25 16.2913V16.1813C1.25 14.8143 1.25 13.7113 1.367 12.8443C1.487 11.9443 1.747 11.1863 2.348 10.5843C2.95 9.98233 3.708 9.72433 4.608 9.60333C4.80867 9.57599 5.02267 9.55466 5.25 9.53933ZM6.75 8.23633C6.75 6.84394 7.30312 5.50858 8.28769 4.52402C9.27225 3.53945 10.6076 2.98633 12 2.98633C13.3924 2.98633 14.7277 3.53945 15.7123 4.52402C16.6969 5.50858 17.25 6.84394 17.25 8.23633V9.48933C16.8767 9.48666 16.4783 9.48566 16.055 9.48633H7.945C7.52233 9.48633 7.124 9.48733 6.75 9.48933V8.23633ZM3.409 11.6453C3.686 11.3683 4.074 11.1883 4.809 11.0893C5.563 10.9883 6.565 10.9863 8 10.9863H16C17.435 10.9863 18.436 10.9883 19.192 11.0893C19.926 11.1883 20.314 11.3693 20.591 11.6453C20.868 11.9223 21.048 12.3103 21.147 13.0453C21.248 13.8003 21.25 14.8013 21.25 16.2363C21.25 17.6713 21.248 18.6723 21.147 19.4283C21.048 20.1623 20.867 20.5503 20.591 20.8273C20.314 21.1043 19.926 21.2843 19.191 21.3833C18.436 21.4843 17.435 21.4863 16 21.4863H8C6.565 21.4863 5.563 21.4843 4.808 21.3833C4.074 21.2843 3.686 21.1033 3.409 20.8273C3.132 20.5503 2.952 20.1623 2.853 19.4273C2.752 18.6723 2.75 17.6713 2.75 16.2363C2.75 14.8013 2.752 13.7993 2.853 13.0443C2.952 12.3103 3.133 11.9223 3.409 11.6453Z" fill="#491474"/>
</svg>
