<svg width="144" height="150" viewBox="0 0 144 150" fill="none" xmlns="http://www.w3.org/2000/svg">
<path d="M112.969 74.5109L101.215 77.6596L103.454 79.8988C102.574 80.7322 101.668 81.5366 100.719 82.2938C95.6532 86.3085 89.6819 89.1782 83.3338 90.5405C65.5903 94.5588 46.6077 86.3665 37.053 70.8441C34.8427 67.3041 33.1434 63.4525 31.9839 59.4378C31.4259 57.416 30.9984 55.358 30.6976 53.2745C30.8788 55.3688 31.1904 57.4595 31.6325 59.5248C33.5782 68.2389 38.1762 76.3045 44.6294 82.4822C62.0685 99.1677 89.3703 99.4286 107.462 83.9098L109.813 86.2614L112.962 74.5109H112.969Z" fill="#2DDB89"/>
</svg>
