<svg width="24" height="25" viewBox="0 0 24 25" fill="none" xmlns="http://www.w3.org/2000/svg">
<path d="M14.945 1.48633C13.578 1.48633 12.475 1.48633 11.608 1.60333C10.708 1.72333 9.94999 1.98333 9.34799 2.58433C8.82399 3.10933 8.55799 3.75433 8.41899 4.51233C8.28399 5.24933 8.25799 6.15033 8.25199 7.23233C8.25093 7.43124 8.32893 7.62243 8.46884 7.76383C8.60874 7.90523 8.79908 7.98527 8.99799 7.98633C9.19691 7.98739 9.38809 7.90939 9.5295 7.76949C9.6709 7.62958 9.75093 7.43924 9.75199 7.24033C9.75799 6.14733 9.78599 5.37233 9.89399 4.78333C9.99899 4.21733 10.166 3.88833 10.409 3.64533C10.686 3.36833 11.075 3.18833 11.809 3.08933C12.564 2.98833 13.565 2.98633 15 2.98633H16C17.436 2.98633 18.437 2.98833 19.192 3.08933C19.926 3.18833 20.314 3.36933 20.592 3.64533C20.868 3.92233 21.048 4.31033 21.147 5.04533C21.249 5.79933 21.25 6.80133 21.25 8.23633V16.2363C21.25 17.6713 21.249 18.6723 21.147 19.4283C21.048 20.1623 20.868 20.5503 20.591 20.8273C20.314 21.1043 19.926 21.2843 19.192 21.3833C18.437 21.4843 17.436 21.4863 16 21.4863H15C13.565 21.4863 12.564 21.4843 11.808 21.3833C11.075 21.2843 10.686 21.1033 10.409 20.8273C10.166 20.5833 9.99899 20.2553 9.89399 19.6893C9.78599 19.1003 9.75799 18.3253 9.75199 17.2323C9.75147 17.1338 9.73155 17.0364 9.69337 16.9456C9.6552 16.8548 9.59951 16.7724 9.5295 16.7032C9.45948 16.6339 9.37651 16.5791 9.28531 16.5419C9.19412 16.5047 9.09649 16.4858 8.99799 16.4863C8.8995 16.4869 8.80208 16.5068 8.71129 16.5449C8.62049 16.5831 8.53811 16.6388 8.46884 16.7088C8.39956 16.7788 8.34476 16.8618 8.30755 16.953C8.27035 17.0442 8.25147 17.1418 8.25199 17.2403C8.25799 18.3223 8.28399 19.2233 8.41899 19.9603C8.55899 20.7183 8.82399 21.3633 9.34899 21.8883C9.94999 22.4903 10.709 22.7483 11.609 22.8703C12.475 22.9863 13.578 22.9863 14.945 22.9863H16.055C17.423 22.9863 18.525 22.9863 19.392 22.8703C20.292 22.7483 21.05 22.4903 21.652 21.8883C22.254 21.2863 22.512 20.5283 22.634 19.6283C22.75 18.7613 22.75 17.6583 22.75 16.2913V8.18133C22.75 6.81433 22.75 5.71133 22.634 4.84433C22.513 3.94433 22.254 3.18633 21.652 2.58433C21.05 1.98233 20.292 1.72433 19.392 1.60333C18.525 1.48633 17.422 1.48633 16.055 1.48633H14.945Z" fill="#FF3B30"/>
<path d="M15 11.4867C15.1989 11.4867 15.3897 11.5657 15.5303 11.7064C15.671 11.847 15.75 12.0378 15.75 12.2367C15.75 12.4356 15.671 12.6264 15.5303 12.767C15.3897 12.9077 15.1989 12.9867 15 12.9867H4.02701L5.98801 14.6667C6.13918 14.7961 6.23275 14.9803 6.24813 15.1787C6.2635 15.3771 6.19943 15.5735 6.07001 15.7247C5.94058 15.8759 5.7564 15.9694 5.55799 15.9848C5.35958 16.0002 5.16318 15.9361 5.01201 15.8067L1.51201 12.8067C1.42967 12.7363 1.36357 12.6489 1.31825 12.5505C1.27292 12.4521 1.24945 12.345 1.24945 12.2367C1.24945 12.1284 1.27292 12.0213 1.31825 11.9229C1.36357 11.8245 1.42967 11.7371 1.51201 11.6667L5.01201 8.66669C5.08686 8.60261 5.1736 8.55389 5.26728 8.52333C5.36096 8.49277 5.45975 8.48096 5.55799 8.48857C5.65624 8.49619 5.75202 8.52308 5.83987 8.56771C5.92772 8.61234 6.00592 8.67384 6.07001 8.74869C6.13409 8.82354 6.18281 8.91029 6.21337 9.00397C6.24393 9.09765 6.25574 9.19643 6.24813 9.29467C6.24051 9.39292 6.21362 9.4887 6.16899 9.57655C6.12436 9.66441 6.06286 9.74261 5.98801 9.80669L4.02801 11.4867H15Z" fill="#FF3B30"/>
</svg>
