<svg width="102" height="43" viewBox="0 0 102 43" fill="none" xmlns="http://www.w3.org/2000/svg">
<g clip-path="url(#clip0_10010_169)">
<path d="M13 15.1607C13 11.7596 15.3971 10.0889 17.5726 10.0889C19.2691 10.0889 20.265 11.0284 20.4127 11.3852H20.4676V10.2778H23.3248V20.0453H20.4676V18.9379H20.4127C20.265 19.2948 19.2691 20.2342 17.5726 20.2342C15.3971 20.2342 13 18.5617 13 15.1624M18.1616 17.6397C19.415 17.6397 20.5397 16.7562 20.5397 15.1607C20.5397 13.5651 19.415 12.6816 18.1616 12.6816C16.9081 12.6816 15.8195 13.5826 15.8195 15.1607C15.8195 16.7387 16.9441 17.6397 18.1616 17.6397Z" fill="#491474"/>
<path d="M24.6882 10.276H27.5455V11.3835H27.6004C27.7481 11.0266 28.744 10.0871 30.4405 10.0871C32.616 10.0871 35.0131 11.7596 35.0131 15.1589C35.0131 18.5582 32.616 20.2307 30.4405 20.2307C28.744 20.2307 27.7481 19.2912 27.6004 18.9343H27.5455V23.6108H24.6882V10.276ZM29.8498 17.6397C31.0672 17.6397 32.1919 16.7387 32.1919 15.1607C32.1919 13.5826 31.0672 12.6816 29.8498 12.6816C28.6324 12.6816 27.4716 13.5651 27.4716 15.1607C27.4716 16.7562 28.5963 17.6397 29.8498 17.6397Z" fill="#491474"/>
<path d="M35.4543 15.1607C35.4543 11.8366 38.0351 10.0889 40.5421 10.0889C43.049 10.0889 45.6298 11.8349 45.6298 15.1607C45.6298 18.4865 43.049 20.2325 40.5421 20.2325C38.0351 20.2325 35.4543 18.4865 35.4543 15.1607ZM40.5438 17.6012C41.7784 17.6012 42.8121 16.6617 42.8121 15.1589C42.8121 13.6561 41.7801 12.7166 40.5438 12.7166C39.3075 12.7166 38.2755 13.6561 38.2755 15.1589C38.2755 16.6617 39.3075 17.6012 40.5438 17.6012Z" fill="#491474"/>
<path d="M45.7053 17.4508L47.9736 16.8314C48.1213 17.3003 48.4527 17.9581 49.3558 17.9581C49.8727 17.9581 50.3518 17.6957 50.3518 17.1498C50.3518 16.8297 50.168 16.5305 49.5413 16.3223L48.25 15.8342C46.6652 15.2516 45.9818 14.2002 45.9818 12.979C45.9818 11.1578 47.5855 10.0871 49.4657 10.0871C51.346 10.0871 52.5805 11.1193 52.9137 12.6974L50.6832 13.2607C50.4428 12.5102 49.9637 12.3405 49.5774 12.3405C49.0245 12.3405 48.748 12.6781 48.748 13.0158C48.748 13.3359 48.9317 13.6351 49.5774 13.8415L50.7759 14.2929C51.8079 14.6498 53.1729 15.3828 53.1729 17.1481C53.1729 19.1198 51.5314 20.229 49.3936 20.229C47.4585 20.229 46.0007 19.3087 45.707 17.449" fill="#491474"/>
<path d="M54.8487 17.0379V12.5854H53.4287V10.2743H54.8487V7.77777H57.706V10.2761H59.715V12.5872H57.706V16.569C57.706 17.0571 57.9824 17.5837 58.8496 17.5837C59.0711 17.5837 59.4025 17.5452 59.7527 17.4333V19.6499C59.3836 20.026 58.5731 20.1573 57.9086 20.1573C56.1383 20.1573 54.8487 19.2738 54.8487 17.0396" fill="#491474"/>
<path d="M60.1582 15.1607C60.1582 11.7614 62.5553 10.0889 64.7308 10.0889C66.4273 10.0889 67.4232 11.0284 67.5709 11.3852H67.6258V10.2778H70.483V20.0453H67.6258V18.9379H67.5709C67.4232 19.2948 66.4273 20.2342 64.7308 20.2342C62.5553 20.2342 60.1582 18.5617 60.1582 15.1624M65.3215 17.6397C66.575 17.6397 67.6996 16.7562 67.6996 15.1607C67.6996 13.5651 66.575 12.6816 65.3215 12.6816C64.068 12.6816 62.9794 13.5826 62.9794 15.1607C62.9794 16.7387 64.1041 17.6397 65.3215 17.6397Z" fill="#491474"/>
<path d="M30.2087 21.8858H33.066V22.9932H33.1209C33.2686 22.6363 34.2645 21.6968 35.961 21.6968C38.1365 21.6968 40.5336 23.3694 40.5336 26.7686C40.5336 30.1679 38.1365 31.8405 35.961 31.8405C34.2645 31.8405 33.2686 30.901 33.1209 30.5441H33.066V35.2205H30.2087V21.884V21.8858ZM35.3703 29.2494C36.5877 29.2494 37.7124 28.3484 37.7124 26.7704C37.7124 25.1923 36.5877 24.2914 35.3703 24.2914C34.1529 24.2914 32.9921 25.1748 32.9921 26.7704C32.9921 28.3659 34.1168 29.2494 35.3703 29.2494Z" fill="#491474"/>
<path d="M41.4368 21.8857H44.294V24.5345C44.6082 22.9564 45.5286 21.6985 47.2628 21.6985C47.4843 21.6985 47.7059 21.7178 47.9445 21.793V24.5537C47.723 24.517 47.5204 24.4978 47.2817 24.4978C45.3826 24.4978 44.2957 25.7941 44.2957 27.6346V31.655H41.4385V21.8875L41.4368 21.8857Z" fill="#491474"/>
<path d="M48.1094 26.7879C48.1094 23.4813 50.5236 21.6968 52.9945 21.6968C55.4654 21.6968 58.2848 23.4253 57.677 27.8953H50.855C51.2414 28.9468 52.2012 29.4734 53.4718 29.4734C54.3201 29.4734 55.0756 29.2669 55.7762 28.7228L57.0674 30.0945C56.2741 31.1092 54.9108 31.8405 53.1593 31.8405C50.5047 31.8405 48.1077 30 48.1077 26.7879M55.17 25.8117C54.9674 24.685 53.9904 24.1391 53.0323 24.1391C52.0741 24.1391 51.1143 24.6465 50.8018 25.8117H55.17Z" fill="#491474"/>
<path d="M64.6827 26.1301C64.6827 24.8897 64.0199 24.2896 63.1527 24.2896C62.2856 24.2896 61.5301 24.8914 61.5301 26.1301V31.6533H58.6729V21.8858H61.5301V23.0877C62.0469 22.2794 62.9312 21.6968 64.2036 21.6968C65.3283 21.6968 66.3053 22.185 66.9132 23.2364C67.5038 22.3529 68.5358 21.6968 70.0468 21.6968C72.0747 21.6968 73.5497 23.0125 73.5497 26.0164V31.6515H70.6925V26.1283C70.6925 24.8879 70.0297 24.2879 69.1625 24.2879C68.2405 24.2879 67.5399 24.8897 67.5399 26.1283V31.6515H64.6827V26.1283V26.1301Z" fill="#491474"/>
<path d="M74.9148 18.3168H77.772V20.8518H74.9148V18.3168ZM74.9148 21.8858H77.772V31.6532H74.9148V21.8858Z" fill="#491474"/>
<path d="M78.6768 26.7704C78.6768 23.3711 81.0738 21.6985 83.2494 21.6985C84.9458 21.6985 85.9418 22.638 86.0877 22.9949H86.1427V21.8875H88.9999V31.655H86.1427V30.5475H86.0877C85.94 30.9044 84.9441 31.8439 83.2494 31.8439C81.0738 31.8439 78.6768 30.1714 78.6768 26.7721M83.8383 29.2494C85.0918 29.2494 86.2165 28.3659 86.2165 26.7704C86.2165 25.1748 85.0918 24.2913 83.8383 24.2913C82.5848 24.2913 81.4962 25.1923 81.4962 26.7704C81.4962 28.3484 82.6209 29.2494 83.8383 29.2494Z" fill="#491474"/>
</g>
<defs>
<clipPath id="clip0_10010_169">
<rect width="76" height="27.4444" fill="white" transform="translate(13 7.77777)"/>
</clipPath>
</defs>
</svg>
