<svg width="32" height="32" viewBox="0 0 32 32" fill="none" xmlns="http://www.w3.org/2000/svg">
<path d="M20 17C20.2652 17 20.5196 16.8946 20.7071 16.7071C20.8946 16.5196 21 16.2652 21 16C21 15.7348 20.8946 15.4804 20.7071 15.2929C20.5196 15.1054 20.2652 15 20 15H12C11.7348 15 11.4804 15.1054 11.2929 15.2929C11.1054 15.4804 11 15.7348 11 16C11 16.2652 11.1054 16.5196 11.2929 16.7071C11.4804 16.8946 11.7348 17 12 17H20Z" fill="black"/>
<path fill-rule="evenodd" clip-rule="evenodd" d="M16 1.66699C8.08396 1.66699 1.66663 8.08433 1.66663 16.0003C1.66663 23.9163 8.08396 30.3337 16 30.3337C23.916 30.3337 30.3333 23.9163 30.3333 16.0003C30.3333 8.08433 23.916 1.66699 16 1.66699ZM3.66663 16.0003C3.66663 12.7293 4.96603 9.59229 7.27898 7.27934C9.59192 4.96639 12.729 3.66699 16 3.66699C19.271 3.66699 22.408 4.96639 24.7209 7.27934C27.0339 9.59229 28.3333 12.7293 28.3333 16.0003C28.3333 19.2713 27.0339 22.4084 24.7209 24.7213C22.408 27.0343 19.271 28.3337 16 28.3337C12.729 28.3337 9.59192 27.0343 7.27898 24.7213C4.96603 22.4084 3.66663 19.2713 3.66663 16.0003Z" fill="black"/>
</svg>
