<svg width="22" height="22" viewBox="0 0 22 22" fill="none" xmlns="http://www.w3.org/2000/svg">
<path fill-rule="evenodd" clip-rule="evenodd" d="M6.30701 0.25C5.50601 0.25 4.95701 0.25 4.46701 0.383C3.95987 0.522182 3.48769 0.766472 3.08111 1.10001C2.67452 1.43354 2.34264 1.84886 2.10701 2.319C1.88001 2.771 1.77301 3.31 1.61601 4.096L0.996005 7.194C0.886202 7.73708 0.896811 8.29764 1.02708 8.83618C1.15736 9.37472 1.40412 9.87815 1.75001 10.311V13.056C1.75001 14.894 1.75001 16.35 1.90301 17.489C2.06101 18.661 2.39301 19.61 3.14101 20.359C3.88901 21.107 4.83801 21.439 6.01101 21.597C7.15001 21.75 8.60601 21.75 10.443 21.75H11.556C13.394 21.75 14.85 21.75 15.989 21.597C17.161 21.439 18.11 21.107 18.859 20.359C19.607 19.61 19.939 18.661 20.097 17.489C20.25 16.349 20.25 14.894 20.25 13.056V10.312C20.5959 9.87895 20.8425 9.37531 20.9726 8.83659C21.1027 8.29787 21.1131 7.73717 21.003 7.194L20.383 4.096C20.227 3.31 20.119 2.771 19.893 2.319C19.6573 1.84876 19.3252 1.43337 18.9185 1.09983C18.5117 0.76629 18.0393 0.522057 17.532 0.383C17.043 0.25 16.494 0.25 15.692 0.25H6.30701ZM17.268 11.75C17.777 11.7509 18.2809 11.6496 18.75 11.452V13C18.75 14.907 18.748 16.262 18.61 17.29C18.475 18.295 18.221 18.875 17.798 19.298C17.375 19.721 16.795 19.975 15.788 20.11C15.2775 20.1727 14.7642 20.2107 14.25 20.224V17.468C14.25 17.028 14.25 16.648 14.222 16.338C14.192 16.008 14.126 15.682 13.948 15.375C13.7507 15.0329 13.4669 14.7487 13.125 14.551C12.818 14.374 12.492 14.308 12.162 14.278C11.852 14.25 11.472 14.25 11.032 14.25H10.967C10.527 14.25 10.148 14.25 9.83701 14.278C9.50701 14.308 9.182 14.374 8.87501 14.551C8.53274 14.7485 8.24854 15.0327 8.051 15.375C7.874 15.682 7.80801 16.008 7.77801 16.337C7.75001 16.649 7.75001 17.028 7.75001 17.467V20.224C7.23514 20.2108 6.7212 20.1728 6.21001 20.11C5.20501 19.975 4.62501 19.721 4.20201 19.298C3.77901 18.875 3.52501 18.295 3.39001 17.289C3.25101 16.262 3.25001 14.907 3.25001 13V11.452C4.04919 11.7891 4.93947 11.8433 5.77369 11.6059C6.60791 11.3684 7.33613 10.8534 7.83801 10.146C8.20083 10.6442 8.67656 11.0493 9.22619 11.3281C9.77582 11.6069 10.3837 11.7515 11 11.75C11.6163 11.7515 12.2242 11.6069 12.7738 11.3281C13.3235 11.0493 13.7992 10.6442 14.162 10.146C14.5135 10.6424 14.9791 11.0472 15.5196 11.3264C16.0601 11.6055 16.6597 11.7508 17.268 11.75ZM9.25001 20.248C9.63801 20.2493 10.0547 20.25 10.5 20.25H11.5C11.9453 20.25 12.362 20.2493 12.75 20.248V17.5C12.75 17.019 12.749 16.708 12.728 16.473C12.708 16.248 12.673 16.166 12.649 16.125C12.5833 16.0112 12.4888 15.9168 12.375 15.851C12.334 15.827 12.252 15.793 12.027 15.772C11.6851 15.7511 11.3425 15.7438 11 15.75C10.519 15.75 10.208 15.75 9.97301 15.772C9.74701 15.792 9.66601 15.827 9.62501 15.851C9.51088 15.9166 9.41604 16.0111 9.35001 16.125C9.32701 16.165 9.29201 16.248 9.27201 16.473C9.25101 16.708 9.25001 17.019 9.25001 17.5V20.248ZM7.67001 1.75H6.41801C5.46401 1.75 5.13301 1.757 4.86501 1.83C4.56078 1.91344 4.2775 2.05992 4.03356 2.25994C3.78961 2.45995 3.59045 2.70903 3.44901 2.991C3.32401 3.24 3.25301 3.562 3.06601 4.498L2.46801 7.488C2.40427 7.79564 2.40396 8.11306 2.4671 8.42082C2.53024 8.72859 2.6555 9.02024 2.83521 9.27795C3.01492 9.53565 3.24531 9.75398 3.51229 9.9196C3.77927 10.0852 4.07723 10.1946 4.38795 10.2411C4.69866 10.2877 5.0156 10.2703 5.31938 10.1901C5.62315 10.11 5.90739 9.96869 6.15469 9.77492C6.40199 9.58115 6.60717 9.33897 6.75768 9.06319C6.90818 8.78741 7.00084 8.48382 7.03 8.171L7.09901 7.485L7.103 7.443L7.67001 1.75ZM8.591 7.625L9.17901 1.75H12.821L13.405 7.592C13.4377 7.92627 13.4004 8.26369 13.2955 8.58275C13.1905 8.9018 13.0202 9.19547 12.7955 9.44504C12.5707 9.69461 12.2964 9.89459 11.99 10.0322C11.6836 10.1699 11.3519 10.2422 11.0161 10.2445C10.6802 10.2468 10.3476 10.179 10.0393 10.0456C9.7311 9.91218 9.45406 9.71598 9.22589 9.46951C8.99771 9.22305 8.82341 8.93173 8.7141 8.61415C8.60479 8.29657 8.56286 7.95969 8.591 7.625ZM17.135 1.83C16.867 1.757 16.536 1.75 15.582 1.75H14.328L14.971 8.17C15.0011 8.48192 15.0944 8.78445 15.2452 9.05916C15.396 9.33387 15.6011 9.57501 15.848 9.7679C16.095 9.9608 16.3787 10.1014 16.6817 10.1811C16.9848 10.2609 17.3009 10.2781 17.6108 10.2318C17.9207 10.1854 18.218 10.0765 18.4844 9.91159C18.7509 9.74668 18.981 9.52926 19.1607 9.27256C19.3405 9.01586 19.4661 8.72526 19.5299 8.41846C19.5938 8.11166 19.5945 7.79508 19.532 7.488L18.935 4.498C18.747 3.562 18.676 3.24 18.552 2.991C18.4104 2.70892 18.2111 2.45978 17.967 2.25976C17.7229 2.05974 17.4394 1.91332 17.135 1.83Z" fill="black"/>
</svg>
