<svg width="32" height="32" viewBox="0 0 32 32" fill="none" xmlns="http://www.w3.org/2000/svg">
<rect width="32" height="32" rx="16" fill="#491474"/>
<path fill-rule="evenodd" clip-rule="evenodd" d="M18.2056 8.49756C18.9081 7.79505 19.8609 7.40039 20.8544 7.40039C21.8479 7.40039 22.8007 7.79505 23.5032 8.49756C24.2057 9.20007 24.6004 10.1529 24.6004 11.1464C24.6004 12.1399 24.2057 13.0927 23.5032 13.7952L15.9144 21.384C15.4808 21.8176 15.2264 22.072 14.9416 22.2936C14.6066 22.556 14.2466 22.7786 13.8616 22.9616C13.5368 23.116 13.1944 23.2304 12.6136 23.424L9.94798 24.312L9.30638 24.5264C9.05121 24.6115 8.77734 24.624 8.5155 24.5622C8.25367 24.5005 8.01421 24.367 7.82398 24.1768C7.63375 23.9865 7.50028 23.7471 7.43853 23.4852C7.37678 23.2234 7.3892 22.9495 7.47438 22.6944L8.57678 19.388C8.77038 18.8064 8.88478 18.464 9.03918 18.1384C9.22265 17.7544 9.44532 17.3944 9.70718 17.0584C9.92798 16.7752 10.1832 16.52 10.6168 16.0864L18.2056 8.49756ZM9.91998 23.0576L12.1928 22.2992C12.8256 22.088 13.0944 21.9976 13.3448 21.8784C13.6498 21.7322 13.936 21.5554 14.2032 21.348C14.4216 21.1768 14.6232 20.9776 15.0952 20.5056L21.1512 14.4496C20.3209 14.1553 19.5672 13.6786 18.9456 13.0544C18.322 12.4326 17.8457 11.6789 17.552 10.8488L11.496 16.9048C11.024 17.376 10.824 17.5768 10.6536 17.796C10.4456 18.0626 10.2688 18.3488 10.1232 18.6544C10.004 18.9048 9.91358 19.1736 9.70238 19.8064L8.94398 22.0808L9.91998 23.0576ZM18.524 9.87516C18.552 10.0152 18.5976 10.2056 18.6752 10.4272C18.9092 11.0968 19.2922 11.7046 19.7952 12.2048C20.2951 12.7077 20.9026 13.0906 21.572 13.3248C21.7944 13.4024 21.9848 13.448 22.1248 13.476L22.6544 12.9464C23.129 12.4684 23.3949 11.8218 23.3937 11.1482C23.3925 10.4746 23.1244 9.82895 22.6481 9.35265C22.1718 8.87635 21.5261 8.60824 20.8525 8.60706C20.1789 8.60588 19.5323 8.87173 19.0544 9.34636L18.524 9.87516Z" fill="white"/>
</svg>
