<svg width="48" height="49" viewBox="0 0 48 49" fill="none" xmlns="http://www.w3.org/2000/svg">
<rect x="1.5" y="1.87012" width="45" height="45" rx="22.5" stroke="white" stroke-width="3"/>
<path d="M14.098 28.0065V20.1428H15.8821V28.0065H14.098ZM11.0582 24.9667V23.1826H18.9219V24.9667H11.0582ZM26.142 18.2338V29.8701H24.0341V20.2849H23.9659L21.2443 22.0235V20.0917L24.1364 18.2338H26.142ZM33.233 30.0292C32.3883 30.0292 31.6383 29.8872 30.983 29.6031C30.3314 29.319 29.8201 28.9307 29.4489 28.4383C29.0814 27.9421 28.8996 27.3796 28.9034 26.7508C28.8996 26.2622 29.0057 25.8133 29.2216 25.4042C29.4375 24.9951 29.7292 24.6542 30.0966 24.3815C30.4678 24.105 30.8807 23.9288 31.3352 23.8531V23.7735C30.7367 23.641 30.2519 23.336 29.8807 22.8588C29.5133 22.3777 29.3314 21.8228 29.3352 21.194C29.3314 20.5955 29.4981 20.0614 29.8352 19.5917C30.1723 19.122 30.6345 18.7527 31.2216 18.4838C31.8087 18.211 32.4792 18.0747 33.233 18.0747C33.9792 18.0747 34.6439 18.211 35.2273 18.4838C35.8144 18.7527 36.2765 19.122 36.6136 19.5917C36.9545 20.0614 37.125 20.5955 37.125 21.194C37.125 21.8228 36.9375 22.3777 36.5625 22.8588C36.1913 23.336 35.7121 23.641 35.125 23.7735V23.8531C35.5795 23.9288 35.9886 24.105 36.3523 24.3815C36.7197 24.6542 37.0114 24.9951 37.2273 25.4042C37.447 25.8133 37.5568 26.2622 37.5568 26.7508C37.5568 27.3796 37.3712 27.9421 37 28.4383C36.6288 28.9307 36.1174 29.319 35.4659 29.6031C34.8182 29.8872 34.0739 30.0292 33.233 30.0292ZM33.233 28.4042C33.6686 28.4042 34.0473 28.3303 34.3693 28.1826C34.6913 28.0311 34.9413 27.819 35.1193 27.5463C35.2973 27.2735 35.3883 26.9591 35.392 26.6031C35.3883 26.2319 35.2917 25.9042 35.1023 25.6201C34.9167 25.3322 34.661 25.1069 34.3352 24.944C34.0133 24.7811 33.6458 24.6997 33.233 24.6997C32.8163 24.6997 32.4451 24.7811 32.1193 24.944C31.7936 25.1069 31.536 25.3322 31.3466 25.6201C31.161 25.9042 31.0701 26.2319 31.0739 26.6031C31.0701 26.9591 31.1572 27.2735 31.3352 27.5463C31.5133 27.8152 31.7633 28.0254 32.0852 28.1769C32.411 28.3285 32.7936 28.4042 33.233 28.4042ZM33.233 23.1031C33.589 23.1031 33.9034 23.0311 34.1761 22.8872C34.4527 22.7432 34.6705 22.5425 34.8295 22.2849C34.9886 22.0273 35.0701 21.73 35.0739 21.3928C35.0701 21.0595 34.9905 20.7678 34.8352 20.5178C34.6799 20.2641 34.464 20.069 34.1875 19.9326C33.911 19.7925 33.5928 19.7224 33.233 19.7224C32.8655 19.7224 32.5417 19.7925 32.2614 19.9326C31.9848 20.069 31.7689 20.2641 31.6136 20.5178C31.4621 20.7678 31.3883 21.0595 31.392 21.3928C31.3883 21.73 31.464 22.0273 31.6193 22.2849C31.7784 22.5387 31.9962 22.7394 32.2727 22.8872C32.553 23.0311 32.8731 23.1031 33.233 23.1031Z" fill="white"/>
</svg>
