<svg width="48" height="48" viewBox="0 0 48 48" fill="none" xmlns="http://www.w3.org/2000/svg">
<rect x="1.5" y="1.5" width="45" height="45" rx="22.5" stroke="#491474" stroke-width="3"/>
<path d="M14.098 27.6364V19.7727H15.8821V27.6364H14.098ZM11.0582 24.5966V22.8125H18.9219V24.5966H11.0582ZM26.142 17.8636V29.5H24.0341V19.9148H23.9659L21.2443 21.6534V19.7216L24.1364 17.8636H26.142ZM33.233 29.6591C32.3883 29.6591 31.6383 29.517 30.983 29.233C30.3314 28.9489 29.8201 28.5606 29.4489 28.0682C29.0814 27.572 28.8996 27.0095 28.9034 26.3807C28.8996 25.892 29.0057 25.4432 29.2216 25.0341C29.4375 24.625 29.7292 24.2841 30.0966 24.0114C30.4678 23.7348 30.8807 23.5587 31.3352 23.483V23.4034C30.7367 23.2708 30.2519 22.9659 29.8807 22.4886C29.5133 22.0076 29.3314 21.4527 29.3352 20.8239C29.3314 20.2254 29.4981 19.6913 29.8352 19.2216C30.1723 18.7519 30.6345 18.3826 31.2216 18.1136C31.8087 17.8409 32.4792 17.7045 33.233 17.7045C33.9792 17.7045 34.6439 17.8409 35.2273 18.1136C35.8144 18.3826 36.2765 18.7519 36.6136 19.2216C36.9545 19.6913 37.125 20.2254 37.125 20.8239C37.125 21.4527 36.9375 22.0076 36.5625 22.4886C36.1913 22.9659 35.7121 23.2708 35.125 23.4034V23.483C35.5795 23.5587 35.9886 23.7348 36.3523 24.0114C36.7197 24.2841 37.0114 24.625 37.2273 25.0341C37.447 25.4432 37.5568 25.892 37.5568 26.3807C37.5568 27.0095 37.3712 27.572 37 28.0682C36.6288 28.5606 36.1174 28.9489 35.4659 29.233C34.8182 29.517 34.0739 29.6591 33.233 29.6591ZM33.233 28.0341C33.6686 28.0341 34.0473 27.9602 34.3693 27.8125C34.6913 27.661 34.9413 27.4489 35.1193 27.1761C35.2973 26.9034 35.3883 26.589 35.392 26.233C35.3883 25.8617 35.2917 25.5341 35.1023 25.25C34.9167 24.9621 34.661 24.7367 34.3352 24.5739C34.0133 24.411 33.6458 24.3295 33.233 24.3295C32.8163 24.3295 32.4451 24.411 32.1193 24.5739C31.7936 24.7367 31.536 24.9621 31.3466 25.25C31.161 25.5341 31.0701 25.8617 31.0739 26.233C31.0701 26.589 31.1572 26.9034 31.3352 27.1761C31.5133 27.4451 31.7633 27.6553 32.0852 27.8068C32.411 27.9583 32.7936 28.0341 33.233 28.0341ZM33.233 22.733C33.589 22.733 33.9034 22.661 34.1761 22.517C34.4527 22.3731 34.6705 22.1723 34.8295 21.9148C34.9886 21.6572 35.0701 21.3598 35.0739 21.0227C35.0701 20.6894 34.9905 20.3977 34.8352 20.1477C34.6799 19.8939 34.464 19.6989 34.1875 19.5625C33.911 19.4223 33.5928 19.3523 33.233 19.3523C32.8655 19.3523 32.5417 19.4223 32.2614 19.5625C31.9848 19.6989 31.7689 19.8939 31.6136 20.1477C31.4621 20.3977 31.3883 20.6894 31.392 21.0227C31.3883 21.3598 31.464 21.6572 31.6193 21.9148C31.7784 22.1686 31.9962 22.3693 32.2727 22.517C32.553 22.661 32.8731 22.733 33.233 22.733Z" fill="#491474"/>
</svg>
