<svg width="161" height="160" viewBox="0 0 161 160" fill="none" xmlns="http://www.w3.org/2000/svg">
<g clip-path="url(#clip0_12001_3055)">
<path d="M160.5 0H0.5V160H160.5V0Z" fill="white"/>
<path d="M53.8334 9.69696H48.9849V14.5454H53.8334V9.69696Z" fill="#491474"/>
<path d="M58.6819 9.69696H53.8334V14.5454H58.6819V9.69696Z" fill="#491474"/>
<path d="M73.2273 9.69696H68.3788V14.5454H73.2273V9.69696Z" fill="#491474"/>
<path d="M82.9243 9.69696H78.0758V14.5454H82.9243V9.69696Z" fill="#491474"/>
<path d="M97.4698 9.69696H92.6213V14.5454H97.4698V9.69696Z" fill="#491474"/>
<path d="M102.318 9.69696H97.4697V14.5454H102.318V9.69696Z" fill="#491474"/>
<path d="M107.167 9.69696H102.318V14.5454H107.167V9.69696Z" fill="#491474"/>
<path d="M112.015 9.69696H107.167V14.5454H112.015V9.69696Z" fill="#491474"/>
<path d="M53.8334 14.5454H48.9849V19.3939H53.8334V14.5454Z" fill="#491474"/>
<path d="M73.2273 14.5454H68.3788V19.3939H73.2273V14.5454Z" fill="#491474"/>
<path d="M78.0758 14.5454H73.2273V19.3939H78.0758V14.5454Z" fill="#491474"/>
<path d="M82.9243 14.5454H78.0758V19.3939H82.9243V14.5454Z" fill="#491474"/>
<path d="M102.318 14.5454H97.4697V19.3939H102.318V14.5454Z" fill="#491474"/>
<path d="M63.5303 19.394H58.6818V24.2424H63.5303V19.394Z" fill="#491474"/>
<path d="M68.3788 19.394H63.5303V24.2424H68.3788V19.394Z" fill="#491474"/>
<path d="M78.0758 19.394H73.2273V24.2424H78.0758V19.394Z" fill="#491474"/>
<path d="M87.7727 19.394H82.9243V24.2424H87.7727V19.394Z" fill="#491474"/>
<path d="M92.6213 19.394H87.7728V24.2424H92.6213V19.394Z" fill="#491474"/>
<path d="M102.318 19.394H97.4697V24.2424H102.318V19.394Z" fill="#491474"/>
<path d="M53.8334 24.2424H48.9849V29.0909H53.8334V24.2424Z" fill="#491474"/>
<path d="M58.6819 24.2424H53.8334V29.0909H58.6819V24.2424Z" fill="#491474"/>
<path d="M63.5303 24.2424H58.6818V29.0909H63.5303V24.2424Z" fill="#491474"/>
<path d="M68.3788 24.2424H63.5303V29.0909H68.3788V24.2424Z" fill="#491474"/>
<path d="M73.2273 24.2424H68.3788V29.0909H73.2273V24.2424Z" fill="#491474"/>
<path d="M78.0758 24.2424H73.2273V29.0909H78.0758V24.2424Z" fill="#491474"/>
<path d="M87.7727 24.2424H82.9243V29.0909H87.7727V24.2424Z" fill="#491474"/>
<path d="M92.6213 24.2424H87.7728V29.0909H92.6213V24.2424Z" fill="#491474"/>
<path d="M97.4698 24.2424H92.6213V29.0909H97.4698V24.2424Z" fill="#491474"/>
<path d="M73.2273 29.0909H68.3788V33.9394H73.2273V29.0909Z" fill="#491474"/>
<path d="M78.0758 29.0909H73.2273V33.9394H78.0758V29.0909Z" fill="#491474"/>
<path d="M87.7727 29.0909H82.9243V33.9394H87.7727V29.0909Z" fill="#491474"/>
<path d="M107.167 29.0909H102.318V33.9394H107.167V29.0909Z" fill="#491474"/>
<path d="M78.0758 33.9394H73.2273V38.7879H78.0758V33.9394Z" fill="#491474"/>
<path d="M102.318 33.9394H97.4697V38.7879H102.318V33.9394Z" fill="#491474"/>
<path d="M107.167 33.9394H102.318V38.7879H107.167V33.9394Z" fill="#491474"/>
<path d="M53.8334 38.7879H48.9849V43.6364H53.8334V38.7879Z" fill="#491474"/>
<path d="M63.5303 38.7879H58.6818V43.6364H63.5303V38.7879Z" fill="#491474"/>
<path d="M73.2273 38.7879H68.3788V43.6364H73.2273V38.7879Z" fill="#491474"/>
<path d="M82.9243 38.7879H78.0758V43.6364H82.9243V38.7879Z" fill="#491474"/>
<path d="M92.6213 38.7879H87.7728V43.6364H92.6213V38.7879Z" fill="#491474"/>
<path d="M102.318 38.7879H97.4697V43.6364H102.318V38.7879Z" fill="#491474"/>
<path d="M112.015 38.7879H107.167V43.6364H112.015V38.7879Z" fill="#491474"/>
<path d="M53.8334 43.6364H48.9849V48.4848H53.8334V43.6364Z" fill="#491474"/>
<path d="M63.5303 43.6364H58.6818V48.4848H63.5303V43.6364Z" fill="#491474"/>
<path d="M87.7727 43.6364H82.9243V48.4848H87.7727V43.6364Z" fill="#491474"/>
<path d="M97.4698 43.6364H92.6213V48.4848H97.4698V43.6364Z" fill="#491474"/>
<path d="M102.318 43.6364H97.4697V48.4848H102.318V43.6364Z" fill="#491474"/>
<path d="M107.167 43.6364H102.318V48.4848H107.167V43.6364Z" fill="#491474"/>
<path d="M15.0455 48.4848H10.197V53.3333H15.0455V48.4848Z" fill="#491474"/>
<path d="M24.7425 48.4848H19.894V53.3333H24.7425V48.4848Z" fill="#491474"/>
<path d="M29.591 48.4848H24.7425V53.3333H29.591V48.4848Z" fill="#491474"/>
<path d="M39.2879 48.4848H34.4395V53.3333H39.2879V48.4848Z" fill="#491474"/>
<path d="M44.1364 48.4848H39.2879V53.3333H44.1364V48.4848Z" fill="#491474"/>
<path d="M48.9849 48.4848H44.1364V53.3333H48.9849V48.4848Z" fill="#491474"/>
<path d="M97.4698 48.4848H92.6213V53.3333H97.4698V48.4848Z" fill="#491474"/>
<path d="M121.712 48.4848H116.864V53.3333H121.712V48.4848Z" fill="#491474"/>
<path d="M136.258 48.4848H131.409V53.3333H136.258V48.4848Z" fill="#491474"/>
<path d="M145.955 48.4848H141.106V53.3333H145.955V48.4848Z" fill="#491474"/>
<path d="M150.803 48.4848H145.955V53.3333H150.803V48.4848Z" fill="#491474"/>
<path d="M19.894 53.3333H15.0455V58.1818H19.894V53.3333Z" fill="#491474"/>
<path d="M29.591 53.3333H24.7425V58.1818H29.591V53.3333Z" fill="#491474"/>
<path d="M39.2879 53.3333H34.4395V58.1818H39.2879V53.3333Z" fill="#491474"/>
<path d="M48.9849 53.3333H44.1364V58.1818H48.9849V53.3333Z" fill="#491474"/>
<path d="M53.8334 53.3333H48.9849V58.1818H53.8334V53.3333Z" fill="#491474"/>
<path d="M58.6819 53.3333H53.8334V58.1818H58.6819V53.3333Z" fill="#491474"/>
<path d="M63.5303 53.3333H58.6818V58.1818H63.5303V53.3333Z" fill="#491474"/>
<path d="M68.3788 53.3333H63.5303V58.1818H68.3788V53.3333Z" fill="#491474"/>
<path d="M78.0758 53.3333H73.2273V58.1818H78.0758V53.3333Z" fill="#491474"/>
<path d="M82.9243 53.3333H78.0758V58.1818H82.9243V53.3333Z" fill="#491474"/>
<path d="M92.6213 53.3333H87.7728V58.1818H92.6213V53.3333Z" fill="#491474"/>
<path d="M97.4698 53.3333H92.6213V58.1818H97.4698V53.3333Z" fill="#491474"/>
<path d="M102.318 53.3333H97.4697V58.1818H102.318V53.3333Z" fill="#491474"/>
<path d="M107.167 53.3333H102.318V58.1818H107.167V53.3333Z" fill="#491474"/>
<path d="M121.712 53.3333H116.864V58.1818H121.712V53.3333Z" fill="#491474"/>
<path d="M126.561 53.3333H121.712V58.1818H126.561V53.3333Z" fill="#491474"/>
<path d="M131.409 53.3333H126.561V58.1818H131.409V53.3333Z" fill="#491474"/>
<path d="M150.803 53.3333H145.955V58.1818H150.803V53.3333Z" fill="#491474"/>
<path d="M15.0455 58.1818H10.197V63.0303H15.0455V58.1818Z" fill="#491474"/>
<path d="M24.7425 58.1818H19.894V63.0303H24.7425V58.1818Z" fill="#491474"/>
<path d="M34.4394 58.1818H29.5909V63.0303H34.4394V58.1818Z" fill="#491474"/>
<path d="M44.1364 58.1818H39.2879V63.0303H44.1364V58.1818Z" fill="#491474"/>
<path d="M53.8334 58.1818H48.9849V63.0303H53.8334V58.1818Z" fill="#491474"/>
<path d="M68.3788 58.1818H63.5303V63.0303H68.3788V58.1818Z" fill="#491474"/>
<path d="M82.9243 58.1818H78.0758V63.0303H82.9243V58.1818Z" fill="#491474"/>
<path d="M92.6213 58.1818H87.7728V63.0303H92.6213V58.1818Z" fill="#491474"/>
<path d="M102.318 58.1818H97.4697V63.0303H102.318V58.1818Z" fill="#491474"/>
<path d="M116.864 58.1818H112.015V63.0303H116.864V58.1818Z" fill="#491474"/>
<path d="M131.409 58.1818H126.561V63.0303H131.409V58.1818Z" fill="#491474"/>
<path d="M141.106 58.1818H136.258V63.0303H141.106V58.1818Z" fill="#491474"/>
<path d="M145.955 58.1818H141.106V63.0303H145.955V58.1818Z" fill="#491474"/>
<path d="M19.894 63.0303H15.0455V67.8788H19.894V63.0303Z" fill="#491474"/>
<path d="M24.7425 63.0303H19.894V67.8788H24.7425V63.0303Z" fill="#491474"/>
<path d="M39.2879 63.0303H34.4395V67.8788H39.2879V63.0303Z" fill="#491474"/>
<path d="M48.9849 63.0303H44.1364V67.8788H48.9849V63.0303Z" fill="#491474"/>
<path d="M53.8334 63.0303H48.9849V67.8788H53.8334V63.0303Z" fill="#491474"/>
<path d="M73.2273 63.0303H68.3788V67.8788H73.2273V63.0303Z" fill="#491474"/>
<path d="M78.0758 63.0303H73.2273V67.8788H78.0758V63.0303Z" fill="#491474"/>
<path d="M87.7727 63.0303H82.9243V67.8788H87.7727V63.0303Z" fill="#491474"/>
<path d="M102.318 63.0303H97.4697V67.8788H102.318V63.0303Z" fill="#491474"/>
<path d="M107.167 63.0303H102.318V67.8788H107.167V63.0303Z" fill="#491474"/>
<path d="M121.712 63.0303H116.864V67.8788H121.712V63.0303Z" fill="#491474"/>
<path d="M150.803 63.0303H145.955V67.8788H150.803V63.0303Z" fill="#491474"/>
<path d="M15.0455 67.8788H10.197V72.7273H15.0455V67.8788Z" fill="#491474"/>
<path d="M19.894 67.8788H15.0455V72.7273H19.894V67.8788Z" fill="#491474"/>
<path d="M24.7425 67.8788H19.894V72.7273H24.7425V67.8788Z" fill="#491474"/>
<path d="M34.4394 67.8788H29.5909V72.7273H34.4394V67.8788Z" fill="#491474"/>
<path d="M39.2879 67.8788H34.4395V72.7273H39.2879V67.8788Z" fill="#491474"/>
<path d="M44.1364 67.8788H39.2879V72.7273H44.1364V67.8788Z" fill="#491474"/>
<path d="M48.9849 67.8788H44.1364V72.7273H48.9849V67.8788Z" fill="#491474"/>
<path d="M53.8334 67.8788H48.9849V72.7273H53.8334V67.8788Z" fill="#491474"/>
<path d="M58.6819 67.8788H53.8334V72.7273H58.6819V67.8788Z" fill="#491474"/>
<path d="M63.5303 67.8788H58.6818V72.7273H63.5303V67.8788Z" fill="#491474"/>
<path d="M78.0758 67.8788H73.2273V72.7273H78.0758V67.8788Z" fill="#491474"/>
<path d="M97.4698 67.8788H92.6213V72.7273H97.4698V67.8788Z" fill="#491474"/>
<path d="M126.561 67.8788H121.712V72.7273H126.561V67.8788Z" fill="#491474"/>
<path d="M136.258 67.8788H131.409V72.7273H136.258V67.8788Z" fill="#491474"/>
<path d="M141.106 67.8788H136.258V72.7273H141.106V67.8788Z" fill="#491474"/>
<path d="M34.4394 72.7273H29.5909V77.5757H34.4394V72.7273Z" fill="#491474"/>
<path d="M58.6819 72.7273H53.8334V77.5757H58.6819V72.7273Z" fill="#491474"/>
<path d="M63.5303 72.7273H58.6818V77.5757H63.5303V72.7273Z" fill="#491474"/>
<path d="M68.3788 72.7273H63.5303V77.5757H68.3788V72.7273Z" fill="#491474"/>
<path d="M73.2273 72.7273H68.3788V77.5757H73.2273V72.7273Z" fill="#491474"/>
<path d="M87.7727 72.7273H82.9243V77.5757H87.7727V72.7273Z" fill="#491474"/>
<path d="M92.6213 72.7273H87.7728V77.5757H92.6213V72.7273Z" fill="#491474"/>
<path d="M107.167 72.7273H102.318V77.5757H107.167V72.7273Z" fill="#491474"/>
<path d="M121.712 72.7273H116.864V77.5757H121.712V72.7273Z" fill="#491474"/>
<path d="M141.106 72.7273H136.258V77.5757H141.106V72.7273Z" fill="#491474"/>
<path d="M145.955 72.7273H141.106V77.5757H145.955V72.7273Z" fill="#491474"/>
<path d="M150.803 72.7273H145.955V77.5757H150.803V72.7273Z" fill="#491474"/>
<path d="M15.0455 77.5758H10.197V82.4243H15.0455V77.5758Z" fill="#491474"/>
<path d="M24.7425 77.5758H19.894V82.4243H24.7425V77.5758Z" fill="#491474"/>
<path d="M44.1364 77.5758H39.2879V82.4243H44.1364V77.5758Z" fill="#491474"/>
<path d="M53.8334 77.5758H48.9849V82.4243H53.8334V77.5758Z" fill="#491474"/>
<path d="M97.4698 77.5758H92.6213V82.4243H97.4698V77.5758Z" fill="#491474"/>
<path d="M107.167 77.5758H102.318V82.4243H107.167V77.5758Z" fill="#491474"/>
<path d="M112.015 77.5758H107.167V82.4243H112.015V77.5758Z" fill="#491474"/>
<path d="M121.712 77.5758H116.864V82.4243H121.712V77.5758Z" fill="#491474"/>
<path d="M126.561 77.5758H121.712V82.4243H126.561V77.5758Z" fill="#491474"/>
<path d="M131.409 77.5758H126.561V82.4243H131.409V77.5758Z" fill="#491474"/>
<path d="M141.106 77.5758H136.258V82.4243H141.106V77.5758Z" fill="#491474"/>
<path d="M145.955 77.5758H141.106V82.4243H145.955V77.5758Z" fill="#491474"/>
<path d="M150.803 77.5758H145.955V82.4243H150.803V77.5758Z" fill="#491474"/>
<path d="M19.894 82.4242H15.0455V87.2727H19.894V82.4242Z" fill="#491474"/>
<path d="M24.7425 82.4242H19.894V87.2727H24.7425V82.4242Z" fill="#491474"/>
<path d="M39.2879 82.4242H34.4395V87.2727H39.2879V82.4242Z" fill="#491474"/>
<path d="M48.9849 82.4242H44.1364V87.2727H48.9849V82.4242Z" fill="#491474"/>
<path d="M53.8334 82.4242H48.9849V87.2727H53.8334V82.4242Z" fill="#491474"/>
<path d="M58.6819 82.4242H53.8334V87.2727H58.6819V82.4242Z" fill="#491474"/>
<path d="M102.318 82.4242H97.4697V87.2727H102.318V82.4242Z" fill="#491474"/>
<path d="M126.561 82.4242H121.712V87.2727H126.561V82.4242Z" fill="#491474"/>
<path d="M145.955 82.4242H141.106V87.2727H145.955V82.4242Z" fill="#491474"/>
<path d="M19.894 87.2727H15.0455V92.1212H19.894V87.2727Z" fill="#491474"/>
<path d="M24.7425 87.2727H19.894V92.1212H24.7425V87.2727Z" fill="#491474"/>
<path d="M34.4394 87.2727H29.5909V92.1212H34.4394V87.2727Z" fill="#491474"/>
<path d="M44.1364 87.2727H39.2879V92.1212H44.1364V87.2727Z" fill="#491474"/>
<path d="M53.8334 87.2727H48.9849V92.1212H53.8334V87.2727Z" fill="#491474"/>
<path d="M82.9243 87.2727H78.0758V92.1212H82.9243V87.2727Z" fill="#491474"/>
<path d="M102.318 87.2727H97.4697V92.1212H102.318V87.2727Z" fill="#491474"/>
<path d="M107.167 87.2727H102.318V92.1212H107.167V87.2727Z" fill="#491474"/>
<path d="M112.015 87.2727H107.167V92.1212H112.015V87.2727Z" fill="#491474"/>
<path d="M116.864 87.2727H112.015V92.1212H116.864V87.2727Z" fill="#491474"/>
<path d="M126.561 87.2727H121.712V92.1212H126.561V87.2727Z" fill="#491474"/>
<path d="M131.409 87.2727H126.561V92.1212H131.409V87.2727Z" fill="#491474"/>
<path d="M136.258 87.2727H131.409V92.1212H136.258V87.2727Z" fill="#491474"/>
<path d="M145.955 87.2727H141.106V92.1212H145.955V87.2727Z" fill="#491474"/>
<path d="M19.894 92.1212H15.0455V96.9697H19.894V92.1212Z" fill="#491474"/>
<path d="M29.591 92.1212H24.7425V96.9697H29.591V92.1212Z" fill="#491474"/>
<path d="M34.4394 92.1212H29.5909V96.9697H34.4394V92.1212Z" fill="#491474"/>
<path d="M48.9849 92.1212H44.1364V96.9697H48.9849V92.1212Z" fill="#491474"/>
<path d="M53.8334 92.1212H48.9849V96.9697H53.8334V92.1212Z" fill="#491474"/>
<path d="M68.3788 92.1212H63.5303V96.9697H68.3788V92.1212Z" fill="#491474"/>
<path d="M87.7727 92.1212H82.9243V96.9697H87.7727V92.1212Z" fill="#491474"/>
<path d="M97.4698 92.1212H92.6213V96.9697H97.4698V92.1212Z" fill="#491474"/>
<path d="M112.015 92.1212H107.167V96.9697H112.015V92.1212Z" fill="#491474"/>
<path d="M116.864 92.1212H112.015V96.9697H116.864V92.1212Z" fill="#491474"/>
<path d="M126.561 92.1212H121.712V96.9697H126.561V92.1212Z" fill="#491474"/>
<path d="M136.258 92.1212H131.409V96.9697H136.258V92.1212Z" fill="#491474"/>
<path d="M141.106 92.1212H136.258V96.9697H141.106V92.1212Z" fill="#491474"/>
<path d="M145.955 92.1212H141.106V96.9697H145.955V92.1212Z" fill="#491474"/>
<path d="M15.0455 96.9697H10.197V101.818H15.0455V96.9697Z" fill="#491474"/>
<path d="M29.591 96.9697H24.7425V101.818H29.591V96.9697Z" fill="#491474"/>
<path d="M34.4394 96.9697H29.5909V101.818H34.4394V96.9697Z" fill="#491474"/>
<path d="M44.1364 96.9697H39.2879V101.818H44.1364V96.9697Z" fill="#491474"/>
<path d="M48.9849 96.9697H44.1364V101.818H48.9849V96.9697Z" fill="#491474"/>
<path d="M53.8334 96.9697H48.9849V101.818H53.8334V96.9697Z" fill="#491474"/>
<path d="M58.6819 96.9697H53.8334V101.818H58.6819V96.9697Z" fill="#491474"/>
<path d="M68.3788 96.9697H63.5303V101.818H68.3788V96.9697Z" fill="#491474"/>
<path d="M73.2273 96.9697H68.3788V101.818H73.2273V96.9697Z" fill="#491474"/>
<path d="M78.0758 96.9697H73.2273V101.818H78.0758V96.9697Z" fill="#491474"/>
<path d="M82.9243 96.9697H78.0758V101.818H82.9243V96.9697Z" fill="#491474"/>
<path d="M87.7727 96.9697H82.9243V101.818H87.7727V96.9697Z" fill="#491474"/>
<path d="M97.4698 96.9697H92.6213V101.818H97.4698V96.9697Z" fill="#491474"/>
<path d="M112.015 96.9697H107.167V101.818H112.015V96.9697Z" fill="#491474"/>
<path d="M116.864 96.9697H112.015V101.818H116.864V96.9697Z" fill="#491474"/>
<path d="M131.409 96.9697H126.561V101.818H131.409V96.9697Z" fill="#491474"/>
<path d="M141.106 96.9697H136.258V101.818H141.106V96.9697Z" fill="#491474"/>
<path d="M29.591 101.818H24.7425V106.667H29.591V101.818Z" fill="#491474"/>
<path d="M34.4394 101.818H29.5909V106.667H34.4394V101.818Z" fill="#491474"/>
<path d="M53.8334 101.818H48.9849V106.667H53.8334V101.818Z" fill="#491474"/>
<path d="M63.5303 101.818H58.6818V106.667H63.5303V101.818Z" fill="#491474"/>
<path d="M78.0758 101.818H73.2273V106.667H78.0758V101.818Z" fill="#491474"/>
<path d="M82.9243 101.818H78.0758V106.667H82.9243V101.818Z" fill="#491474"/>
<path d="M87.7727 101.818H82.9243V106.667H87.7727V101.818Z" fill="#491474"/>
<path d="M97.4698 101.818H92.6213V106.667H97.4698V101.818Z" fill="#491474"/>
<path d="M102.318 101.818H97.4697V106.667H102.318V101.818Z" fill="#491474"/>
<path d="M126.561 101.818H121.712V106.667H126.561V101.818Z" fill="#491474"/>
<path d="M141.106 101.818H136.258V106.667H141.106V101.818Z" fill="#491474"/>
<path d="M19.894 106.667H15.0455V111.515H19.894V106.667Z" fill="#491474"/>
<path d="M39.2879 106.667H34.4395V111.515H39.2879V106.667Z" fill="#491474"/>
<path d="M44.1364 106.667H39.2879V111.515H44.1364V106.667Z" fill="#491474"/>
<path d="M48.9849 106.667H44.1364V111.515H48.9849V106.667Z" fill="#491474"/>
<path d="M53.8334 106.667H48.9849V111.515H53.8334V106.667Z" fill="#491474"/>
<path d="M58.6819 106.667H53.8334V111.515H58.6819V106.667Z" fill="#491474"/>
<path d="M63.5303 106.667H58.6818V111.515H63.5303V106.667Z" fill="#491474"/>
<path d="M68.3788 106.667H63.5303V111.515H68.3788V106.667Z" fill="#491474"/>
<path d="M73.2273 106.667H68.3788V111.515H73.2273V106.667Z" fill="#491474"/>
<path d="M78.0758 106.667H73.2273V111.515H78.0758V106.667Z" fill="#491474"/>
<path d="M82.9243 106.667H78.0758V111.515H82.9243V106.667Z" fill="#491474"/>
<path d="M97.4698 106.667H92.6213V111.515H97.4698V106.667Z" fill="#491474"/>
<path d="M102.318 106.667H97.4697V111.515H102.318V106.667Z" fill="#491474"/>
<path d="M112.015 106.667H107.167V111.515H112.015V106.667Z" fill="#491474"/>
<path d="M116.864 106.667H112.015V111.515H116.864V106.667Z" fill="#491474"/>
<path d="M121.712 106.667H116.864V111.515H121.712V106.667Z" fill="#491474"/>
<path d="M126.561 106.667H121.712V111.515H126.561V106.667Z" fill="#491474"/>
<path d="M131.409 106.667H126.561V111.515H131.409V106.667Z" fill="#491474"/>
<path d="M136.258 106.667H131.409V111.515H136.258V106.667Z" fill="#491474"/>
<path d="M141.106 106.667H136.258V111.515H141.106V106.667Z" fill="#491474"/>
<path d="M53.8334 111.515H48.9849V116.364H53.8334V111.515Z" fill="#491474"/>
<path d="M58.6819 111.515H53.8334V116.364H58.6819V111.515Z" fill="#491474"/>
<path d="M63.5303 111.515H58.6818V116.364H63.5303V111.515Z" fill="#491474"/>
<path d="M73.2273 111.515H68.3788V116.364H73.2273V111.515Z" fill="#491474"/>
<path d="M92.6213 111.515H87.7728V116.364H92.6213V111.515Z" fill="#491474"/>
<path d="M112.015 111.515H107.167V116.364H112.015V111.515Z" fill="#491474"/>
<path d="M131.409 111.515H126.561V116.364H131.409V111.515Z" fill="#491474"/>
<path d="M136.258 111.515H131.409V116.364H136.258V111.515Z" fill="#491474"/>
<path d="M141.106 111.515H136.258V116.364H141.106V111.515Z" fill="#491474"/>
<path d="M145.955 111.515H141.106V116.364H145.955V111.515Z" fill="#491474"/>
<path d="M150.803 111.515H145.955V116.364H150.803V111.515Z" fill="#491474"/>
<path d="M53.8334 116.364H48.9849V121.212H53.8334V116.364Z" fill="#491474"/>
<path d="M58.6819 116.364H53.8334V121.212H58.6819V116.364Z" fill="#491474"/>
<path d="M82.9243 116.364H78.0758V121.212H82.9243V116.364Z" fill="#491474"/>
<path d="M92.6213 116.364H87.7728V121.212H92.6213V116.364Z" fill="#491474"/>
<path d="M107.167 116.364H102.318V121.212H107.167V116.364Z" fill="#491474"/>
<path d="M112.015 116.364H107.167V121.212H112.015V116.364Z" fill="#491474"/>
<path d="M121.712 116.364H116.864V121.212H121.712V116.364Z" fill="#491474"/>
<path d="M131.409 116.364H126.561V121.212H131.409V116.364Z" fill="#491474"/>
<path d="M136.258 116.364H131.409V121.212H136.258V116.364Z" fill="#491474"/>
<path d="M145.955 116.364H141.106V121.212H145.955V116.364Z" fill="#491474"/>
<path d="M53.8334 121.212H48.9849V126.061H53.8334V121.212Z" fill="#491474"/>
<path d="M58.6819 121.212H53.8334V126.061H58.6819V121.212Z" fill="#491474"/>
<path d="M63.5303 121.212H58.6818V126.061H63.5303V121.212Z" fill="#491474"/>
<path d="M68.3788 121.212H63.5303V126.061H68.3788V121.212Z" fill="#491474"/>
<path d="M78.0758 121.212H73.2273V126.061H78.0758V121.212Z" fill="#491474"/>
<path d="M82.9243 121.212H78.0758V126.061H82.9243V121.212Z" fill="#491474"/>
<path d="M92.6213 121.212H87.7728V126.061H92.6213V121.212Z" fill="#491474"/>
<path d="M102.318 121.212H97.4697V126.061H102.318V121.212Z" fill="#491474"/>
<path d="M112.015 121.212H107.167V126.061H112.015V121.212Z" fill="#491474"/>
<path d="M131.409 121.212H126.561V126.061H131.409V121.212Z" fill="#491474"/>
<path d="M136.258 121.212H131.409V126.061H136.258V121.212Z" fill="#491474"/>
<path d="M150.803 121.212H145.955V126.061H150.803V121.212Z" fill="#491474"/>
<path d="M58.6819 126.061H53.8334V130.909H58.6819V126.061Z" fill="#491474"/>
<path d="M63.5303 126.061H58.6818V130.909H63.5303V126.061Z" fill="#491474"/>
<path d="M87.7727 126.061H82.9243V130.909H87.7727V126.061Z" fill="#491474"/>
<path d="M97.4698 126.061H92.6213V130.909H97.4698V126.061Z" fill="#491474"/>
<path d="M112.015 126.061H107.167V130.909H112.015V126.061Z" fill="#491474"/>
<path d="M116.864 126.061H112.015V130.909H116.864V126.061Z" fill="#491474"/>
<path d="M121.712 126.061H116.864V130.909H121.712V126.061Z" fill="#491474"/>
<path d="M126.561 126.061H121.712V130.909H126.561V126.061Z" fill="#491474"/>
<path d="M131.409 126.061H126.561V130.909H131.409V126.061Z" fill="#491474"/>
<path d="M141.106 126.061H136.258V130.909H141.106V126.061Z" fill="#491474"/>
<path d="M145.955 126.061H141.106V130.909H145.955V126.061Z" fill="#491474"/>
<path d="M150.803 126.061H145.955V130.909H150.803V126.061Z" fill="#491474"/>
<path d="M53.8334 130.909H48.9849V135.758H53.8334V130.909Z" fill="#491474"/>
<path d="M58.6819 130.909H53.8334V135.758H58.6819V130.909Z" fill="#491474"/>
<path d="M63.5303 130.909H58.6818V135.758H63.5303V130.909Z" fill="#491474"/>
<path d="M68.3788 130.909H63.5303V135.758H68.3788V130.909Z" fill="#491474"/>
<path d="M87.7727 130.909H82.9243V135.758H87.7727V130.909Z" fill="#491474"/>
<path d="M92.6213 130.909H87.7728V135.758H92.6213V130.909Z" fill="#491474"/>
<path d="M97.4698 130.909H92.6213V135.758H97.4698V130.909Z" fill="#491474"/>
<path d="M107.167 130.909H102.318V135.758H107.167V130.909Z" fill="#491474"/>
<path d="M112.015 130.909H107.167V135.758H112.015V130.909Z" fill="#491474"/>
<path d="M116.864 130.909H112.015V135.758H116.864V130.909Z" fill="#491474"/>
<path d="M131.409 130.909H126.561V135.758H131.409V130.909Z" fill="#491474"/>
<path d="M136.258 130.909H131.409V135.758H136.258V130.909Z" fill="#491474"/>
<path d="M150.803 130.909H145.955V135.758H150.803V130.909Z" fill="#491474"/>
<path d="M53.8334 135.758H48.9849V140.606H53.8334V135.758Z" fill="#491474"/>
<path d="M63.5303 135.758H58.6818V140.606H63.5303V135.758Z" fill="#491474"/>
<path d="M68.3788 135.758H63.5303V140.606H68.3788V135.758Z" fill="#491474"/>
<path d="M78.0758 135.758H73.2273V140.606H78.0758V135.758Z" fill="#491474"/>
<path d="M102.318 135.758H97.4697V140.606H102.318V135.758Z" fill="#491474"/>
<path d="M116.864 135.758H112.015V140.606H116.864V135.758Z" fill="#491474"/>
<path d="M126.561 135.758H121.712V140.606H126.561V135.758Z" fill="#491474"/>
<path d="M141.106 135.758H136.258V140.606H141.106V135.758Z" fill="#491474"/>
<path d="M150.803 135.758H145.955V140.606H150.803V135.758Z" fill="#491474"/>
<path d="M73.2273 140.606H68.3788V145.455H73.2273V140.606Z" fill="#491474"/>
<path d="M78.0758 140.606H73.2273V145.455H78.0758V140.606Z" fill="#491474"/>
<path d="M82.9243 140.606H78.0758V145.455H82.9243V140.606Z" fill="#491474"/>
<path d="M87.7727 140.606H82.9243V145.455H87.7727V140.606Z" fill="#491474"/>
<path d="M92.6213 140.606H87.7728V145.455H92.6213V140.606Z" fill="#491474"/>
<path d="M112.015 140.606H107.167V145.455H112.015V140.606Z" fill="#491474"/>
<path d="M116.864 140.606H112.015V145.455H116.864V140.606Z" fill="#491474"/>
<path d="M126.561 140.606H121.712V145.455H126.561V140.606Z" fill="#491474"/>
<path d="M131.409 140.606H126.561V145.455H131.409V140.606Z" fill="#491474"/>
<path d="M136.258 140.606H131.409V145.455H136.258V140.606Z" fill="#491474"/>
<path d="M145.955 140.606H141.106V145.455H145.955V140.606Z" fill="#491474"/>
<path d="M53.8334 145.455H48.9849V150.303H53.8334V145.455Z" fill="#491474"/>
<path d="M63.5303 145.455H58.6818V150.303H63.5303V145.455Z" fill="#491474"/>
<path d="M68.3788 145.455H63.5303V150.303H68.3788V145.455Z" fill="#491474"/>
<path d="M73.2273 145.455H68.3788V150.303H73.2273V145.455Z" fill="#491474"/>
<path d="M82.9243 145.455H78.0758V150.303H82.9243V145.455Z" fill="#491474"/>
<path d="M87.7727 145.455H82.9243V150.303H87.7727V145.455Z" fill="#491474"/>
<path d="M102.318 145.455H97.4697V150.303H102.318V145.455Z" fill="#491474"/>
<path d="M107.167 145.455H102.318V150.303H107.167V145.455Z" fill="#491474"/>
<path d="M112.015 145.455H107.167V150.303H112.015V145.455Z" fill="#491474"/>
<path d="M121.712 145.455H116.864V150.303H121.712V145.455Z" fill="#491474"/>
<path d="M126.561 145.455H121.712V150.303H126.561V145.455Z" fill="#491474"/>
<path d="M145.955 145.455H141.106V150.303H145.955V145.455Z" fill="#491474"/>
<path d="M32.5491 9.69974H21.7842C16.5379 9.69974 12.0932 13.166 10.6721 17.9036C10.5252 18.3937 10.4104 18.8973 10.3307 19.4122C10.2428 19.9803 10.197 20.562 10.197 21.1543V32.1747C10.197 38.4939 15.3965 43.6327 21.7842 43.6327L27.1667 43.6337L32.5491 43.6323C38.9365 43.6323 44.1364 38.4936 44.1364 32.1744V21.1543C44.1364 14.8382 38.9368 9.69974 32.5491 9.69974ZM39.0454 32.1747C39.0454 35.6854 36.1314 38.5418 32.5478 38.5418L27.1667 38.5428L21.7856 38.5414C18.2019 38.5414 15.2879 35.6851 15.2879 32.1747V21.1543C15.2879 20.0577 15.5723 19.0253 16.0729 18.1232C16.5548 17.2553 17.2367 16.509 18.0577 15.9439C19.1132 15.2173 20.3985 14.7906 21.7839 14.7906H32.5491C36.1314 14.7906 39.0454 17.6453 39.0454 21.1543V32.1747Z" fill="#491474"/>
<path d="M139.216 9.69968H128.451C123.205 9.69968 118.76 13.1659 117.339 17.9035C117.192 18.3936 117.077 18.8973 116.997 19.4121C116.91 19.9803 116.864 20.562 116.864 21.1542V32.1747C116.864 38.4939 122.063 43.6326 128.451 43.6326L133.833 43.6336L139.216 43.6323C145.603 43.6323 150.803 38.4935 150.803 32.1743V21.1542C150.803 14.8381 145.604 9.69968 139.216 9.69968ZM145.712 32.1747C145.712 35.6854 142.798 38.5417 139.215 38.5417L133.833 38.5427L128.452 38.5414C124.869 38.5414 121.955 35.685 121.955 32.1747V21.1542C121.955 20.0576 122.239 19.0252 122.74 18.1231C123.222 17.2553 123.903 16.5089 124.724 15.9438C125.78 15.2172 127.065 14.7906 128.451 14.7906H139.216C142.798 14.7906 145.712 17.6452 145.712 21.1542V32.1747Z" fill="#491474"/>
<path d="M32.5492 116.366H21.7843C16.5379 116.366 12.0932 119.833 10.6722 124.57C10.5252 125.06 10.4105 125.564 10.3307 126.079C10.2428 126.647 10.197 127.229 10.197 127.821V138.841C10.197 145.161 15.3965 150.299 21.7843 150.299L27.1667 150.3L32.5492 150.299C38.9366 150.299 44.1364 145.16 44.1364 138.841V127.821C44.1364 121.505 38.9369 116.366 32.5492 116.366ZM39.0455 138.841C39.0455 142.352 36.1315 145.208 32.5478 145.208L27.1667 145.209L21.7856 145.208C18.202 145.208 15.2879 142.352 15.2879 138.841V127.821C15.2879 126.724 15.5723 125.692 16.0729 124.79C16.5549 123.922 17.2367 123.176 18.0577 122.611C19.1132 121.884 20.3985 121.457 21.7839 121.457H32.5492C36.1315 121.457 39.0455 124.312 39.0455 127.821V138.841Z" fill="#491474"/>
<path d="M23.8723 33.9394C21.6774 33.9394 19.892 32.1893 19.892 30.0401V23.2913C19.892 22.6198 20.0665 21.988 20.3721 21.4351C20.6672 20.903 21.085 20.4457 21.5881 20.1007C22.2344 19.6559 23.0221 19.394 23.8701 19.394H30.4632C32.656 19.394 34.4415 21.142 34.4415 23.2911V30.0399C34.4415 32.189 32.6562 33.9393 30.4632 33.9393H27.1667L23.8723 33.9394Z" fill="#491474"/>
<path d="M130.539 33.9394C128.344 33.9394 126.559 32.1893 126.559 30.0401V23.2913C126.559 22.6198 126.733 21.988 127.039 21.4351C127.334 20.903 127.752 20.4457 128.255 20.1007C128.901 19.6559 129.689 19.394 130.537 19.394H137.13C139.323 19.394 141.108 21.142 141.108 23.2911V30.0399C141.108 32.189 139.323 33.9393 137.13 33.9393H133.833L130.539 33.9394Z" fill="#491474"/>
<path d="M23.8723 140.606C21.6774 140.606 19.892 138.856 19.892 136.707V129.958C19.892 129.286 20.0665 128.655 20.3721 128.102C20.6672 127.57 21.085 127.112 21.5881 126.767C22.2344 126.323 23.0221 126.061 23.8701 126.061H30.4632C32.656 126.061 34.4415 127.809 34.4415 129.958V136.707C34.4415 138.856 32.6562 140.606 30.4632 140.606H27.1667L23.8723 140.606Z" fill="#491474"/>
</g>
<defs>
<clipPath id="clip0_12001_3055">
<rect width="160" height="160" fill="white" transform="translate(0.5)"/>
</clipPath>
</defs>
</svg>
