<svg width="200" height="148" viewBox="0 0 200 148" fill="none" xmlns="http://www.w3.org/2000/svg">
<path d="M124.248 35.04V130.892H101.104L101.152 130.736H120.804V37.752H79.948V130.736H92.592L101.104 130.892H76.872V35.04H124.248Z" fill="#F0F0F0"/>
<path d="M120.804 37.752V130.736H101.152L101.104 130.892L92.5921 130.736H79.9481V37.752H120.804Z" fill="#F0F0F0"/>
<path d="M120.808 37.752H79.9481V130.736H120.808V37.752Z" fill="#FAFAFA"/>
<path d="M120.804 37.752V62.852L101.152 130.736L101.104 130.892L92.5921 130.736L119.868 37.752H120.804Z" fill="white"/>
<path d="M84.7401 74.428H79.9481V88.312H84.7401V74.428Z" fill="white"/>
<path d="M107.224 37.748L79.9481 130.736L88.4601 130.892L115.428 37.748H107.224Z" fill="white"/>
<path d="M34.8 90.8L37.08 89.14C37.664 91.648 40.108 93.56 41.952 94.684C42.836 95.22 43.188 96.492 42.584 96.932L41.104 98.012C39.292 99.308 34.8 90.8 34.8 90.8Z" fill="#E0E0E0"/>
<path d="M33.8841 91.448L39.0841 87.644C39.8983 87.0467 40.4428 86.1514 40.5988 85.1537C40.7547 84.156 40.5092 83.1372 39.9161 82.32C39.3188 81.5058 38.4234 80.9612 37.4258 80.8053C36.4281 80.6494 35.4093 80.8949 34.5921 81.488L29.3921 85.292C28.5779 85.8893 28.0333 86.7846 27.8774 87.7823C27.7215 88.78 27.9669 89.7988 28.5601 90.616C29.1573 91.4302 30.0527 91.9748 31.0504 92.1307C32.048 92.2866 33.0669 92.0412 33.8841 91.448Z" fill="#F5F5F5"/>
<path d="M50.056 85.324L40.212 89.76C39.44 90.324 32.16 80.344 32.932 79.78L40.164 71.78L50.056 85.324Z" fill="#EBEBEB"/>
<path d="M44.4001 79.06C47.1321 82.808 49.6641 85.612 50.0561 85.324C50.4481 85.036 48.5561 81.772 45.8201 78.024C43.0841 74.276 40.5561 71.476 40.1641 71.76C39.7721 72.044 41.6681 75.316 44.4001 79.06Z" fill="#E0E0E0"/>
<path d="M46.7721 77.768C46.1041 76.852 44.7401 76.568 44.3041 76.876C43.8681 77.184 44.0561 78.196 44.7041 79.112C45.3521 80.028 46.2641 80.512 46.7041 80.192C47.1441 79.872 47.4401 78.684 46.7721 77.768Z" fill="#F0F0F0"/>
<path d="M50.3561 74.124L51.3561 64.208L54.7641 64.94L50.3561 74.124Z" fill="#EBEBEB"/>
<path d="M51.556 77.492L61.52 77.572L61.164 74.104L51.556 77.492Z" fill="#EBEBEB"/>
<path d="M52.6801 74.436L60.0721 65.408L63.1641 68.64L52.6801 74.436Z" fill="#EBEBEB"/>
<path d="M47.764 58.352C47.4224 58.352 47.0948 58.2163 46.8533 57.9748C46.6117 57.7332 46.476 57.4056 46.476 57.064V53.892H45.852C45.4135 53.892 44.9929 53.7181 44.6825 53.4084C44.372 53.0987 44.1971 52.6785 44.196 52.24V37.224C44.1982 36.788 44.3726 36.3704 44.6813 36.0625C44.99 35.7545 45.408 35.5811 45.844 35.58H69.288C69.7241 35.58 70.1422 35.7532 70.4505 36.0615C70.7588 36.3698 70.932 36.788 70.932 37.224V52.24C70.932 52.6782 70.758 53.0984 70.4482 53.4082C70.1384 53.718 69.7182 53.892 69.28 53.892H53.964L48.536 58.092C48.3135 58.2597 48.0427 58.3509 47.764 58.352Z" fill="#E6E6E6"/>
<path d="M49.528 56.764C49.1865 56.764 48.8588 56.6283 48.6173 56.3868C48.3757 56.1452 48.24 55.8176 48.24 55.476V52.304H47.6201C47.4028 52.3045 47.1875 52.2622 46.9866 52.1794C46.7857 52.0966 46.6031 51.975 46.4493 51.8216C46.2955 51.6681 46.1735 51.4858 46.0902 51.2851C46.0069 51.0844 45.964 50.8693 45.9641 50.652V35.636C45.9682 35.2034 46.1419 34.7897 46.4478 34.4838C46.7537 34.1779 47.1674 34.0042 47.6 34H71.0401C71.4764 34 71.895 34.1731 72.2039 34.4813C72.5129 34.7895 72.687 35.2076 72.688 35.644V50.66C72.687 51.0985 72.5121 51.5187 72.2016 51.8284C71.8912 52.1381 71.4706 52.312 71.032 52.312H55.732L50.3 56.512C50.0768 56.6773 49.8059 56.7657 49.528 56.764Z" fill="#F5F5F5"/>
<path d="M65.4201 40.988H52.5441C52.3629 40.9745 52.1935 40.893 52.0699 40.7598C51.9464 40.6266 51.8777 40.4517 51.8777 40.27C51.8777 40.0883 51.9464 39.9134 52.0699 39.7802C52.1935 39.6471 52.3629 39.5655 52.5441 39.552H65.4201C65.5189 39.5446 65.6181 39.5577 65.7116 39.5904C65.8051 39.6232 65.8909 39.6749 65.9635 39.7423C66.0361 39.8097 66.094 39.8913 66.1336 39.9821C66.1732 40.0729 66.1937 40.1709 66.1937 40.27C66.1937 40.3691 66.1732 40.4671 66.1336 40.5579C66.094 40.6487 66.0361 40.7303 65.9635 40.7977C65.8909 40.8651 65.8051 40.9168 65.7116 40.9496C65.6181 40.9823 65.5189 40.9954 65.4201 40.988Z" fill="#E0E0E0"/>
<path d="M65.4201 43.828H52.5441C52.3629 43.8145 52.1935 43.733 52.0699 43.5998C51.9464 43.4666 51.8777 43.2917 51.8777 43.11C51.8777 42.9283 51.9464 42.7534 52.0699 42.6202C52.1935 42.487 52.3629 42.4055 52.5441 42.392H65.4201C65.5189 42.3846 65.6181 42.3977 65.7116 42.4305C65.8051 42.4632 65.8909 42.5149 65.9635 42.5823C66.0361 42.6497 66.094 42.7313 66.1336 42.8221C66.1732 42.9129 66.1937 43.0109 66.1937 43.11C66.1937 43.2091 66.1732 43.3071 66.1336 43.3979C66.094 43.4887 66.0361 43.5703 65.9635 43.6377C65.8909 43.7051 65.8051 43.7568 65.7116 43.7896C65.6181 43.8223 65.5189 43.8354 65.4201 43.828Z" fill="#E0E0E0"/>
<path d="M65.4201 46.668H52.5441C52.3629 46.6545 52.1935 46.573 52.0699 46.4398C51.9464 46.3066 51.8777 46.1317 51.8777 45.95C51.8777 45.7683 51.9464 45.5934 52.0699 45.4602C52.1935 45.3271 52.3629 45.2455 52.5441 45.232H65.4201C65.5189 45.2246 65.6181 45.2377 65.7116 45.2705C65.8051 45.3032 65.8909 45.3549 65.9635 45.4223C66.0361 45.4897 66.094 45.5713 66.1336 45.6621C66.1732 45.7529 66.1937 45.8509 66.1937 45.95C66.1937 46.0491 66.1732 46.1471 66.1336 46.2379C66.094 46.3287 66.0361 46.4104 65.9635 46.4777C65.8909 46.5451 65.8051 46.5968 65.7116 46.6296C65.6181 46.6623 65.5189 46.6754 65.4201 46.668Z" fill="#E0E0E0"/>
<path d="M159.844 82.56C159.845 81.8471 159.74 81.1379 159.532 80.456L161.376 78.832L160.216 76.832L157.888 77.632C156.909 76.585 155.64 75.8527 154.244 75.528L153.76 73.128H151.44L150.956 75.528C149.56 75.8527 148.291 76.585 147.312 77.632L144.984 76.832L143.824 78.832L145.668 80.456C145.252 81.8279 145.252 83.2922 145.668 84.664L143.824 86.264L144.984 88.264L147.312 87.464C148.292 88.511 149.56 89.2444 150.956 89.572L151.44 91.972H153.76L154.244 89.572C155.64 89.2444 156.908 88.511 157.888 87.464L160.216 88.264L161.376 86.264L159.532 84.664C159.74 83.982 159.845 83.2729 159.844 82.56ZM152.6 86.468C151.856 86.468 151.128 86.2473 150.509 85.8337C149.89 85.4201 149.408 84.8322 149.123 84.1444C148.838 83.4567 148.763 82.6998 148.908 81.9697C149.054 81.2396 149.412 80.5689 149.939 80.0425C150.465 79.5161 151.136 79.1576 151.866 79.0123C152.596 78.8671 153.353 78.9416 154.041 79.2265C154.728 79.5114 155.316 79.9939 155.73 80.6128C156.143 81.2318 156.364 81.9596 156.364 82.704C156.364 83.1983 156.267 83.6878 156.078 84.1444C155.888 84.6011 155.611 85.0161 155.262 85.3656C154.912 85.7151 154.497 85.9923 154.041 86.1815C153.584 86.3707 153.094 86.468 152.6 86.468Z" fill="#EBEBEB"/>
<path d="M170.112 89.056C169.92 88.5731 169.657 88.1214 169.332 87.716L170.132 86.116L168.8 85.064L167.436 86.232C166.487 85.7874 165.427 85.6356 164.392 85.796L163.408 84.292L161.832 84.924L162.16 86.688C161.306 87.2839 160.646 88.1188 160.264 89.088L158.468 89.188L158.228 90.868L159.92 91.468C160.014 92.5109 160.413 93.503 161.068 94.32L160.268 95.92L161.604 96.968L162.968 95.8C163.917 96.2441 164.977 96.3959 166.012 96.236L166.996 97.74L168.572 97.108L168.244 95.344C169.102 94.7427 169.761 93.9005 170.14 92.924L171.936 92.824L172.176 91.144L170.484 90.544C170.434 90.0324 170.308 89.5311 170.112 89.056ZM166.264 93.68C165.759 93.8828 165.205 93.9313 164.672 93.8194C164.14 93.7074 163.652 93.4401 163.272 93.0511C162.891 92.6621 162.634 92.169 162.534 91.6341C162.433 91.0991 162.494 90.5465 162.707 90.0459C162.921 89.5453 163.278 89.1193 163.734 88.8218C164.19 88.5243 164.724 88.3686 165.268 88.3744C165.812 88.3801 166.342 88.5472 166.792 88.8543C167.241 89.1615 167.589 89.595 167.792 90.1C167.927 90.4354 167.994 90.794 167.99 91.1555C167.987 91.5169 167.912 91.8741 167.77 92.2065C167.628 92.539 167.422 92.8402 167.163 93.093C166.905 93.3458 166.599 93.5453 166.264 93.68Z" fill="#EBEBEB"/>
<path d="M147.296 56.772H134.4C133.917 56.7812 133.437 56.6873 132.994 56.4964C132.55 56.3055 132.152 56.022 131.826 55.665C131.5 55.308 131.255 54.8855 131.105 54.426C130.956 53.9664 130.907 53.4802 130.96 53L132.088 40.112C132.193 39.0913 132.667 38.1442 133.423 37.4499C134.178 36.7556 135.162 36.3621 136.188 36.344H149.076C149.559 36.3355 150.038 36.4298 150.481 36.6207C150.924 36.8116 151.322 37.0946 151.647 37.4511C151.973 37.8075 152.218 38.2292 152.368 38.688C152.518 39.1468 152.568 39.6322 152.516 40.112L151.388 53C151.284 54.0198 150.81 54.9662 150.057 55.661C149.303 56.3558 148.321 56.751 147.296 56.772Z" fill="#E0E0E0"/>
<path d="M146.124 55.6H133.236C132.753 55.6092 132.274 55.5153 131.831 55.3246C131.387 55.134 130.989 54.8509 130.664 54.4943C130.338 54.1377 130.092 53.7158 129.943 53.2567C129.793 52.7976 129.743 52.3119 129.796 51.832L130.92 38.944C131.024 37.9229 131.499 36.9753 132.255 36.2804C133.01 35.5854 133.994 35.1911 135.02 35.172H147.908C148.391 35.1628 148.871 35.2567 149.315 35.4476C149.759 35.6385 150.157 35.922 150.482 36.279C150.808 36.6361 151.053 37.0585 151.203 37.5181C151.352 37.9776 151.402 38.4638 151.348 38.944L150.22 51.832C150.116 52.8524 149.642 53.7994 148.888 54.4938C148.133 55.1882 147.149 55.5818 146.124 55.6Z" fill="#F5F5F5"/>
<path d="M137.92 51.416C137.987 50.8019 138.285 50.2363 138.754 49.8343C139.222 49.4322 139.827 49.224 140.444 49.252C141.804 49.252 142.692 50.176 142.584 51.416C142.516 52.0332 142.219 52.6025 141.752 53.0113C141.284 53.4201 140.681 53.6388 140.06 53.624C139.767 53.6462 139.473 53.6038 139.199 53.4997C138.925 53.3956 138.677 53.2324 138.472 53.0217C138.268 52.811 138.113 52.5579 138.017 52.2804C137.922 52.0029 137.889 51.7078 137.92 51.416ZM139.308 36.428H143.824L142.1 47.528H139.088L139.308 36.428Z" fill="#E0E0E0"/>
<path d="M179.96 137.396H166.712V137.496H179.96V137.396Z" fill="#EBEBEB"/>
<path d="M132.488 138.484H129.012V138.584H132.488V138.484Z" fill="#EBEBEB"/>
<path d="M166.312 133.684H158.636V133.784H166.312V133.684Z" fill="#EBEBEB"/>
<path d="M38.2601 134.356H20.9841V134.456H38.2601V134.356Z" fill="#EBEBEB"/>
<path d="M44.3561 134.356H41.8241V134.456H44.3561V134.356Z" fill="#EBEBEB"/>
<path d="M90.0601 136.044H52.5881V136.144H90.0601V136.044Z" fill="#EBEBEB"/>
<path d="M95.3601 113.12H18.1201C17.5143 113.12 16.9334 112.879 16.505 112.451C16.0767 112.023 15.8361 111.442 15.8361 110.836V2.26402C15.8413 1.66173 16.0843 1.08591 16.5121 0.661897C16.9398 0.23788 17.5178 -7.83159e-06 18.1201 1.52605e-05H95.3601C95.66 1.52605e-05 95.957 0.0590922 96.2341 0.173874C96.5112 0.288656 96.763 0.456894 96.9751 0.668983C97.1872 0.881072 97.3554 1.13286 97.4702 1.40997C97.585 1.68707 97.6441 1.98408 97.6441 2.28401V110.836C97.6441 111.136 97.585 111.433 97.4702 111.71C97.3554 111.987 97.1872 112.239 96.9751 112.451C96.763 112.663 96.5112 112.831 96.2341 112.946C95.957 113.061 95.66 113.12 95.3601 113.12ZM18.1201 0.0800156C17.5412 0.0810729 16.9863 0.311511 16.5769 0.720862C16.1676 1.13021 15.9371 1.68511 15.9361 2.26402V110.836C15.9371 111.415 16.1676 111.97 16.5769 112.379C16.9863 112.789 17.5412 113.019 18.1201 113.02H95.3601C95.939 113.019 96.4939 112.789 96.9032 112.379C97.3126 111.97 97.543 111.415 97.5441 110.836V2.26402C97.543 1.68511 97.3126 1.13021 96.9032 0.720862C96.4939 0.311511 95.939 0.0810729 95.3601 0.0800156H18.1201Z" fill="#EBEBEB"/>
<path d="M181.88 113.12H104.64C104.034 113.12 103.453 112.879 103.025 112.451C102.597 112.023 102.356 111.442 102.356 110.836V2.26402C102.361 1.66173 102.604 1.08591 103.032 0.661897C103.46 0.23788 104.038 -7.83159e-06 104.64 1.52605e-05H181.88C182.486 1.52605e-05 183.067 0.24065 183.495 0.668983C183.923 1.09732 184.164 1.67826 184.164 2.28401V110.836C184.164 111.442 183.923 112.023 183.495 112.451C183.067 112.879 182.486 113.12 181.88 113.12ZM104.64 0.0800156C104.061 0.0810729 103.506 0.311511 103.097 0.720862C102.688 1.13021 102.457 1.68511 102.456 2.26402V110.836C102.457 111.415 102.688 111.97 103.097 112.379C103.506 112.789 104.061 113.019 104.64 113.02H181.88C182.459 113.019 183.014 112.789 183.423 112.379C183.833 111.97 184.063 111.415 184.064 110.836V2.26402C184.063 1.68511 183.833 1.13021 183.423 0.720862C183.014 0.311511 182.459 0.0810729 181.88 0.0800156H104.64Z" fill="#EBEBEB"/>
<path d="M200 130.96H6.10352e-05V131.06H200V130.96Z" fill="#EBEBEB"/>
<path d="M100 147.512C142.833 147.512 177.556 145.485 177.556 142.984C177.556 140.483 142.833 138.456 100 138.456C57.167 138.456 22.444 140.483 22.444 142.984C22.444 145.485 57.167 147.512 100 147.512Z" fill="#F5F5F5"/>
<path d="M59.404 137.34L59.096 137.008C62.72 133.664 63.972 128.036 62.216 123.008C61.416 120.756 59.956 119.108 58.396 117.364C57.084 115.896 55.724 114.38 54.836 112.484C53.864 110.416 53.636 108.396 54.124 106.64C54.468 105.44 55.28 104.432 56.192 104.06C56.5251 103.923 56.8855 103.866 57.2445 103.894C57.6034 103.921 57.9512 104.031 58.26 104.216C58.6282 104.403 58.9284 104.701 59.1185 105.068C59.3086 105.434 59.3791 105.851 59.32 106.26C59.2639 106.7 59.0786 107.114 58.7874 107.45C58.4963 107.785 58.1123 108.027 57.684 108.144C57.3842 108.18 57.0808 108.119 56.8181 107.97C56.5555 107.821 56.3473 107.592 56.224 107.316C56.1018 107.055 56.0601 106.763 56.1043 106.478C56.1485 106.193 56.2765 105.928 56.472 105.716L56.804 106.024C56.6736 106.168 56.5879 106.347 56.5573 106.538C56.5268 106.73 56.5527 106.927 56.632 107.104C56.7135 107.285 56.8474 107.437 57.0164 107.542C57.1854 107.646 57.3817 107.697 57.58 107.688C57.9182 107.59 58.2205 107.395 58.45 107.128C58.6794 106.861 58.8261 106.533 58.872 106.184C58.9216 105.863 58.8677 105.535 58.7181 105.248C58.5685 104.96 58.3309 104.727 58.04 104.584C57.7907 104.432 57.5093 104.34 57.2182 104.317C56.9271 104.293 56.6346 104.338 56.364 104.448C55.9177 104.679 55.5259 105.002 55.2148 105.397C54.9037 105.792 54.6804 106.248 54.56 106.736C53.96 108.82 54.6 110.892 55.244 112.264C56.108 114.1 57.444 115.592 58.732 117.036C60.256 118.736 61.828 120.492 62.644 122.828C64.488 128.136 63.2 133.824 59.404 137.34Z" fill="#491474"/>
<path d="M62.1041 122.724C60.9401 121.44 59.0841 120.44 57.9681 120.496L57.9441 120.044C59.2001 119.98 61.1721 121.024 62.4401 122.424L62.1041 122.724Z" fill="#491474"/>
<path d="M62.9321 123.948L62.5001 124.08C62.3483 123.575 62.3055 123.044 62.3745 122.521C62.4434 121.998 62.6226 121.496 62.9001 121.048L63.3001 121.292C63.0541 121.683 62.8942 122.123 62.8307 122.58C62.7673 123.038 62.8018 123.504 62.9321 123.948Z" fill="#491474"/>
<path d="M56.288 114.876C55.1257 113.908 53.887 113.036 52.584 112.268L52.816 111.868C54.1393 112.652 55.3992 113.539 56.584 114.52L56.288 114.876Z" fill="#491474"/>
<path d="M56.9664 113.752L56.7474 115.268L57.1947 115.333L57.4138 113.817L56.9664 113.752Z" fill="#491474"/>
<path d="M60.5041 107.576C59.8331 107.682 59.1463 107.622 58.5041 107.4L58.6561 106.972C59.2295 107.173 59.8444 107.227 60.4441 107.128L60.5041 107.576Z" fill="#491474"/>
<path d="M57.8186 102.707L57.7294 104.445L58.1808 104.468L58.27 102.731L57.8186 102.707Z" fill="#491474"/>
<path d="M58.064 109.896C58.2049 109.766 58.3831 109.684 58.5733 109.661C58.7636 109.638 58.9563 109.675 59.124 109.768C59.496 110.02 59.524 110.568 59.464 110.996C59.336 112.104 58.804 115.284 57.124 114.476C55.532 113.712 57.152 110.644 58.064 109.896Z" fill="#491474"/>
<path d="M53.6001 111.532C53.7489 111.653 53.8561 111.818 53.9063 112.003C53.9565 112.188 53.9474 112.384 53.8801 112.564C53.6841 112.964 53.1601 113.064 52.7161 113.08C51.6001 113.112 48.3761 113.048 48.9321 111.268C49.4481 109.6 52.7161 110.74 53.6001 111.532Z" fill="#491474"/>
<path d="M58.8641 118.584C57.1281 117.092 54.0881 116.728 51.7281 117.728C50.6241 118.196 50.9281 119.972 51.5361 120.808C52.1441 121.644 53.2721 122.144 54.4601 122.316C55.7038 122.528 56.9823 122.284 58.0601 121.628C59.0641 120.944 59.7081 119.308 58.8641 118.584Z" fill="#491474"/>
<path d="M66.8361 116.32C65.4801 116.5 64.0761 116.796 63.0241 117.668C61.9721 118.54 61.4241 120.152 62.1361 121.316C62.3957 121.732 62.7934 122.042 63.2594 122.194C63.7254 122.345 64.2298 122.328 64.6841 122.144C65.6321 121.776 66.2841 120.92 66.8161 120.052C67.2019 119.499 67.4313 118.852 67.4801 118.18C67.4881 117.512 67.5001 116.232 66.8361 116.32Z" fill="#491474"/>
<path d="M58.044 103.732C57.6744 103.323 57.4264 102.819 57.328 102.276C57.2838 102.004 57.3135 101.726 57.4142 101.469C57.5148 101.213 57.6827 100.989 57.9 100.82C58.126 100.664 58.404 100.603 58.6745 100.649C58.945 100.696 59.1867 100.846 59.348 101.068C59.4985 101.345 59.5803 101.654 59.5865 101.97C59.5928 102.285 59.5234 102.597 59.384 102.88C59.2655 103.135 59.0763 103.351 58.8388 103.502C58.6013 103.653 58.3255 103.733 58.044 103.732Z" fill="#491474"/>
<path d="M64.5561 107.732C64.2722 108.169 63.8739 108.519 63.4046 108.745C62.9352 108.97 62.413 109.063 61.8947 109.012C61.3764 108.961 60.8819 108.769 60.4653 108.457C60.0487 108.144 59.7259 107.723 59.5321 107.24C59.8272 106.836 60.2204 106.514 60.6746 106.304C61.1288 106.094 61.6291 106.003 62.1281 106.04C62.6406 106.101 63.1302 106.287 63.5536 106.582C63.9771 106.878 64.3214 107.272 64.5561 107.732Z" fill="#491474"/>
<g opacity="0.3">
<path d="M59.404 137.34L59.096 137.008C62.72 133.664 63.972 128.036 62.216 123.008C61.416 120.756 59.956 119.108 58.396 117.364C57.084 115.896 55.724 114.38 54.836 112.484C53.864 110.416 53.636 108.396 54.124 106.64C54.468 105.44 55.28 104.432 56.192 104.06C56.5251 103.923 56.8854 103.866 57.2444 103.894C57.6034 103.921 57.9511 104.031 58.26 104.216C58.6281 104.403 58.9283 104.701 59.1184 105.068C59.3086 105.434 59.379 105.851 59.32 106.26C59.2638 106.7 59.0785 107.114 58.7874 107.45C58.4962 107.785 58.1123 108.027 57.684 108.144C57.3841 108.18 57.0807 108.119 56.8181 107.97C56.5554 107.821 56.3472 107.592 56.224 107.316C56.1018 107.055 56.0601 106.763 56.1043 106.478C56.1484 106.193 56.2764 105.928 56.472 105.716L56.804 106.024C56.6735 106.168 56.5878 106.347 56.5573 106.538C56.5267 106.73 56.5527 106.927 56.632 107.104C56.7134 107.285 56.8473 107.437 57.0163 107.542C57.1853 107.646 57.3817 107.697 57.58 107.688C57.9182 107.59 58.2205 107.395 58.4499 107.128C58.6794 106.861 58.826 106.533 58.872 106.184C58.9216 105.863 58.8677 105.535 58.718 105.248C58.5684 104.96 58.3309 104.727 58.04 104.584C57.7907 104.432 57.5092 104.34 57.2181 104.317C56.9271 104.293 56.6345 104.338 56.364 104.448C55.9177 104.679 55.5259 105.002 55.2147 105.397C54.9036 105.792 54.6804 106.248 54.56 106.736C53.96 108.82 54.6 110.892 55.244 112.264C56.108 114.1 57.444 115.592 58.732 117.036C60.256 118.736 61.828 120.492 62.644 122.828C64.488 128.136 63.2 133.824 59.404 137.34Z" fill="white"/>
<path d="M62.104 122.724C60.94 121.44 59.084 120.44 57.968 120.496L57.944 120.044C59.2 119.98 61.172 121.024 62.44 122.424L62.104 122.724Z" fill="white"/>
<path d="M62.932 123.948L62.5 124.08C62.3483 123.575 62.3054 123.044 62.3744 122.521C62.4434 121.998 62.6225 121.496 62.9 121.048L63.3 121.292C63.0541 121.683 62.8941 122.123 62.8307 122.58C62.7672 123.038 62.8018 123.504 62.932 123.948Z" fill="white"/>
<path d="M56.288 114.876C55.1257 113.908 53.8869 113.036 52.584 112.268L52.816 111.868C54.1393 112.652 55.3991 113.539 56.584 114.52L56.288 114.876Z" fill="white"/>
<path d="M56.9664 113.752L56.7473 115.268L57.1947 115.333L57.4137 113.817L56.9664 113.752Z" fill="white"/>
<path d="M60.504 107.576C59.833 107.682 59.1462 107.622 58.504 107.4L58.656 106.972C59.2295 107.173 59.8444 107.227 60.444 107.128L60.504 107.576Z" fill="white"/>
<path d="M57.8186 102.707L57.7294 104.445L58.1808 104.468L58.27 102.731L57.8186 102.707Z" fill="white"/>
</g>
<path d="M69.5441 137.156C69.5441 141.608 64.3441 142.656 61.4841 142.656C58.6241 142.656 53.4241 141.608 53.4241 137.156C53.4241 131.792 57.0241 131.872 61.4841 131.872C65.9441 131.872 69.5441 131.408 69.5441 137.156Z" fill="#263238"/>
<path d="M143.956 142.656C144.068 139.52 144.048 136.42 143.896 133.456C143.868 132.928 143.84 132.404 143.8 131.88C143.652 129.636 143.424 127.448 143.12 125.36C142.796 123.142 142.358 120.941 141.808 118.768C141.728 118.452 141.644 118.14 141.556 117.824C141.468 117.508 141.408 117.3 141.328 117.024C141.136 116.372 140.96 115.752 140.812 115.172V115.124C140.748 114.884 140.688 114.64 140.628 114.4C140.368 113.356 140.14 112.316 139.948 111.308C139.948 111.308 139.948 111.28 139.948 111.268C139.828 110.644 139.72 110.028 139.632 109.436C139.612 109.312 139.592 109.188 139.576 109.068C139.56 108.948 139.556 108.944 139.552 108.88C139.171 106.29 139.004 103.673 139.052 101.056V100.944C139.08 99.876 139.144 98.812 139.252 97.784C139.254 97.7747 139.254 97.7652 139.252 97.756C139.362 96.6907 139.527 95.6318 139.748 94.584C139.767 94.5093 139.783 94.4373 139.796 94.368L139.82 94.264C139.83 94.23 139.83 94.1939 139.82 94.16C139.826 94.1431 139.826 94.1248 139.82 94.108C139.813 94.0919 139.804 94.077 139.792 94.064C139.769 94.0431 139.744 94.0255 139.716 94.012C139.69 94.0078 139.663 94.0078 139.636 94.012C139.588 94.015 139.543 94.0348 139.508 94.068C139.475 94.1013 139.455 94.1453 139.452 94.192V94.248V94.272C139.452 94.34 139.424 94.412 139.408 94.488C139.376 94.628 139.348 94.768 139.324 94.912C139.164 95.688 139.04 96.512 138.944 97.344C138.944 97.472 138.912 97.604 138.9 97.744C138.898 97.7773 138.898 97.8107 138.9 97.844C138.8 98.82 138.736 99.82 138.708 100.832C138.706 100.867 138.706 100.901 138.708 100.936C138.653 103.675 138.83 106.414 139.236 109.124C139.236 109.168 139.236 109.212 139.256 109.26C139.356 109.928 139.472 110.628 139.612 111.336C139.852 112.6 140.148 113.912 140.488 115.22C140.644 115.816 140.824 116.46 141.024 117.132L141.156 117.592L141.248 117.912L141.504 118.864C142.052 121.021 142.487 123.206 142.808 125.408C143.112 127.476 143.34 129.644 143.488 131.868C143.525 132.401 143.557 132.935 143.584 133.468C143.624 134.3 143.656 135.143 143.68 135.996C143.68 136.052 143.68 136.104 143.68 136.16C143.68 136.316 143.68 136.472 143.68 136.628C143.68 136.784 143.68 136.904 143.68 137.028C143.708 138.868 143.68 140.744 143.62 142.628L143.956 142.656Z" fill="#491474"/>
<path d="M139.6 94.22C139.949 93.9103 140.333 93.6418 140.744 93.42C141.193 93.1835 141.67 93.006 142.164 92.892L139.6 94.22Z" fill="#491474"/>
<path d="M139.576 94.42C139.548 94.4176 139.521 94.4108 139.496 94.4C139.472 94.3884 139.451 94.3724 139.434 94.3527C139.416 94.3329 139.403 94.31 139.394 94.2851C139.386 94.2602 139.382 94.2338 139.384 94.2076C139.386 94.1813 139.392 94.1556 139.404 94.132C139.415 94.1087 139.432 94.0882 139.452 94.072L139.472 94.052C139.834 93.742 140.23 93.4737 140.652 93.252C141.117 93.0066 141.612 92.8224 142.124 92.704C142.177 92.6923 142.233 92.7022 142.278 92.7314C142.324 92.7607 142.356 92.8069 142.368 92.86C142.38 92.913 142.37 92.9685 142.341 93.0143C142.311 93.06 142.265 93.0923 142.212 93.104C141.736 93.2106 141.275 93.3772 140.84 93.6C140.444 93.8117 140.074 94.068 139.736 94.364C139.715 94.3842 139.69 94.3997 139.662 94.4094C139.635 94.419 139.605 94.4226 139.576 94.42Z" fill="#491474"/>
<path d="M139.012 97.924C138.989 97.9241 138.966 97.9195 138.945 97.9106C138.923 97.9017 138.904 97.8885 138.888 97.872L137.6 96.692C137.581 96.6737 137.567 96.6519 137.557 96.6279C137.546 96.6039 137.541 96.578 137.541 96.552C137.541 96.5259 137.546 96.5001 137.557 96.476C137.567 96.452 137.581 96.4302 137.6 96.412C137.619 96.3932 137.641 96.3783 137.665 96.3682C137.69 96.358 137.716 96.3528 137.742 96.3528C137.768 96.3528 137.795 96.358 137.819 96.3682C137.843 96.3783 137.865 96.3932 137.884 96.412L139.172 97.612C139.191 97.6299 139.206 97.6516 139.217 97.6757C139.227 97.6998 139.233 97.7257 139.233 97.752C139.233 97.7782 139.227 97.8042 139.217 97.8283C139.206 97.8523 139.191 97.874 139.172 97.892C139.15 97.9095 139.124 97.9216 139.096 97.9271C139.068 97.9327 139.039 97.9316 139.012 97.924Z" fill="#491474"/>
<path d="M140.584 115.372C140.531 115.366 140.483 115.34 140.448 115.301C140.413 115.261 140.395 115.209 140.396 115.156C140.466 114.788 140.574 114.429 140.72 114.084C141.074 113.224 141.644 112.47 142.376 111.896C142.397 111.88 142.421 111.868 142.446 111.861C142.471 111.853 142.498 111.851 142.524 111.855C142.55 111.858 142.576 111.866 142.599 111.879C142.622 111.892 142.642 111.909 142.658 111.93C142.674 111.951 142.686 111.974 142.693 112C142.701 112.025 142.703 112.052 142.699 112.078C142.696 112.104 142.688 112.13 142.675 112.152C142.662 112.175 142.645 112.196 142.624 112.212C141.947 112.744 141.418 113.441 141.088 114.236C140.958 114.546 140.861 114.869 140.8 115.2C140.8 115.225 140.794 115.25 140.784 115.273C140.773 115.296 140.758 115.317 140.739 115.333C140.72 115.35 140.698 115.363 140.674 115.371C140.651 115.379 140.625 115.382 140.6 115.38L140.584 115.372Z" fill="#491474"/>
<path d="M141.6 119.012C141.561 119.01 141.524 118.997 141.493 118.974C141.462 118.951 141.438 118.92 141.424 118.884C141.255 118.454 140.998 118.063 140.67 117.737C140.343 117.411 139.951 117.156 139.52 116.988C139.47 116.969 139.43 116.931 139.408 116.882C139.386 116.833 139.385 116.778 139.404 116.728C139.423 116.678 139.461 116.638 139.51 116.616C139.559 116.594 139.614 116.593 139.664 116.612C140.146 116.802 140.583 117.088 140.95 117.453C141.317 117.818 141.605 118.255 141.796 118.736C141.815 118.785 141.813 118.84 141.793 118.889C141.772 118.937 141.733 118.976 141.684 118.996C141.657 119.007 141.629 119.013 141.6 119.012Z" fill="#491474"/>
<path d="M143.788 136.94C143.356 136.412 143.036 134.42 142.864 133.34C142.824 133.084 142.788 132.864 142.76 132.708L143.788 136.94Z" fill="#491474"/>
<path d="M143.776 137.136C143.748 137.136 143.721 137.129 143.696 137.117C143.671 137.104 143.649 137.086 143.632 137.064C143.204 136.544 142.908 134.888 142.668 133.38C142.628 133.124 142.592 132.908 142.564 132.752C142.559 132.726 142.56 132.699 142.566 132.673C142.571 132.647 142.582 132.622 142.597 132.6C142.612 132.578 142.632 132.559 142.654 132.545C142.677 132.531 142.702 132.521 142.728 132.516C142.754 132.511 142.781 132.512 142.807 132.517C142.833 132.523 142.858 132.534 142.88 132.549C142.902 132.564 142.921 132.584 142.935 132.606C142.949 132.629 142.959 132.654 142.964 132.68C142.992 132.84 143.028 133.06 143.068 133.316C143.228 134.296 143.552 136.328 143.948 136.812C143.965 136.832 143.978 136.855 143.985 136.88C143.993 136.905 143.996 136.932 143.993 136.958C143.991 136.984 143.983 137.009 143.97 137.032C143.958 137.055 143.941 137.076 143.92 137.092C143.9 137.109 143.877 137.121 143.853 137.129C143.828 137.136 143.802 137.139 143.776 137.136Z" fill="#491474"/>
<path d="M139.712 111.492C139.662 111.489 139.615 111.467 139.58 111.431C139.545 111.394 139.525 111.346 139.524 111.296C139.524 110.968 139.376 103.244 143.772 100.372C143.816 100.348 143.867 100.342 143.915 100.354C143.964 100.366 144.006 100.396 144.033 100.438C144.061 100.479 144.072 100.53 144.064 100.579C144.057 100.628 144.031 100.673 143.992 100.704C139.78 103.456 139.92 111.208 139.924 111.288C139.923 111.34 139.902 111.391 139.866 111.428C139.83 111.466 139.78 111.489 139.728 111.492H139.712Z" fill="#491474"/>
<path d="M134.948 105.864C135.444 107.824 139.2 109.232 139.2 109.232C139.2 109.232 141.836 106.208 141.34 104.248C140.844 102.288 138.776 100.124 137.008 100.568C135.24 101.012 134.452 103.904 134.948 105.864Z" fill="#491474"/>
<path d="M144.836 112.18C144.363 112.578 143.821 112.884 143.236 113.084C142.94 113.18 142.624 113.193 142.321 113.123C142.017 113.052 141.739 112.901 141.516 112.684C141.016 112.096 141.156 111.196 141.476 110.496C142.112 109.108 144.452 106.76 146.236 107.444C148.8 108.42 146 111.332 144.836 112.18Z" fill="#491474"/>
<path d="M139.536 115.7C139.876 116.12 140.232 116.652 140.044 117.156C139.937 117.372 139.761 117.546 139.543 117.651C139.326 117.756 139.08 117.786 138.844 117.736C138.377 117.624 137.941 117.408 137.568 117.104C136.66 116.468 134.8 115.132 135.996 113.904C137.192 112.676 138.828 114.8 139.536 115.7Z" fill="#491474"/>
<path d="M147.24 98.064C147.437 98.0766 147.624 98.1506 147.776 98.2754C147.928 98.4003 148.037 98.5698 148.088 98.76C148.164 99.212 147.788 99.604 147.424 99.884C146.516 100.576 143.788 102.444 143.188 100.628C142.624 98.908 146.04 97.928 147.24 98.064Z" fill="#491474"/>
<path d="M142.252 92.068C142.816 92.124 143.376 91.924 143.936 91.964C144.496 92.004 145.136 92.456 144.996 93.004C144.856 93.552 144.244 93.68 143.724 93.712C142.835 93.7629 141.944 93.697 141.072 93.516C140.865 93.495 140.673 93.3964 140.536 93.24C140.312 92.904 140.676 92.44 141.06 92.34C141.444 92.24 141.888 92.264 142.26 92.068H142.252Z" fill="#491474"/>
<path d="M136.752 95.904C136.192 95.904 135.648 95.676 135.084 95.672C134.52 95.668 133.884 96.072 133.952 96.632C134.02 97.192 134.648 97.364 135.152 97.432C136.035 97.548 136.929 97.548 137.812 97.432C138.031 97.4354 138.242 97.352 138.4 97.2C138.648 96.88 138.32 96.4 137.944 96.26C137.568 96.12 137.124 96.124 136.788 95.9L136.752 95.904Z" fill="#491474"/>
<path d="M139.392 94.96C139.34 94.9539 139.292 94.9274 139.259 94.8862C139.226 94.845 139.21 94.7925 139.216 94.74C139.348 93.648 139.28 92.592 139.076 92.524C139.026 92.5065 138.984 92.4697 138.961 92.4217C138.938 92.3737 138.935 92.3184 138.952 92.268C138.97 92.2176 139.006 92.1762 139.054 92.153C139.102 92.1297 139.158 92.1265 139.208 92.144C139.832 92.36 139.7 94.064 139.608 94.788C139.601 94.8389 139.575 94.8852 139.534 94.9172C139.494 94.9493 139.443 94.9646 139.392 94.96Z" fill="#491474"/>
<path d="M139.888 92.4C139.552 91.632 139.188 90.832 138.512 90.34C137.836 89.848 136.756 89.8 136.26 90.476C135.708 91.228 136.26 92.38 137.092 92.784C137.924 93.188 138.924 93.076 139.852 92.948L139.876 92.548L139.888 92.4Z" fill="#491474"/>
<path d="M151.964 137.156C151.964 141.608 146.764 142.656 143.904 142.656C141.044 142.656 135.844 141.608 135.844 137.156C135.844 131.792 139.444 131.872 143.904 131.872C148.364 131.872 151.964 131.408 151.964 137.156Z" fill="#263238"/>
<path d="M91.5281 58.468C88.3761 56.588 86.2201 56.036 85.3041 55.268C84.3081 54.444 83.1241 43.624 83.4881 42.44C83.7641 41.536 84.9481 42.66 84.9361 43.076C84.8761 44.644 86.8961 51.344 87.8241 52.992C87.9841 53.28 91.3481 54.516 91.3481 54.516L91.5281 58.468Z" fill="#FFB573"/>
<path d="M90.6841 54.124C94.3441 56.028 97.4241 56.124 97.8481 57.148C98.4561 58.624 98.6481 61.004 97.3001 60.888C95.0041 60.688 94.4201 60.632 91.2241 59.372L90.6841 54.124Z" fill="#491474"/>
<g opacity="0.7">
<path d="M90.6801 54.06C94.3401 55.964 97.4241 56.06 97.8441 57.08C98.4561 58.56 98.6441 60.94 97.2961 60.82C95.0001 60.62 94.4201 60.564 91.2241 59.304L90.6801 54.06Z" fill="black"/>
</g>
<path d="M99.4881 42.744C98.9897 42.5611 98.4556 42.4966 97.928 42.5557C97.4004 42.6147 96.8937 42.7955 96.4481 43.084C95.5595 43.6709 94.8452 44.4861 94.3801 45.444C94.1041 45.964 93.8841 46.624 94.2121 47.112C94.5401 47.6 95.2801 47.652 95.8921 47.624C97.0001 45.92 98.2681 44.372 99.4881 42.744Z" fill="#263238"/>
<path d="M95.3441 56.368C96.2784 56.0362 97.2305 55.7571 98.1961 55.532C99.9598 55.1118 101.751 54.8164 103.556 54.648C104.7 54.516 105.828 54.472 106.724 54.46C106.832 54.4586 106.939 54.4693 107.044 54.492C107.435 54.573 107.778 54.805 107.999 55.1375C108.22 55.47 108.301 55.8763 108.224 56.268C106.488 65.248 106.42 69.228 106.7 73.868L95.5361 74.32L94.5641 67.044C94.1641 64.644 92.6401 61.7 93.8561 59.128C93.8561 59.108 94.8001 56.568 95.3441 56.368Z" fill="#491474"/>
<path opacity="0.6" d="M95.3441 56.368C96.2784 56.0362 97.2305 55.7571 98.1961 55.532C99.9598 55.1118 101.751 54.8164 103.556 54.648C104.7 54.516 105.828 54.472 106.724 54.46C106.832 54.4586 106.939 54.4693 107.044 54.492C107.435 54.573 107.778 54.805 107.999 55.1375C108.22 55.47 108.301 55.8763 108.224 56.268C106.488 65.248 106.42 69.228 106.7 73.868L95.5361 74.32L94.5641 67.044C94.1641 64.644 92.6401 61.7 93.8561 59.128C93.8561 59.108 94.8001 56.568 95.3441 56.368Z" fill="black"/>
<path d="M102.516 108.568C102.472 108.348 102.432 108.116 102.392 107.884C100.672 97.504 101.86 82.064 101.86 82.064L109.76 80.136C109.76 80.136 109.76 91.472 108.268 104.596C108.068 106.348 108.368 107.98 108.508 109.396L103.176 110.468L102.516 108.568Z" fill="#FFB573"/>
<path d="M105.552 106.592C103.512 107.164 102.484 109.448 103.612 111.164C103.657 111.235 103.706 111.303 103.76 111.368C109.868 118.904 120.368 131.368 120.368 131.368L122.4 130C122.4 130 119.64 126.552 114.184 115.284C111.512 109.776 108.528 107.948 107.012 106.2L105.552 106.592Z" fill="#FFB573"/>
<path d="M122.224 129.052C122.543 129.174 122.827 129.372 123.052 129.628C123.884 130.54 126.02 132.996 126.02 132.996L125.8 133.188C125.8 133.188 124.652 132.068 123.984 131.588C123.316 131.108 123.648 131.708 123.852 132.66C124.056 133.612 123.636 135.06 122.252 136.372C120.608 137.904 119.852 138.44 119.98 137.62C120.108 136.8 120.98 135.56 120.98 135.56C120.98 135.56 120.58 131.996 119.152 130.464C117.636 128.828 121.152 128.724 121.4 128.152C121.548 128.044 122.024 128.98 122.224 129.052Z" fill="#263238"/>
<path d="M96.1761 76C96.1761 76 92.8121 99.2 93.6761 108.696C94.5881 118.696 97.7561 135.784 97.7561 135.784L100.312 135.6C100.312 135.6 101.576 115.896 99.5601 108.8L106.552 76.284L96.1761 76Z" fill="#FFB573"/>
<path d="M100.348 136.352C100.52 136.675 100.616 137.034 100.628 137.4C100.7 138.74 100.816 142.308 100.816 142.308L100.52 142.328C100.52 142.328 100.328 140.58 100.12 139.708C99.9121 138.836 99.7801 139.588 99.3401 140.544C98.9001 141.5 97.6441 142.492 95.7401 142.68C93.5001 142.904 92.5841 142.864 93.2001 142.236C93.8161 141.608 95.2761 141.12 95.2761 141.12C95.2761 141.12 97.2081 137.764 97.0801 135.52C96.9441 133.12 99.7361 135.356 100.28 135.016C100.456 135.04 100.236 136.16 100.348 136.352Z" fill="#263238"/>
<path d="M109.348 104.4C107.86 104.72 105.8 105.448 101.896 105.848L101.66 105.868C101.496 105.888 101.328 105.9 101.148 105.908C100.1 105.972 92.9841 106.404 92.9841 105.108C93.0274 95.1032 93.9442 85.1213 95.7241 75.276L100.304 74.712L106.564 74.496C106.564 74.496 110.772 76.352 110.924 85.412C111.076 94.472 109.348 104.4 109.348 104.4Z" fill="#491474"/>
<path d="M104.176 54.556C104.176 54.556 100.864 60.4 97.4081 60C95.3081 59.768 96.0921 56.096 96.0921 56.096C96.6921 55.912 97.1841 55.696 97.7961 55.548C99.4841 55.164 102.48 54.552 104.176 54.556Z" fill="#FFB573"/>
<path d="M106.696 75.032L101.22 75.212H100.764L99.5641 75.248H99.1121L95.9121 75.348C95.8121 75.348 95.7241 75.304 95.7201 75.244L95.5881 74.26C95.5881 74.192 95.6641 74.132 95.7761 74.128L98.9521 73.984H99.3521L100.92 73.916L101.292 73.896L106.56 73.664C106.595 73.66 106.631 73.6648 106.664 73.6781C106.697 73.6914 106.726 73.7127 106.748 73.74L106.884 74.856C106.916 74.948 106.824 75.028 106.696 75.032Z" fill="#491474"/>
<path opacity="0.4" d="M106.696 75.032L101.22 75.212H100.764L99.5641 75.248H99.1121L95.9121 75.348C95.8121 75.348 95.7241 75.304 95.7201 75.244L95.5881 74.26C95.5881 74.192 95.6641 74.132 95.7761 74.128L98.9521 73.984H99.3521L100.92 73.916L101.292 73.896L106.56 73.664C106.595 73.66 106.631 73.6648 106.664 73.6781C106.697 73.6914 106.726 73.7127 106.748 73.74L106.884 74.856C106.916 74.948 106.824 75.028 106.696 75.032Z" fill="white"/>
<path d="M97.4281 75.46H97.7801C97.8521 75.46 97.9041 75.42 97.9001 75.372L97.6961 73.98C97.6961 73.94 97.6281 73.904 97.5561 73.904H97.2041C97.1321 73.904 97.0841 73.944 97.0881 73.984L97.2881 75.38C97.2993 75.4069 97.3191 75.4294 97.3444 75.4439C97.3698 75.4583 97.3992 75.464 97.4281 75.46Z" fill="#491474"/>
<path d="M103.528 75.336H103.86C103.928 75.336 103.976 75.3 103.972 75.26L103.768 73.86C103.768 73.82 103.7 73.788 103.636 73.792H103.304C103.236 73.792 103.188 73.828 103.192 73.872L103.392 75.264C103.4 75.308 103.456 75.336 103.528 75.336Z" fill="#491474"/>
<path d="M98.0561 53.488C98.4241 54.62 98.5641 55.864 97.1121 56.728C96.7998 56.9081 96.5595 57.1908 96.4321 57.528C96.2441 58.068 96.3801 58.7 98.4841 58.228C101.524 57.544 101.868 55.764 101.868 55.764C100.668 54.92 100.788 51.832 101.008 50.12L98.0561 53.488Z" fill="#FFB573"/>
<path opacity="0.2" d="M100.072 52.492C100.044 53.244 98.9601 54.092 98.2681 54.36C98.2268 54.0634 98.1571 53.7714 98.0601 53.488L99.8081 51.488C99.9647 51.8008 100.055 52.1427 100.072 52.492Z" fill="black"/>
<path d="M102.956 46.116C102.853 45.6372 102.656 45.1834 102.377 44.7807C102.098 44.3781 101.742 44.0345 101.33 43.7695C100.918 43.5046 100.458 43.3236 99.9754 43.2368C99.4933 43.1501 98.9987 43.1593 98.5202 43.264C95.6842 43.868 94.5761 47.804 94.7041 50.344C94.8361 53.176 97.9922 54.56 100.428 52.824C102.056 51.672 102.272 50.52 102.924 47.844C103.071 47.2786 103.082 46.6865 102.956 46.116Z" fill="#FFB573"/>
<path d="M96.4361 49.64C96.2887 49.65 96.1409 49.6281 96.0028 49.5756C95.8647 49.5231 95.7396 49.4414 95.6361 49.336C96.0626 48.942 96.4327 48.4911 96.7361 47.996L96.4361 49.64Z" fill="#ED893E"/>
<path d="M96.8921 43.468C97.3905 43.4663 97.8778 43.6156 98.2898 43.8962C98.7018 44.1768 99.0191 44.5756 99.2001 45.04C99.3374 45.4958 99.4245 45.9653 99.4601 46.44C99.499 46.9176 99.6678 47.3754 99.9481 47.764C100.093 47.9543 100.295 48.0934 100.524 48.161C100.754 48.2287 100.999 48.2213 101.224 48.14C101.317 48.5675 101.524 48.9622 101.821 49.283C102.119 49.6038 102.497 49.8389 102.916 49.964C102.232 50.8 101.4 51.672 100.716 52.512C100.88 53.216 100.896 53.352 101.06 54.06C102.32 53.856 103.952 52.784 104.836 51.336C105.672 49.964 105.956 48.204 104.612 48.048C105.164 47.128 104.456 45.052 103.812 44.2C103.111 43.3743 102.163 42.7952 101.108 42.548C100.415 42.3318 99.6846 42.265 98.9641 42.352C98.1619 42.4634 97.4265 42.8595 96.8921 43.468Z" fill="#263238"/>
<path d="M103.42 49.816C103.442 49.6996 103.441 49.5801 103.417 49.4642C103.392 49.3483 103.345 49.2383 103.278 49.1406C103.212 49.0428 103.126 48.9593 103.027 48.8946C102.928 48.83 102.817 48.7856 102.7 48.764C102.024 48.648 101.444 49.428 101.256 50C101.06 50.636 101.368 51.256 102.056 51.084C102.571 50.949 103.012 50.6172 103.284 50.16C103.351 50.0552 103.398 49.9384 103.42 49.816Z" fill="#FFB573"/>
<path d="M99.2961 46.848C99.3195 46.8472 99.3419 46.8387 99.3601 46.824C99.3747 46.8144 99.3872 46.8019 99.3968 46.7873C99.4065 46.7726 99.413 46.7562 99.416 46.7389C99.419 46.7217 99.4184 46.704 99.4143 46.687C99.4102 46.67 99.4026 46.654 99.3921 46.64C99.2521 46.4307 99.0639 46.2582 98.8431 46.1371C98.6224 46.0159 98.3758 45.9497 98.1241 45.944C98.0887 45.9461 98.0556 45.9619 98.0317 45.988C98.0078 46.0142 97.995 46.0486 97.9961 46.084C97.9966 46.1014 98.0005 46.1184 98.0077 46.1342C98.0148 46.1501 98.0249 46.1643 98.0376 46.1762C98.0502 46.1881 98.065 46.1974 98.0813 46.2035C98.0975 46.2097 98.1148 46.2125 98.1321 46.212C98.3402 46.2207 98.5432 46.2785 98.7247 46.3807C98.9061 46.4829 99.0608 46.6266 99.1761 46.8C99.1903 46.8176 99.2088 46.8313 99.2298 46.8397C99.2508 46.8481 99.2737 46.851 99.2961 46.848Z" fill="#263238"/>
<path d="M95.1721 46.664C95.1946 46.6568 95.2151 46.6445 95.2321 46.628C95.3742 46.4781 95.5497 46.3638 95.7443 46.2943C95.9389 46.2248 96.1471 46.2021 96.3521 46.228C96.3875 46.234 96.4239 46.2261 96.4537 46.206C96.4834 46.1859 96.5044 46.1551 96.5121 46.12C96.518 46.0846 96.5102 46.0482 96.4901 46.0184C96.4699 45.9886 96.4392 45.9677 96.4041 45.96C96.1527 45.9292 95.8977 45.9584 95.6599 46.0453C95.4221 46.1322 95.2083 46.2744 95.0361 46.46C95.0107 46.4855 94.9964 46.52 94.9964 46.556C94.9964 46.592 95.0107 46.6265 95.0361 46.652C95.0538 46.6703 95.0765 46.683 95.1013 46.6887C95.1262 46.6944 95.1521 46.6928 95.1761 46.684L95.1721 46.664Z" fill="#263238"/>
<path d="M98.5841 47.472C98.5521 47.716 98.3961 47.9 98.2361 47.872C98.0761 47.844 97.9721 47.64 98.0041 47.392C98.0361 47.144 98.1881 46.964 98.3481 46.992C98.5081 47.02 98.6121 47.224 98.5841 47.472Z" fill="#263238"/>
<path d="M96.1001 47.476C96.0681 47.712 95.9201 47.876 95.7681 47.876C95.6161 47.876 95.5161 47.656 95.5441 47.416C95.5721 47.176 95.7241 47.016 95.8761 47.016C96.0281 47.016 96.1321 47.24 96.1001 47.476Z" fill="#263238"/>
<path d="M95.9401 47.04L95.4001 46.8C95.4001 46.8 95.6321 47.284 95.9401 47.04Z" fill="#263238"/>
<path d="M98.4001 47.012L97.8321 46.772C97.8321 46.772 98.0961 47.268 98.4001 47.012Z" fill="#263238"/>
<path d="M110.224 58.744C112.144 58.156 111.704 54.816 111.488 53.12C111.488 53.12 109.844 53.708 109.656 55.08C109.468 56.452 110.224 58.744 110.224 58.744Z" fill="#491474"/>
<path opacity="0.4" d="M110.224 58.744C112.144 58.156 111.704 54.816 111.488 53.12C111.488 53.12 109.844 53.708 109.656 55.08C109.468 56.452 110.224 58.744 110.224 58.744Z" fill="black"/>
<path d="M116 51.28C115.799 51.2198 115.586 51.2054 115.379 51.238C115.171 51.2705 114.973 51.3491 114.8 51.468L113.372 52.228C110.856 53.58 105.552 55.668 105.036 56.292C103.924 57.652 105.176 59.124 106.292 59.172C107.596 59.232 113.844 55.764 113.844 55.764C118.636 52.92 116.996 51.488 116 51.28Z" fill="#FFB573"/>
<path d="M113.624 42.12L112.636 39.6L115.644 39.564C115.644 39.564 115.732 41.056 114.992 41.964L113.624 42.12Z" fill="#FFB573"/>
<path d="M113.968 37.144H114.44C114.693 37.1443 114.937 37.2373 115.125 37.4054C115.314 37.5735 115.435 37.805 115.464 38.056L115.632 39.54L112.636 39.584L112.96 37.984C113.003 37.7481 113.128 37.5349 113.312 37.3814C113.496 37.2279 113.728 37.1439 113.968 37.144Z" fill="#FFB573"/>
<path d="M116.972 52.876C117.824 51.676 115.272 44.144 115.024 41.916L113.624 42.12C113.484 42.332 113.772 51.22 114.588 52.576C115.124 53.472 116.972 52.876 116.972 52.876Z" fill="#FFB573"/>
<path d="M105.24 54.936C106.192 54.24 106.992 54.536 108.112 54.168C109.612 53.652 111.488 53.12 111.488 53.12C110.688 53.764 110.288 58.72 110.288 58.72C107.56 60.56 105.78 59.92 105.088 59.24C103.492 57.66 104.62 55.388 105.24 54.936Z" fill="#491474"/>
<g opacity="0.6">
<path d="M105.24 54.936C106.192 54.24 106.992 54.536 108.112 54.168C109.612 53.652 111.488 53.12 111.488 53.12C110.688 53.764 110.288 58.72 110.288 58.72C107.56 60.56 105.78 59.92 105.088 59.24C103.492 57.66 104.62 55.388 105.24 54.936Z" fill="black"/>
</g>
<path d="M100.256 76.196C99.7045 76.2097 99.1689 76.0106 98.7601 75.64C98.6349 75.5215 98.535 75.3789 98.4662 75.2208C98.3975 75.0627 98.3614 74.8924 98.3601 74.72C98.3601 73.892 99.2201 73.204 100.292 73.184C100.86 73.1644 101.413 73.365 101.836 73.744C101.961 73.8621 102.06 74.004 102.129 74.1613C102.198 74.3187 102.234 74.4883 102.236 74.66C102.236 75.488 101.372 76.176 100.3 76.196H100.256ZM100.324 73.584H100.288C99.4361 73.584 98.7441 74.108 98.7481 74.72C98.751 74.8393 98.7779 74.9569 98.8274 75.0655C98.8769 75.1741 98.9479 75.2716 99.0361 75.352C99.3832 75.6569 99.8346 75.816 100.296 75.796C101.148 75.796 101.836 75.272 101.836 74.664C101.832 74.5439 101.804 74.4258 101.754 74.3166C101.704 74.2074 101.633 74.1093 101.544 74.028C101.205 73.7375 100.77 73.5847 100.324 73.6V73.584Z" fill="white"/>
<path d="M83.4721 42.66C83.3536 41.946 83.4672 41.2128 83.7961 40.568C84.0308 40.1021 84.1292 39.5794 84.0801 39.06C84.0764 38.9526 84.0943 38.8456 84.1328 38.7453C84.1713 38.6449 84.2296 38.5534 84.3043 38.4761C84.379 38.3989 84.4684 38.3374 84.5674 38.2955C84.6663 38.2535 84.7727 38.232 84.8801 38.232H85.3641C85.5491 38.2275 85.7298 38.2872 85.8757 38.401C86.0216 38.5147 86.1235 38.6756 86.1641 38.856L86.4681 40.216C86.5377 40.511 86.5378 40.8181 86.4684 41.1131C86.399 41.4082 86.2619 41.683 86.0681 41.916L85.0001 43.176L83.4721 42.66Z" fill="#FFB573"/>
<path opacity="0.1" d="M101.432 91.972C100.936 89.696 100 86.684 99.9121 84.372C100.528 84.6065 101.186 84.7116 101.845 84.6806C102.503 84.6496 103.149 84.4833 103.74 84.192C102.464 86.228 101.968 89.6 101.432 91.972Z" fill="black"/>
<path d="M96.5241 50.4C96.5241 50.4 97.2441 50 99.4521 49.488C99.4521 50.38 99.1801 51.16 98.0441 51.416C97.5001 51.616 96.8441 51.208 96.5641 50.516C96.5481 50.468 96.5361 50.428 96.5241 50.4Z" fill="#263238"/>
<path d="M98.3601 50.628C98.1387 50.6624 97.9265 50.741 97.7361 50.8592C97.5457 50.9774 97.3811 51.1328 97.2521 51.316C97.4995 51.441 97.7842 51.4709 98.0521 51.4C98.2733 51.3661 98.4853 51.2881 98.6756 51.1706C98.866 51.0531 99.0307 50.8985 99.1601 50.716C98.9145 50.5855 98.6282 50.554 98.3601 50.628Z" fill="#9D2724"/>
<path d="M96.6161 50.344C96.6609 50.4351 96.728 50.5133 96.8113 50.5714C96.8945 50.6295 96.9911 50.6655 97.0921 50.676C97.744 50.5243 98.3782 50.3044 98.9841 50.02C99.0876 49.9748 99.1766 49.902 99.2415 49.8096C99.3064 49.7172 99.3447 49.6087 99.3521 49.496C98.4141 49.6868 97.4976 49.9709 96.6161 50.344Z" fill="white"/>
<path d="M83.6641 11.728V40.296C83.6641 41.0052 84.2389 41.58 84.9481 41.58H113.516C114.225 41.58 114.8 41.0052 114.8 40.296V11.728C114.8 11.0189 114.225 10.444 113.516 10.444L84.9481 10.444C84.2389 10.444 83.6641 11.0189 83.6641 11.728Z" fill="#491474"/>
<path opacity="0.4" d="M83.0321 11.032V39.6C83.0321 40.3092 83.607 40.884 84.3161 40.884H112.884C113.593 40.884 114.168 40.3092 114.168 39.6V11.032C114.168 10.3229 113.593 9.74801 112.884 9.74801L84.3161 9.74801C83.607 9.74801 83.0321 10.3229 83.0321 11.032Z" fill="white"/>
<path d="M83.0321 11.032V39.6C83.0321 40.3092 83.607 40.884 84.3161 40.884H112.884C113.593 40.884 114.168 40.3092 114.168 39.6V11.032C114.168 10.3229 113.593 9.74801 112.884 9.74801L84.3161 9.74801C83.607 9.74801 83.0321 10.3229 83.0321 11.032Z" fill="#491474"/>
<path opacity="0.4" d="M83.0321 11.032V39.6C83.0321 40.3092 83.607 40.884 84.3161 40.884H112.884C113.593 40.884 114.168 40.3092 114.168 39.6V11.032C114.168 10.3229 113.593 9.74801 112.884 9.74801L84.3161 9.74801C83.607 9.74801 83.0321 10.3229 83.0321 11.032Z" fill="white"/>
<path d="M115.728 23.124C115.675 23.124 115.624 23.1029 115.587 23.0654C115.549 23.0279 115.528 22.977 115.528 22.924V20.636C115.528 20.583 115.549 20.5321 115.587 20.4946C115.624 20.4571 115.675 20.436 115.728 20.436C115.781 20.437 115.831 20.4584 115.868 20.4957C115.906 20.533 115.927 20.5833 115.928 20.636V22.924C115.927 22.9767 115.906 23.027 115.868 23.0643C115.831 23.1016 115.781 23.123 115.728 23.124Z" fill="#491474"/>
<path d="M115.728 33.812C115.675 33.812 115.624 33.7909 115.587 33.7534C115.549 33.7159 115.528 33.6651 115.528 33.612V25.2C115.528 25.147 115.549 25.0961 115.587 25.0586C115.624 25.0211 115.675 25 115.728 25C115.781 25 115.832 25.0211 115.869 25.0586C115.907 25.0961 115.928 25.147 115.928 25.2V33.6C115.93 33.6273 115.926 33.6546 115.916 33.6802C115.907 33.7059 115.893 33.7294 115.874 33.7493C115.855 33.7691 115.833 33.7849 115.807 33.7957C115.782 33.8065 115.755 33.8121 115.728 33.812Z" fill="#491474"/>
<path d="M98.444 25.012C98.3379 25.012 98.2362 24.9699 98.1612 24.8948C98.0861 24.8198 98.044 24.7181 98.044 24.612V15.84C98.044 15.7339 98.0861 15.6322 98.1612 15.5572C98.2362 15.4821 98.3379 15.44 98.444 15.44C98.5501 15.44 98.6518 15.4821 98.7268 15.5572C98.8019 15.6322 98.844 15.7339 98.844 15.84V24.612C98.844 24.7181 98.8019 24.8198 98.7268 24.8948C98.6518 24.9699 98.5501 25.012 98.444 25.012Z" fill="#491474"/>
<path d="M103.888 29.384C103.835 29.3838 103.783 29.3731 103.734 29.3525C103.685 29.3319 103.641 29.3018 103.604 29.264L92.716 18.376C92.6505 18.2995 92.6162 18.2011 92.6201 18.1004C92.624 17.9997 92.6657 17.9042 92.737 17.833C92.8082 17.7618 92.9037 17.72 93.0044 17.7161C93.105 17.7122 93.2035 17.7465 93.28 17.812L104.168 28.7C104.242 28.775 104.284 28.8763 104.284 28.982C104.284 29.0877 104.242 29.1891 104.168 29.264C104.094 29.3394 103.994 29.3825 103.888 29.384Z" fill="#491474"/>
<path d="M106.14 23.94H90.744C90.6379 23.94 90.5362 23.8979 90.4612 23.8228C90.3861 23.7478 90.344 23.6461 90.344 23.54C90.344 23.4339 90.3861 23.3322 90.4612 23.2572C90.5362 23.1821 90.6379 23.14 90.744 23.14H106.14C106.246 23.14 106.348 23.1821 106.423 23.2572C106.498 23.3322 106.54 23.4339 106.54 23.54C106.54 23.6461 106.498 23.7478 106.423 23.8228C106.348 23.8979 106.246 23.94 106.14 23.94Z" fill="#491474"/>
<path d="M93 29.384C92.9205 29.3845 92.8427 29.3613 92.7765 29.3173C92.7103 29.2734 92.6587 29.2108 92.6282 29.1374C92.5978 29.064 92.5898 28.9832 92.6055 28.9053C92.6211 28.8274 92.6596 28.756 92.716 28.7L103.6 17.812C103.636 17.7701 103.68 17.7361 103.73 17.7121C103.779 17.6881 103.833 17.6746 103.888 17.6725C103.943 17.6704 103.998 17.6796 104.05 17.6998C104.101 17.7199 104.148 17.7504 104.187 17.7894C104.226 17.8283 104.256 17.875 104.276 17.9263C104.296 17.9776 104.306 18.0325 104.303 18.0876C104.301 18.1427 104.288 18.1968 104.264 18.2464C104.24 18.296 104.206 18.3402 104.164 18.376L93.28 29.264C93.2061 29.3394 93.1055 29.3825 93 29.384Z" fill="#491474"/>
<path d="M101.284 29.176C100.932 29.732 100.98 31.804 100.98 31.804L96.18 31.824C96.18 31.824 96.208 29.752 95.856 29.2C94.708 27.416 92.904 25.896 92.892 23.636C92.9231 22.165 93.5275 20.7644 94.5763 19.7325C95.6251 18.7005 97.0354 18.119 98.5067 18.1117C99.978 18.1044 101.394 18.6719 102.453 19.6934C103.512 20.7148 104.13 22.1094 104.176 23.58C104.2 25.84 102.4 27.38 101.284 29.176ZM100.984 32.536L96.184 32.56C96.1845 32.74 96.2205 32.9181 96.29 33.0841C96.3595 33.2502 96.4611 33.4009 96.5889 33.5276C96.7167 33.6543 96.8683 33.7545 97.0349 33.8226C97.2016 33.8906 97.38 33.9251 97.56 33.924H99.604C99.7862 33.9251 99.9668 33.8899 100.135 33.8204C100.304 33.7509 100.457 33.6486 100.585 33.5194C100.713 33.3902 100.815 33.2367 100.883 33.0678C100.952 32.899 100.986 32.7182 100.984 32.536ZM99.716 34.464H97.48C97.4821 34.7607 97.6014 35.0446 97.812 35.2536C98.0226 35.4627 98.3072 35.58 98.604 35.58C98.8993 35.579 99.1821 35.4609 99.3905 35.2517C99.5989 35.0426 99.716 34.7593 99.716 34.464ZM99.716 34.464H97.48C97.4821 34.7607 97.6014 35.0446 97.812 35.2536C98.0226 35.4627 98.3072 35.58 98.604 35.58C98.8993 35.579 99.1821 35.4609 99.3905 35.2517C99.5989 35.0426 99.716 34.7593 99.716 34.464Z" fill="#491474"/>
<path opacity="0.8" d="M101.284 29.176C100.932 29.732 100.98 31.804 100.98 31.804L96.18 31.824C96.18 31.824 96.208 29.752 95.856 29.2C94.708 27.416 92.904 25.896 92.892 23.636C92.9231 22.165 93.5275 20.7644 94.5763 19.7325C95.6251 18.7005 97.0354 18.119 98.5067 18.1117C99.978 18.1044 101.394 18.6719 102.453 19.6934C103.512 20.7148 104.13 22.1094 104.176 23.58C104.2 25.84 102.4 27.38 101.284 29.176ZM100.984 32.536L96.184 32.56C96.1845 32.74 96.2205 32.9181 96.29 33.0841C96.3595 33.2502 96.4611 33.4009 96.5889 33.5276C96.7167 33.6543 96.8683 33.7545 97.0349 33.8226C97.2016 33.8906 97.38 33.9251 97.56 33.924H99.604C99.7862 33.9251 99.9668 33.8899 100.135 33.8204C100.304 33.7509 100.457 33.6486 100.585 33.5194C100.713 33.3902 100.815 33.2367 100.883 33.0678C100.952 32.899 100.986 32.7182 100.984 32.536ZM99.716 34.464H97.48C97.4821 34.7607 97.6014 35.0446 97.812 35.2536C98.0226 35.4627 98.3072 35.58 98.604 35.58C98.8993 35.579 99.1821 35.4609 99.3905 35.2517C99.5989 35.0426 99.716 34.7593 99.716 34.464ZM99.716 34.464H97.48C97.4821 34.7607 97.6014 35.0446 97.812 35.2536C98.0226 35.4627 98.3072 35.58 98.604 35.58C98.8993 35.579 99.1821 35.4609 99.3905 35.2517C99.5989 35.0426 99.716 34.7593 99.716 34.464Z" fill="white"/>
<path d="M91.7841 11.412V14.212H91.1321V13.076H89.8481V14.232H89.2001V11.432H89.8521V12.544H91.1361V11.412H91.7841Z" fill="#263238"/>
<path d="M94.6361 13.708V14.232H92.4521V11.432H94.5841V11.956H93.1001V12.568H94.4001V13.076H93.0921V13.728L94.6361 13.708Z" fill="#263238"/>
<path d="M95.1561 11.412H95.8081V13.7H97.2241V14.232H95.1561V11.412Z" fill="#263238"/>
<path d="M100.036 12.436C100.036 13.064 99.5641 13.456 98.8081 13.456H98.2401V14.232H97.6001V11.432H98.8001C99.5641 11.412 100.036 11.804 100.036 12.436ZM99.3721 12.436C99.3721 12.124 99.1721 11.944 98.7721 11.944H98.2401V12.924H98.7721C99.1721 12.924 99.3721 12.74 99.3721 12.436Z" fill="#263238"/>
<path d="M101.152 11.936V12.68H102.456V13.2H101.152V14.228H100.5V11.428H102.628V11.952L101.152 11.936Z" fill="#263238"/>
<path d="M103.048 12.992V11.392H103.7V12.948C103.7 13.484 103.936 13.704 104.328 13.704C104.72 13.704 104.96 13.484 104.96 12.948V11.412H105.6V13.012C105.61 13.1858 105.584 13.3598 105.524 13.5234C105.464 13.6869 105.372 13.8365 105.252 13.963C105.132 14.0895 104.988 14.1903 104.828 14.2591C104.668 14.328 104.496 14.3635 104.322 14.3635C104.148 14.3635 103.976 14.328 103.816 14.2591C103.656 14.1903 103.512 14.0895 103.392 13.963C103.272 13.8365 103.18 13.6869 103.12 13.5234C103.06 13.3598 103.034 13.1858 103.044 13.012L103.048 12.992Z" fill="#263238"/>
<path d="M106.248 11.412H106.9V13.7H108.316V14.232H106.248V11.412Z" fill="#263238"/>
<path d="M94.2081 37.44H93.3041V36.908H95.7601V37.44H94.8601V39.728H94.2081V37.44Z" fill="#263238"/>
<path d="M96.1121 36.908H96.7641V39.708H96.1121V36.908Z" fill="#263238"/>
<path d="M99.8801 37.932C99.8801 38.56 99.4081 38.952 98.6561 38.952H98.0881V39.728H97.4361V36.928H98.6361C99.4081 36.908 99.8801 37.3 99.8801 37.932ZM99.2201 37.932C99.2201 37.62 99.0161 37.44 98.6201 37.44H98.0881V38.42H98.6201C99.0161 38.42 99.2201 38.236 99.2201 37.932Z" fill="#263238"/>
<path d="M100.164 39.452L100.384 38.96C100.659 39.1484 100.983 39.2501 101.316 39.252C101.716 39.252 101.856 39.124 101.856 38.952C101.856 38.424 100.22 38.784 100.22 37.752C100.22 37.272 100.62 36.872 101.42 36.872C101.762 36.865 102.099 36.9507 102.396 37.12L102.196 37.616C101.953 37.4736 101.677 37.3977 101.396 37.396C100.996 37.396 100.86 37.54 100.86 37.72C100.86 38.236 102.5 37.88 102.5 38.92C102.5 39.388 102.1 39.792 101.3 39.792C100.896 39.7961 100.5 39.6776 100.164 39.452Z" fill="#263238"/>
<path d="M102.8 39.392C102.822 39.3055 102.872 39.2287 102.942 39.1739C103.012 39.119 103.099 39.0892 103.188 39.0892C103.277 39.0892 103.364 39.119 103.434 39.1739C103.504 39.2287 103.554 39.3055 103.576 39.392C103.554 39.4785 103.504 39.5552 103.434 39.6101C103.364 39.665 103.277 39.6947 103.188 39.6947C103.099 39.6947 103.012 39.665 102.942 39.6101C102.872 39.5552 102.822 39.4785 102.8 39.392ZM102.8 36.908H103.6L103.472 38.748H102.976L102.8 36.908Z" fill="#263238"/>
</svg>
