<svg width="24" height="24" viewBox="0 0 24 24" fill="none" xmlns="http://www.w3.org/2000/svg">
<path fill-rule="evenodd" clip-rule="evenodd" d="M18.364 3.05798C18.5629 3.05798 18.7536 3.137 18.8943 3.27765C19.0349 3.41831 19.114 3.60907 19.114 3.80798V8.04998C19.114 8.2489 19.0349 8.43966 18.8943 8.58031C18.7536 8.72097 18.5629 8.79998 18.364 8.79998H14.121C13.922 8.79998 13.7313 8.72097 13.5906 8.58031C13.45 8.43966 13.371 8.2489 13.371 8.04998C13.371 7.85107 13.45 7.66031 13.5906 7.51965C13.7313 7.379 13.922 7.29998 14.121 7.29998H16.481C15.127 6.23597 13.4385 5.68858 11.7178 5.75577C9.99704 5.82297 8.3564 6.50038 7.08951 7.66674C5.82262 8.83311 5.01219 10.4123 4.80328 12.1216C4.59437 13.8309 5.00062 15.5588 5.94932 16.9959C6.89802 18.4331 8.32722 19.4857 9.98111 19.9653C11.635 20.445 13.4056 20.3203 14.976 19.6137C16.5464 18.9071 17.8141 17.6647 18.5521 16.1088C19.2901 14.5529 19.4503 12.7852 19.004 11.122C18.9785 11.0268 18.9721 10.9275 18.9851 10.8298C18.9981 10.7321 19.0301 10.6379 19.0795 10.5527C19.1288 10.4674 19.1945 10.3926 19.2727 10.3327C19.351 10.2728 19.4403 10.2289 19.5355 10.2035C19.6307 10.1781 19.7299 10.1717 19.8276 10.1846C19.9253 10.1976 20.0195 10.2297 20.1048 10.279C20.1901 10.3284 20.2648 10.394 20.3247 10.4723C20.3846 10.5505 20.4285 10.6398 20.454 10.735C20.9953 12.753 20.7966 14.8981 19.8939 16.7823C18.9912 18.6666 17.444 20.1656 15.5322 21.0084C13.6204 21.8512 11.4702 21.9821 9.47024 21.3774C7.47033 20.7727 5.75281 19.4723 4.62826 17.7114C3.5037 15.9506 3.04635 13.8454 3.33891 11.7767C3.63147 9.70792 4.65462 7.81214 6.22334 6.43214C7.79207 5.05213 9.80282 4.27901 11.892 4.25257C13.9811 4.22613 16.0108 4.94812 17.614 6.28798V3.80798C17.614 3.60907 17.693 3.41831 17.8336 3.27765C17.9743 3.137 18.165 3.05798 18.364 3.05798Z" fill="white"/>
</svg>
