<svg width="20" height="20" viewBox="0 0 20 20" fill="none" xmlns="http://www.w3.org/2000/svg">
<path fill-rule="evenodd" clip-rule="evenodd" d="M13.125 5C13.125 4.1712 12.7957 3.37634 12.2097 2.79029C11.6236 2.20424 10.8288 1.875 9.99998 1.875C9.17118 1.875 8.37632 2.20424 7.79027 2.79029C7.20422 3.37634 6.87498 4.1712 6.87498 5C6.87498 5.8288 7.20422 6.62366 7.79027 7.20971C8.37632 7.79576 9.17118 8.125 9.99998 8.125C10.8288 8.125 11.6236 7.79576 12.2097 7.20971C12.7957 6.62366 13.125 5.8288 13.125 5ZM9.99998 3.125C10.4973 3.125 10.9742 3.32254 11.3258 3.67417C11.6774 4.02581 11.875 4.50272 11.875 5C11.875 5.49728 11.6774 5.97419 11.3258 6.32582C10.9742 6.67746 10.4973 6.875 9.99998 6.875C9.5027 6.875 9.02578 6.67746 8.67415 6.32582C8.32252 5.97419 8.12498 5.49728 8.12498 5C8.12498 4.50272 8.32252 4.02581 8.67415 3.67417C9.02578 3.32254 9.5027 3.125 9.99998 3.125ZM7.70831 15C7.70831 14.1712 7.37907 13.3763 6.79302 12.7903C6.20697 12.2042 5.41211 11.875 4.58331 11.875C3.75451 11.875 2.95966 12.2042 2.3736 12.7903C1.78755 13.3763 1.45831 14.1712 1.45831 15C1.45831 15.8288 1.78755 16.6237 2.3736 17.2097C2.95966 17.7958 3.75451 18.125 4.58331 18.125C5.41211 18.125 6.20697 17.7958 6.79302 17.2097C7.37907 16.6237 7.70831 15.8288 7.70831 15ZM4.58331 13.125C5.08059 13.125 5.55751 13.3225 5.90914 13.6742C6.26077 14.0258 6.45831 14.5027 6.45831 15C6.45831 15.4973 6.26077 15.9742 5.90914 16.3258C5.55751 16.6775 5.08059 16.875 4.58331 16.875C4.08603 16.875 3.60912 16.6775 3.25749 16.3258C2.90586 15.9742 2.70831 15.4973 2.70831 15C2.70831 14.5027 2.90586 14.0258 3.25749 13.6742C3.60912 13.3225 4.08603 13.125 4.58331 13.125ZM15.4166 11.875C16.2454 11.875 17.0403 12.2042 17.6264 12.7903C18.2124 13.3763 18.5416 14.1712 18.5416 15C18.5416 15.8288 18.2124 16.6237 17.6264 17.2097C17.0403 17.7958 16.2454 18.125 15.4166 18.125C14.5878 18.125 13.793 17.7958 13.2069 17.2097C12.6209 16.6237 12.2916 15.8288 12.2916 15C12.2916 14.1712 12.6209 13.3763 13.2069 12.7903C13.793 12.2042 14.5878 11.875 15.4166 11.875ZM17.2916 15C17.2916 14.5027 17.0941 14.0258 16.7425 13.6742C16.3908 13.3225 15.9139 13.125 15.4166 13.125C14.9194 13.125 14.4425 13.3225 14.0908 13.6742C13.7392 14.0258 13.5416 14.5027 13.5416 15C13.5416 15.4973 13.7392 15.9742 14.0908 16.3258C14.4425 16.6775 14.9194 16.875 15.4166 16.875C15.9139 16.875 16.3908 16.6775 16.7425 16.3258C17.0941 15.9742 17.2916 15.4973 17.2916 15Z" fill="black"/>
<path d="M6.00415 6.30168C6.12533 6.19113 6.19819 6.03737 6.20701 5.87358C6.21583 5.70979 6.15991 5.54909 6.05131 5.42616C5.9427 5.30324 5.79013 5.22793 5.6265 5.21649C5.46287 5.20505 5.3013 5.2584 5.17665 5.36502C4.40005 6.04858 3.77817 6.88992 3.35253 7.83289C2.92689 8.77586 2.70726 9.79877 2.70832 10.8334C2.70832 10.9991 2.77416 11.1581 2.89137 11.2753C3.00859 11.3925 3.16756 11.4584 3.33332 11.4584C3.49908 11.4584 3.65805 11.3925 3.77526 11.2753C3.89247 11.1581 3.95832 10.9991 3.95832 10.8334C3.95723 9.97592 4.13917 9.12813 4.49197 8.34664C4.84478 7.56515 5.36032 6.86797 6.00415 6.30168ZM14.8233 5.36502C14.6987 5.2584 14.5371 5.20505 14.3735 5.21649C14.2098 5.22793 14.0573 5.30324 13.9487 5.42616C13.8401 5.54909 13.7841 5.70979 13.793 5.87358C13.8018 6.03737 13.8746 6.19113 13.9958 6.30168C14.6396 6.86797 15.1552 7.56515 15.508 8.34664C15.8608 9.12813 16.0427 9.97592 16.0416 10.8334C16.0416 10.9991 16.1075 11.1581 16.2247 11.2753C16.3419 11.3925 16.5009 11.4584 16.6666 11.4584C16.8324 11.4584 16.9914 11.3925 17.1086 11.2753C17.2258 11.1581 17.2916 10.9991 17.2916 10.8334C17.2927 9.79877 17.0731 8.77586 16.6474 7.83289C16.2218 6.88992 15.5999 6.04858 14.8233 5.36502ZM8.48915 16.685C8.40885 16.6619 8.32471 16.6551 8.24174 16.665C8.15876 16.675 8.07862 16.7015 8.00605 16.7429C7.93349 16.7844 7.86998 16.84 7.81927 16.9064C7.76857 16.9728 7.7317 17.0488 7.71086 17.1297C7.69001 17.2106 7.68561 17.2949 7.69791 17.3776C7.71021 17.4602 7.73896 17.5396 7.78247 17.6109C7.82597 17.6823 7.88335 17.7442 7.9512 17.793C8.01905 17.8418 8.09599 17.8765 8.17748 17.895C9.37312 18.2018 10.6268 18.2018 11.8225 17.895C11.904 17.8765 11.9809 17.8418 12.0488 17.793C12.1166 17.7442 12.174 17.6823 12.2175 17.6109C12.261 17.5396 12.2898 17.4602 12.3021 17.3776C12.3144 17.2949 12.31 17.2106 12.2891 17.1297C12.2683 17.0488 12.2314 16.9728 12.1807 16.9064C12.13 16.84 12.0665 16.7844 11.9939 16.7429C11.9214 16.7015 11.8412 16.675 11.7582 16.665C11.6753 16.6551 11.5911 16.6619 11.5108 16.685C11.0172 16.8114 10.5096 16.8752 9.99998 16.875C9.4904 16.8752 8.98282 16.8114 8.48915 16.685Z" fill="black"/>
</svg>
