<svg width="24" height="25" viewBox="0 0 24 25" fill="none" xmlns="http://www.w3.org/2000/svg">
<path fill-rule="evenodd" clip-rule="evenodd" d="M15.75 6.23633C15.75 5.24177 15.3549 4.28794 14.6517 3.58468C13.9484 2.88142 12.9946 2.48633 12 2.48633C11.0054 2.48633 10.0516 2.88142 9.34835 3.58468C8.64509 4.28794 8.25 5.24177 8.25 6.23633C8.25 7.23089 8.64509 8.18472 9.34835 8.88798C10.0516 9.59124 11.0054 9.98633 12 9.98633C12.9946 9.98633 13.9484 9.59124 14.6517 8.88798C15.3549 8.18472 15.75 7.23089 15.75 6.23633ZM12 3.98633C12.5967 3.98633 13.169 4.22338 13.591 4.64534C14.0129 5.06729 14.25 5.63959 14.25 6.23633C14.25 6.83307 14.0129 7.40536 13.591 7.82732C13.169 8.24928 12.5967 8.48633 12 8.48633C11.4033 8.48633 10.831 8.24928 10.409 7.82732C9.98705 7.40536 9.75 6.83307 9.75 6.23633C9.75 5.63959 9.98705 5.06729 10.409 4.64534C10.831 4.22338 11.4033 3.98633 12 3.98633ZM9.25 18.2363C9.25 17.2418 8.85491 16.2879 8.15165 15.5847C7.44839 14.8814 6.49456 14.4863 5.5 14.4863C4.50544 14.4863 3.55161 14.8814 2.84835 15.5847C2.14509 16.2879 1.75 17.2418 1.75 18.2363C1.75 19.2309 2.14509 20.1847 2.84835 20.888C3.55161 21.5912 4.50544 21.9863 5.5 21.9863C6.49456 21.9863 7.44839 21.5912 8.15165 20.888C8.85491 20.1847 9.25 19.2309 9.25 18.2363ZM5.5 15.9863C6.09674 15.9863 6.66903 16.2234 7.09099 16.6453C7.51295 17.0673 7.75 17.6396 7.75 18.2363C7.75 18.8331 7.51295 19.4054 7.09099 19.8273C6.66903 20.2493 6.09674 20.4863 5.5 20.4863C4.90326 20.4863 4.33097 20.2493 3.90901 19.8273C3.48705 19.4054 3.25 18.8331 3.25 18.2363C3.25 17.6396 3.48705 17.0673 3.90901 16.6453C4.33097 16.2234 4.90326 15.9863 5.5 15.9863ZM18.5 14.4863C19.4946 14.4863 20.4484 14.8814 21.1517 15.5847C21.8549 16.2879 22.25 17.2418 22.25 18.2363C22.25 19.2309 21.8549 20.1847 21.1517 20.888C20.4484 21.5912 19.4946 21.9863 18.5 21.9863C17.5054 21.9863 16.5516 21.5912 15.8483 20.888C15.1451 20.1847 14.75 19.2309 14.75 18.2363C14.75 17.2418 15.1451 16.2879 15.8483 15.5847C16.5516 14.8814 17.5054 14.4863 18.5 14.4863ZM20.75 18.2363C20.75 17.6396 20.5129 17.0673 20.091 16.6453C19.669 16.2234 19.0967 15.9863 18.5 15.9863C17.9033 15.9863 17.331 16.2234 16.909 16.6453C16.4871 17.0673 16.25 17.6396 16.25 18.2363C16.25 18.8331 16.4871 19.4054 16.909 19.8273C17.331 20.2493 17.9033 20.4863 18.5 20.4863C19.0967 20.4863 19.669 20.2493 20.091 19.8273C20.5129 19.4054 20.75 18.8331 20.75 18.2363Z" fill="#fff"/>
<path d="M7.205 7.7982C7.35042 7.66554 7.43785 7.48103 7.44843 7.28448C7.45902 7.08793 7.39191 6.89509 7.26159 6.74758C7.13127 6.60006 6.94818 6.50969 6.75182 6.49597C6.55547 6.48224 6.36158 6.54626 6.212 6.6742C5.28008 7.49448 4.53383 8.50408 4.02306 9.63565C3.51229 10.7672 3.24874 11.9947 3.25 13.2362C3.25 13.4351 3.32902 13.6259 3.46967 13.7665C3.61033 13.9072 3.80109 13.9862 4 13.9862C4.19892 13.9862 4.38968 13.9072 4.53033 13.7665C4.67099 13.6259 4.75 13.4351 4.75 13.2362C4.7487 12.2073 4.96703 11.1899 5.39039 10.2522C5.81376 9.31437 6.43241 8.47775 7.205 7.7982ZM17.788 6.6742C17.6384 6.54626 17.4445 6.48224 17.2482 6.49597C17.0518 6.50969 16.8687 6.60006 16.7384 6.74758C16.6081 6.89509 16.541 7.08793 16.5516 7.28448C16.5622 7.48103 16.6496 7.66554 16.795 7.7982C17.5676 8.47775 18.1863 9.31437 18.6096 10.2522C19.033 11.1899 19.2513 12.2073 19.25 13.2362C19.25 13.4351 19.329 13.6259 19.4697 13.7665C19.6103 13.9072 19.8011 13.9862 20 13.9862C20.1989 13.9862 20.3897 13.9072 20.5303 13.7665C20.671 13.6259 20.75 13.4351 20.75 13.2362C20.7513 11.9947 20.4877 10.7672 19.9769 9.63565C19.4662 8.50408 18.7199 7.49448 17.788 6.6742ZM10.187 20.2582C10.0906 20.2304 9.98968 20.2223 9.89011 20.2342C9.79053 20.2461 9.69436 20.2779 9.60729 20.3277C9.52021 20.3774 9.444 20.4441 9.38315 20.5239C9.32231 20.6036 9.27807 20.6947 9.25305 20.7918C9.22804 20.8889 9.22276 20.9901 9.23752 21.0893C9.25228 21.1885 9.28678 21.2837 9.33899 21.3693C9.39119 21.4549 9.46004 21.5292 9.54146 21.5878C9.62288 21.6463 9.71522 21.688 9.813 21.7102C11.2478 22.0783 12.7522 22.0783 14.187 21.7102C14.2848 21.688 14.3771 21.6463 14.4585 21.5878C14.54 21.5292 14.6088 21.4549 14.661 21.3693C14.7132 21.2837 14.7477 21.1885 14.7625 21.0893C14.7773 20.9901 14.772 20.8889 14.747 20.7918C14.7219 20.6947 14.6777 20.6036 14.6169 20.5239C14.556 20.4441 14.4798 20.3774 14.3927 20.3277C14.3056 20.2779 14.2095 20.2461 14.1099 20.2342C14.0103 20.2223 13.9094 20.2304 13.813 20.2582C13.2206 20.4098 12.6115 20.4864 12 20.4862C11.3885 20.4864 10.7794 20.4098 10.187 20.2582Z" fill="#fff"/>
</svg>
