<svg width="20" height="20" viewBox="0 0 20 20" fill="none" xmlns="http://www.w3.org/2000/svg">
<path d="M2.29175 9.99999C2.29175 7.95561 3.10387 5.99497 4.54947 4.54938C5.99506 3.10378 7.9557 2.29166 10.0001 2.29166C12.0445 2.29166 14.0051 3.10378 15.4507 4.54938C16.8963 5.99497 17.7084 7.95561 17.7084 9.99999C17.7096 11.0124 17.5107 12.0151 17.1232 12.9504C16.7356 13.8857 16.167 14.7352 15.4501 15.45C15.3328 15.5672 15.267 15.7263 15.267 15.8921C15.267 16.0579 15.3328 16.2169 15.4501 16.3342C15.5673 16.4514 15.7264 16.5173 15.8922 16.5173C16.058 16.5173 16.217 16.4514 16.3342 16.3342C17.1672 15.5032 17.8279 14.5159 18.2782 13.4288C18.7285 12.3418 18.9597 11.1766 18.9584 9.99999C18.9584 5.05249 14.9476 1.04166 10.0001 1.04166C5.05258 1.04166 1.04175 5.05249 1.04175 9.99999C1.04175 12.4733 2.04508 14.7142 3.66591 16.3342C3.72313 16.3956 3.79213 16.4448 3.8688 16.479C3.94547 16.5131 4.02823 16.5315 4.11215 16.533C4.19607 16.5345 4.27942 16.519 4.35725 16.4876C4.43507 16.4562 4.50576 16.4094 4.56511 16.35C4.62446 16.2907 4.67125 16.22 4.70268 16.1422C4.73412 16.0643 4.74956 15.981 4.74807 15.8971C4.74659 15.8131 4.72823 15.7304 4.69407 15.6537C4.65991 15.577 4.61065 15.508 4.54925 15.4508C3.83237 14.7358 3.26388 13.8862 2.87646 12.9507C2.48904 12.0153 2.29033 11.0125 2.29175 9.99999Z" fill="black"/>
<path d="M5.625 10C5.62492 9.2805 5.80229 8.57208 6.1414 7.93749C6.48052 7.30291 6.97091 6.76176 7.56914 6.36198C8.16736 5.9622 8.85495 5.71613 9.57099 5.64558C10.287 5.57502 11.0094 5.68216 11.6742 5.95749C12.3389 6.23283 12.9255 6.66786 13.3819 7.22405C13.8384 7.78024 14.1506 8.44043 14.291 9.14612C14.4313 9.85181 14.3954 10.5812 14.1865 11.2697C13.9776 11.9583 13.6021 12.5846 13.0933 13.0933C12.9761 13.2106 12.9102 13.3696 12.9102 13.5354C12.9102 13.7012 12.9761 13.8603 13.0933 13.9775C13.2106 14.0948 13.3696 14.1606 13.5354 14.1606C13.7012 14.1606 13.8603 14.0948 13.9775 13.9775C14.7642 13.1908 15.2999 12.1886 15.5169 11.0974C15.734 10.0063 15.6226 8.87528 15.1968 7.84745C14.7711 6.81962 14.0501 5.94112 13.1251 5.32304C12.2001 4.70496 11.1125 4.37506 10 4.37506C8.88748 4.37506 7.79995 4.70496 6.87493 5.32304C5.9499 5.94112 5.22893 6.81962 4.80319 7.84745C4.37744 8.87528 4.26604 10.0063 4.48308 11.0974C4.70012 12.1886 5.23584 13.1908 6.0225 13.9775C6.07972 14.0389 6.14872 14.0882 6.22539 14.1223C6.30205 14.1565 6.38481 14.1749 6.46873 14.1763C6.55265 14.1778 6.63601 14.1624 6.71383 14.1309C6.79166 14.0995 6.86235 14.0527 6.9217 13.9934C6.98105 13.934 7.02784 13.8633 7.05927 13.7855C7.09071 13.7077 7.10614 13.6243 7.10466 13.5404C7.10318 13.4565 7.08481 13.3737 7.05065 13.2971C7.01649 13.2204 6.96724 13.1514 6.90584 13.0942C6.49887 12.6884 6.1762 12.206 5.95638 11.675C5.73656 11.144 5.62394 10.5747 5.625 10Z" fill="black"/>
<path fill-rule="evenodd" clip-rule="evenodd" d="M7.70834 10C7.70834 9.39222 7.94978 8.80933 8.37955 8.37956C8.80932 7.94979 9.39222 7.70834 10 7.70834C10.6078 7.70834 11.1907 7.94979 11.6205 8.37956C12.0502 8.80933 12.2917 9.39222 12.2917 10C12.2917 10.6078 12.0502 11.1907 11.6205 11.6205C11.1907 12.0502 10.6078 12.2917 10 12.2917C9.39222 12.2917 8.80932 12.0502 8.37955 11.6205C7.94978 11.1907 7.70834 10.6078 7.70834 10ZM10 8.95834C9.72374 8.95834 9.45879 9.06809 9.26344 9.26344C9.06809 9.45879 8.95834 9.72374 8.95834 10C8.95834 10.2763 9.06809 10.5412 9.26344 10.7366C9.45879 10.9319 9.72374 11.0417 10 11.0417C10.2763 11.0417 10.5412 10.9319 10.7366 10.7366C10.9319 10.5412 11.0417 10.2763 11.0417 10C11.0417 9.72374 10.9319 9.45879 10.7366 9.26344C10.5412 9.06809 10.2763 8.95834 10 8.95834ZM11.1608 13.1192C10.8458 12.8967 10.5083 12.7308 10.0975 12.7108C10.0325 12.7083 9.96748 12.7083 9.90251 12.7108C9.49167 12.7308 9.15417 12.8967 8.83917 13.1192C8.54584 13.3275 8.22251 13.6233 7.84584 13.9667L7.77917 14.0267C6.94251 14.7908 6.26501 15.41 5.83417 15.9242C5.42001 16.4183 5.03917 17.0383 5.28417 17.73C5.31751 17.8222 5.35806 17.9111 5.40584 17.9967C5.74751 18.6092 6.44334 18.7925 7.11251 18.8733C7.81001 18.9583 8.76251 18.9583 9.95334 18.9583H10.0467C11.2375 18.9583 12.19 18.9583 12.8883 18.8733C13.5567 18.7925 14.2517 18.6092 14.5942 17.9967C14.642 17.9111 14.6822 17.8222 14.715 17.73C14.9608 17.0383 14.58 16.4183 14.1658 15.9242C13.735 15.4092 13.0575 14.7908 12.22 14.0267L12.1542 13.9667C11.7783 13.6233 11.4542 13.3275 11.1608 13.1192ZM9.56167 14.1392C9.77001 13.9917 9.87834 13.9633 9.96167 13.9592C9.98694 13.958 10.0122 13.958 10.0375 13.9592C10.1208 13.9633 10.2292 13.9917 10.4375 14.1392C10.6608 14.2975 10.9275 14.5392 11.3392 14.915C12.2242 15.7225 12.8375 16.2842 13.2083 16.7267C13.3917 16.9458 13.4817 17.0967 13.52 17.1983C13.5508 17.2775 13.5408 17.3025 13.5375 17.31V17.3108C13.5274 17.3367 13.516 17.362 13.5033 17.3867C13.4867 17.4158 13.3883 17.5533 12.7367 17.6325C12.1242 17.7075 11.2475 17.7083 10 17.7083C8.75167 17.7083 7.87584 17.7075 7.26334 17.6333C6.61167 17.5533 6.51334 17.4167 6.49667 17.3867C6.48405 17.3623 6.47265 17.3372 6.46251 17.3117V17.31C6.45917 17.3025 6.44917 17.2775 6.48001 17.1983C6.51834 17.0967 6.60834 16.9458 6.79167 16.7267C7.16251 16.285 7.77667 15.7225 8.66084 14.915C9.07251 14.54 9.33917 14.2975 9.56167 14.14" fill="black"/>
</svg>
