<svg width="24" height="24" viewBox="0 0 24 24" fill="none" xmlns="http://www.w3.org/2000/svg">
<path fill-rule="evenodd" clip-rule="evenodd" d="M9.00001 6.25C8.63888 6.25 8.28128 6.32113 7.94764 6.45933C7.61399 6.59753 7.31083 6.8001 7.05547 7.05546C6.80011 7.31082 6.59755 7.61398 6.45935 7.94762C6.32115 8.28127 6.25002 8.63886 6.25002 9C6.25002 9.36114 6.32115 9.71873 6.45935 10.0524C6.59755 10.386 6.80011 10.6892 7.05547 10.9445C7.31083 11.1999 7.61399 11.4025 7.94764 11.5407C8.28128 11.6789 8.63888 11.75 9.00001 11.75C9.72936 11.75 10.4288 11.4603 10.9446 10.9445C11.4603 10.4288 11.75 9.72935 11.75 9C11.75 8.27065 11.4603 7.57118 10.9446 7.05546C10.4288 6.53973 9.72936 6.25 9.00001 6.25ZM7.75002 9C7.75002 8.66848 7.88171 8.35054 8.11613 8.11612C8.35055 7.8817 8.66849 7.75 9.00001 7.75C9.33154 7.75 9.64948 7.8817 9.8839 8.11612C10.1183 8.35054 10.25 8.66848 10.25 9C10.25 9.33152 10.1183 9.64946 9.8839 9.88388C9.64948 10.1183 9.33154 10.25 9.00001 10.25C8.66849 10.25 8.35055 10.1183 8.11613 9.88388C7.88171 9.64946 7.75002 9.33152 7.75002 9ZM9.00001 12.25C7.80401 12.25 6.68501 12.49 5.83601 12.915C5.03301 13.317 4.25001 14.011 4.25001 15V15.063C4.24801 15.573 4.24601 16.433 5.06001 17.022C5.43801 17.295 5.93701 17.47 6.55501 17.581C7.17801 17.693 7.97701 17.75 9.00001 17.75C10.023 17.75 10.822 17.693 11.445 17.581C12.063 17.47 12.562 17.295 12.94 17.021C13.754 16.432 13.752 15.573 13.75 15.062V15C13.75 14.01 12.967 13.317 12.164 12.915C11.315 12.491 10.196 12.25 9.00001 12.25ZM5.75001 15C5.75001 14.885 5.86301 14.579 6.50701 14.257C7.10702 13.957 7.98701 13.75 9.00001 13.75C10.013 13.75 10.894 13.957 11.493 14.257C12.137 14.579 12.25 14.885 12.25 15C12.25 15.604 12.211 15.697 12.06 15.807C11.938 15.895 11.687 16.013 11.18 16.105C10.678 16.195 9.97701 16.25 9.00001 16.25C8.02301 16.25 7.32202 16.195 6.82002 16.105C6.31302 16.013 6.06201 15.895 5.94001 15.807C5.78802 15.697 5.75001 15.604 5.75001 15Z" fill="#491474"/>
<path d="M19 12.75C19.1989 12.75 19.3897 12.671 19.5303 12.5303C19.671 12.3897 19.75 12.1989 19.75 12C19.75 11.8011 19.671 11.6103 19.5303 11.4697C19.3897 11.329 19.1989 11.25 19 11.25H15C14.8011 11.25 14.6103 11.329 14.4697 11.4697C14.329 11.6103 14.25 11.8011 14.25 12C14.25 12.1989 14.329 12.3897 14.4697 12.5303C14.6103 12.671 14.8011 12.75 15 12.75H19ZM19.75 9C19.75 9.19891 19.671 9.38968 19.5303 9.53033C19.3897 9.67098 19.1989 9.75 19 9.75H14C13.8011 9.75 13.6103 9.67098 13.4697 9.53033C13.329 9.38968 13.25 9.19891 13.25 9C13.25 8.80109 13.329 8.61032 13.4697 8.46967C13.6103 8.32902 13.8011 8.25 14 8.25H19C19.1989 8.25 19.3897 8.32902 19.5303 8.46967C19.671 8.61032 19.75 8.80109 19.75 9ZM19 15.75C19.1989 15.75 19.3897 15.671 19.5303 15.5303C19.671 15.3897 19.75 15.1989 19.75 15C19.75 14.8011 19.671 14.6103 19.5303 14.4697C19.3897 14.329 19.1989 14.25 19 14.25H16C15.8011 14.25 15.6103 14.329 15.4697 14.4697C15.329 14.6103 15.25 14.8011 15.25 15C15.25 15.1989 15.329 15.3897 15.4697 15.5303C15.6103 15.671 15.8011 15.75 16 15.75H19Z" fill="black"/>
<path fill-rule="evenodd" clip-rule="evenodd" d="M9.94398 3.25H14.056C15.894 3.25 17.35 3.25 18.489 3.403C19.661 3.561 20.61 3.893 21.359 4.641C22.107 5.39 22.439 6.339 22.597 7.511C22.75 8.651 22.75 10.106 22.75 11.944V12.056C22.75 13.894 22.75 15.35 22.597 16.489C22.439 17.661 22.107 18.61 21.359 19.359C20.61 20.107 19.661 20.439 18.489 20.597C17.349 20.75 15.894 20.75 14.056 20.75H9.94498C8.10698 20.75 6.65098 20.75 5.51198 20.597C4.33998 20.439 3.39098 20.107 2.64198 19.359C1.89398 18.61 1.56198 17.661 1.40398 16.489C1.25098 15.349 1.25098 13.894 1.25098 12.056V11.944C1.25098 10.106 1.25098 8.65 1.40398 7.511C1.56198 6.339 1.89398 5.39 2.64198 4.641C3.39098 3.893 4.33998 3.561 5.51198 3.403C6.65198 3.25 8.10598 3.25 9.94398 3.25ZM5.70998 4.89C4.70398 5.025 4.12398 5.279 3.69998 5.702C3.27798 6.125 3.02398 6.705 2.88898 7.711C2.75098 8.739 2.74898 10.093 2.74898 12C2.74898 13.907 2.75098 15.262 2.88898 16.29C3.02398 17.295 3.27798 17.875 3.70098 18.298C4.12398 18.721 4.70398 18.975 5.70998 19.11C6.73798 19.248 8.09198 19.25 9.99898 19.25H13.999C15.906 19.25 17.261 19.248 18.289 19.11C19.294 18.975 19.874 18.721 20.297 18.298C20.72 17.875 20.974 17.295 21.109 16.289C21.247 15.261 21.249 13.907 21.249 12C21.249 10.093 21.247 8.739 21.109 7.71C20.974 6.705 20.72 6.125 20.297 5.702C19.874 5.279 19.294 5.025 18.288 4.89C17.261 4.752 15.906 4.75 13.999 4.75H9.99898C8.09198 4.75 6.73898 4.752 5.70998 4.89Z" fill="black"/>
</svg>
