<svg width="97" height="96" viewBox="0 0 97 96" fill="none" xmlns="http://www.w3.org/2000/svg">
<path fill-rule="evenodd" clip-rule="evenodd" d="M48.5 11C38.687 11 29.2759 14.8982 22.337 21.837C15.3982 28.7759 11.5 38.187 11.5 48C11.5 57.813 15.3982 67.2241 22.337 74.1629C29.2759 81.1018 38.687 85 48.5 85C58.313 85 67.7241 81.1018 74.6629 74.1629C81.6018 67.2241 85.5 57.813 85.5 48C85.5 38.187 81.6018 28.7759 74.6629 21.837C67.7241 14.8982 58.313 11 48.5 11ZM5.5 48C5.5 24.252 24.752 5 48.5 5C72.248 5 91.5 24.252 91.5 48C91.5 71.748 72.248 91 48.5 91C24.752 91 5.5 71.748 5.5 48Z" fill="#999999"/>
<path fill-rule="evenodd" clip-rule="evenodd" d="M44.512 26.028C45.0349 26.6275 45.2982 27.4101 45.2442 28.2037C45.1902 28.9973 44.8232 29.7369 44.224 30.26L36.5 37H68.5C69.2956 37 70.0587 37.3161 70.6213 37.8787C71.1839 38.4413 71.5 39.2044 71.5 40C71.5 40.7957 71.1839 41.5587 70.6213 42.1214C70.0587 42.684 69.2956 43 68.5 43H28.5C27.8894 42.9998 27.2934 42.8134 26.7917 42.4655C26.2899 42.1176 25.9062 41.6249 25.6918 41.0532C25.4775 40.4814 25.4427 39.8579 25.5921 39.2659C25.7415 38.6739 26.068 38.1416 26.528 37.74L40.276 25.74C40.5729 25.4805 40.9181 25.2821 41.2918 25.1561C41.6654 25.0301 42.0603 24.9791 42.4537 25.0058C42.8471 25.0326 43.2314 25.1366 43.5846 25.312C43.9378 25.4874 44.2529 25.7307 44.512 26.028ZM71.308 54.948C71.0939 54.3761 70.7103 53.8832 70.2085 53.5351C69.7067 53.187 69.1107 53.0003 68.5 53H28.5C27.7044 53 26.9413 53.3161 26.3787 53.8787C25.8161 54.4413 25.5 55.2044 25.5 56C25.5 56.7957 25.8161 57.5587 26.3787 58.1214C26.9413 58.684 27.7044 59 28.5 59H60.5L52.78 65.74C52.1988 66.2681 51.8478 67.0029 51.8023 67.7868C51.7569 68.5707 52.0206 69.3412 52.5369 69.9329C53.0531 70.5246 53.7808 70.8902 54.5636 70.9514C55.3465 71.0125 56.1221 70.7643 56.724 70.26L70.472 58.26C70.9324 57.859 71.2595 57.3271 71.4096 56.7353C71.5597 56.1435 71.5216 55.52 71.308 54.948Z" fill="#999999"/>
</svg>
