<svg width="20" height="20" viewBox="0 0 20 20" fill="none" xmlns="http://www.w3.org/2000/svg">
<path d="M2.29166 9.99996C2.29166 7.95558 3.10378 5.99494 4.54938 4.54934C5.99497 3.10375 7.95561 2.29163 9.99999 2.29163C12.0444 2.29163 14.005 3.10375 15.4506 4.54934C16.8962 5.99494 17.7083 7.95558 17.7083 9.99996C17.7095 11.0124 17.5106 12.015 17.1231 12.9503C16.7355 13.8856 16.1669 14.7351 15.45 15.45C15.3327 15.5672 15.2669 15.7262 15.2669 15.892C15.2669 16.0579 15.3327 16.2169 15.45 16.3341C15.5672 16.4514 15.7263 16.5172 15.8921 16.5172C16.0579 16.5172 16.2169 16.4514 16.3342 16.3341C17.1671 15.5032 17.8278 14.5158 18.2781 13.4288C18.7284 12.3418 18.9596 11.1766 18.9583 9.99996C18.9583 5.05246 14.9475 1.04163 9.99999 1.04163C5.05249 1.04163 1.04166 5.05246 1.04166 9.99996C1.04166 12.4733 2.04499 14.7141 3.66582 16.3341C3.72304 16.3955 3.79204 16.4448 3.86871 16.4789C3.94537 16.5131 4.02814 16.5315 4.11205 16.533C4.19597 16.5344 4.27933 16.519 4.35715 16.4876C4.43498 16.4561 4.50567 16.4093 4.56502 16.35C4.62437 16.2906 4.67116 16.2199 4.70259 16.1421C4.73403 16.0643 4.74946 15.9809 4.74798 15.897C4.7465 15.8131 4.72813 15.7303 4.69397 15.6537C4.65981 15.577 4.61056 15.508 4.54916 15.4508C3.83228 14.7358 3.26379 13.8861 2.87637 12.9507C2.48894 12.0152 2.29023 11.0125 2.29166 9.99996Z" fill="black"/>
<path d="M5.625 9.99995C5.62492 9.28044 5.80229 8.57202 6.1414 7.93743C6.48052 7.30285 6.97091 6.7617 7.56914 6.36192C8.16736 5.96214 8.85495 5.71607 9.57099 5.64552C10.287 5.57496 11.0094 5.6821 11.6742 5.95743C12.3389 6.23276 12.9255 6.6678 13.3819 7.22399C13.8384 7.78018 14.1506 8.44037 14.291 9.14606C14.4313 9.85175 14.3954 10.5812 14.1865 11.2697C13.9776 11.9582 13.6021 12.5846 13.0933 13.0933C12.9761 13.2105 12.9102 13.3696 12.9102 13.5354C12.9102 13.7012 12.9761 13.8602 13.0933 13.9775C13.2106 14.0947 13.3696 14.1606 13.5354 14.1606C13.7012 14.1606 13.8603 14.0947 13.9775 13.9775C14.7642 13.1908 15.2999 12.1885 15.5169 11.0974C15.734 10.0062 15.6226 8.87522 15.1968 7.84739C14.7711 6.81956 14.0501 5.94106 13.1251 5.32298C12.2001 4.7049 11.1125 4.375 10 4.375C8.88749 4.375 7.79995 4.7049 6.87493 5.32298C5.9499 5.94106 5.22893 6.81956 4.80319 7.84739C4.37744 8.87522 4.26604 10.0062 4.48308 11.0974C4.70012 12.1885 5.23584 13.1908 6.0225 13.9775C6.07972 14.0389 6.14872 14.0881 6.22539 14.1223C6.30205 14.1564 6.38481 14.1748 6.46873 14.1763C6.55265 14.1778 6.63601 14.1623 6.71383 14.1309C6.79166 14.0995 6.86235 14.0527 6.9217 13.9933C6.98105 13.934 7.02784 13.8633 7.05927 13.7854C7.09071 13.7076 7.10614 13.6243 7.10466 13.5403C7.10318 13.4564 7.08481 13.3737 7.05065 13.297C7.01649 13.2203 6.96724 13.1513 6.90584 13.0941C6.49887 12.6883 6.1762 12.206 5.95638 11.675C5.73656 11.1439 5.62394 10.5747 5.625 9.99995Z" fill="black"/>
<path fill-rule="evenodd" clip-rule="evenodd" d="M7.70831 10C7.70831 9.39225 7.94975 8.80936 8.37952 8.37959C8.80929 7.94982 9.39219 7.70837 9.99998 7.70837C10.6078 7.70837 11.1907 7.94982 11.6204 8.37959C12.0502 8.80936 12.2916 9.39225 12.2916 10C12.2916 10.6078 12.0502 11.1907 11.6204 11.6205C11.1907 12.0503 10.6078 12.2917 9.99998 12.2917C9.39219 12.2917 8.80929 12.0503 8.37952 11.6205C7.94975 11.1907 7.70831 10.6078 7.70831 10ZM9.99998 8.95837C9.72371 8.95837 9.45876 9.06812 9.26341 9.26347C9.06806 9.45882 8.95831 9.72377 8.95831 10C8.95831 10.2763 9.06806 10.5413 9.26341 10.7366C9.45876 10.932 9.72371 11.0417 9.99998 11.0417C10.2762 11.0417 10.5412 10.932 10.7365 10.7366C10.9319 10.5413 11.0416 10.2763 11.0416 10C11.0416 9.72377 10.9319 9.45882 10.7365 9.26347C10.5412 9.06812 10.2762 8.95837 9.99998 8.95837ZM11.1608 13.1192C10.8458 12.8967 10.5083 12.7309 10.0975 12.7109C10.0325 12.7083 9.96745 12.7083 9.90248 12.7109C9.49164 12.7309 9.15414 12.8967 8.83914 13.1192C8.54581 13.3275 8.22248 13.6234 7.84581 13.9667L7.77914 14.0267C6.94248 14.7909 6.26498 15.41 5.83414 15.9242C5.41998 16.4184 5.03914 17.0384 5.28414 17.73C5.31748 17.8223 5.35803 17.9112 5.40581 17.9967C5.74748 18.6092 6.44331 18.7925 7.11248 18.8734C7.80998 18.9584 8.76248 18.9584 9.95331 18.9584H10.0466C11.2375 18.9584 12.19 18.9584 12.8883 18.8734C13.5566 18.7925 14.2516 18.6092 14.5941 17.9967C14.6419 17.9112 14.6822 17.8223 14.715 17.73C14.9608 17.0384 14.58 16.4184 14.1658 15.9242C13.735 15.4092 13.0575 14.7909 12.22 14.0267L12.1541 13.9667C11.7783 13.6234 11.4541 13.3275 11.1608 13.1192ZM9.56164 14.1392C9.76998 13.9917 9.87831 13.9634 9.96164 13.9592C9.98691 13.9581 10.0122 13.9581 10.0375 13.9592C10.1208 13.9634 10.2291 13.9917 10.4375 14.1392C10.6608 14.2975 10.9275 14.5392 11.3391 14.915C12.2241 15.7225 12.8375 16.2842 13.2083 16.7267C13.3916 16.9459 13.4816 17.0967 13.52 17.1984C13.5508 17.2775 13.5408 17.3025 13.5375 17.31V17.3109C13.5274 17.3367 13.516 17.362 13.5033 17.3867C13.4866 17.4159 13.3883 17.5534 12.7366 17.6325C12.1241 17.7075 11.2475 17.7084 9.99998 17.7084C8.75164 17.7084 7.87581 17.7075 7.26331 17.6334C6.61164 17.5534 6.51331 17.4167 6.49664 17.3867C6.48402 17.3623 6.47262 17.3373 6.46248 17.3117V17.31C6.45914 17.3025 6.44914 17.2775 6.47998 17.1984C6.51831 17.0967 6.60831 16.9459 6.79164 16.7267C7.16248 16.285 7.77664 15.7225 8.66081 14.915C9.07248 14.54 9.33914 14.2975 9.56164 14.14" fill="black"/>
</svg>
