<svg width="20" height="20" viewBox="0 0 20 20" fill="none" xmlns="http://www.w3.org/2000/svg">
<path fill-rule="evenodd" clip-rule="evenodd" d="M9.99999 2.29163C7.95561 2.29163 5.99497 3.10375 4.54938 4.54934C3.10378 5.99494 2.29166 7.95558 2.29166 9.99996C2.29166 12.0443 3.10378 14.005 4.54938 15.4506C5.99497 16.8962 7.95561 17.7083 9.99999 17.7083C12.0444 17.7083 14.005 16.8962 15.4506 15.4506C16.8962 14.005 17.7083 12.0443 17.7083 9.99996C17.7083 7.95558 16.8962 5.99494 15.4506 4.54934C14.005 3.10375 12.0444 2.29163 9.99999 2.29163ZM1.04166 9.99996C1.04166 5.05246 5.05249 1.04163 9.99999 1.04163C14.9475 1.04163 18.9583 5.05246 18.9583 9.99996C18.9583 14.9475 14.9475 18.9583 9.99999 18.9583C5.05249 18.9583 1.04166 14.9475 1.04166 9.99996Z" fill="black"/>
<path fill-rule="evenodd" clip-rule="evenodd" d="M9.16918 5.42253C9.27811 5.54742 9.33298 5.71045 9.32172 5.87579C9.31047 6.04112 9.23402 6.19522 9.10918 6.3042L7.50001 7.70837H14.1667C14.3324 7.70837 14.4914 7.77421 14.6086 7.89142C14.7258 8.00863 14.7917 8.16761 14.7917 8.33337C14.7917 8.49913 14.7258 8.6581 14.6086 8.77531C14.4914 8.89252 14.3324 8.95837 14.1667 8.95837H5.83334C5.70614 8.95833 5.58198 8.91948 5.47744 8.847C5.3729 8.77453 5.29296 8.67188 5.24831 8.55277C5.20366 8.43366 5.19641 8.30376 5.22754 8.18043C5.25866 8.05709 5.32668 7.94619 5.42251 7.86253L8.28668 5.36253C8.34854 5.30847 8.42045 5.26713 8.49829 5.24089C8.57614 5.21464 8.6584 5.204 8.74037 5.20957C8.82233 5.21514 8.90239 5.23682 8.97597 5.27336C9.04955 5.3099 9.11521 5.36059 9.16918 5.42253ZM14.7517 11.4475C14.7071 11.3284 14.6272 11.2257 14.5226 11.1532C14.4181 11.0807 14.2939 11.0418 14.1667 11.0417H5.83334C5.66758 11.0417 5.50861 11.1075 5.3914 11.2248C5.27419 11.342 5.20834 11.5009 5.20834 11.6667C5.20834 11.8325 5.27419 11.9914 5.3914 12.1086C5.50861 12.2259 5.66758 12.2917 5.83334 12.2917H12.5L10.8917 13.6959C10.7706 13.8059 10.6975 13.959 10.688 14.1223C10.6785 14.2856 10.7335 14.4461 10.841 14.5694C10.9486 14.6926 11.1002 14.7688 11.2633 14.7816C11.4264 14.7943 11.5879 14.7426 11.7133 14.6375L14.5775 12.1375C14.6734 12.054 14.7416 11.9432 14.7728 11.8199C14.8041 11.6966 14.7962 11.5667 14.7517 11.4475Z" fill="black"/>
</svg>
