<svg width="64" height="65" viewBox="0 0 64 65" fill="none" xmlns="http://www.w3.org/2000/svg">
<path d="M28.4933 4.56918C28.6823 4.38302 28.8323 4.16114 28.9347 3.91645C29.037 3.67177 29.0897 3.40916 29.0896 3.14392C29.0896 2.87868 29.0367 2.61611 28.9342 2.37148C28.8317 2.12686 28.6815 1.90507 28.4925 1.71903C28.3034 1.53299 28.0793 1.3864 27.833 1.28782C27.5868 1.18923 27.3234 1.14061 27.0582 1.14478C26.793 1.14895 26.5312 1.20583 26.2882 1.31211C26.0452 1.41839 25.8258 1.57195 25.6427 1.76385L20.976 6.49985C20.6079 6.87394 20.4017 7.37771 20.4017 7.90251C20.4017 8.42731 20.6079 8.93109 20.976 9.30518L25.6427 14.0438C25.8258 14.2357 26.0452 14.3893 26.2882 14.4956C26.5312 14.6019 26.793 14.6587 27.0582 14.6629C27.3234 14.6671 27.5868 14.6185 27.833 14.5199C28.0793 14.4213 28.3034 14.2747 28.4925 14.0887C28.6815 13.9026 28.8317 13.6808 28.9342 13.4362C29.0367 13.1916 29.0896 12.929 29.0896 12.6638C29.0897 12.3985 29.037 12.1359 28.9347 11.8912C28.8323 11.6466 28.6823 11.4247 28.4933 11.2385L27.0587 9.78251C28.5627 9.76918 30.2027 9.76918 32 9.76918C37.7147 9.76918 41.7947 9.77185 44.896 10.1958C47.936 10.6118 49.736 11.3958 51.0613 12.7398C52.3893 14.0892 53.168 15.9265 53.5787 19.0278C53.9973 22.1825 54 26.3345 54 32.1318C54 37.9318 53.9947 42.0812 53.5787 45.2385C53.168 48.3372 52.3893 50.1772 51.0613 51.5265C49.736 52.8705 47.9387 53.6545 44.896 54.0705C41.7947 54.4919 37.7147 54.4972 32 54.4972C26.2853 54.4972 22.2053 54.4919 19.104 54.0705C16.064 53.6545 14.264 52.8705 12.9387 51.5265C11.6107 50.1772 10.832 48.3372 10.4213 45.2385C10.0053 42.0812 10 37.9318 10 32.1318C10 26.3318 10.0053 22.1852 10.4213 19.0278C10.832 15.9265 11.6107 14.0892 12.9387 12.7398C13.3012 12.3602 13.5 11.8533 13.4922 11.3284C13.4843 10.8036 13.2704 10.3028 12.8966 9.93427C12.5228 9.56572 12.019 9.35891 11.4941 9.35846C10.9692 9.358 10.4651 9.56394 10.0907 9.93185C7.904 12.1505 6.92533 14.9718 6.456 18.5025C6 21.9505 6 26.3692 6 31.9825V32.2812C6 37.8972 6 42.3132 6.456 45.7612C6.92533 49.2945 7.904 52.1132 10.0907 54.3318C12.2773 56.5559 15.0667 57.5559 18.5627 58.0332C21.9653 58.4972 26.32 58.4972 31.8453 58.4972H32.1547C37.68 58.4972 42.0347 58.4972 45.4373 58.0332C48.9307 57.5532 51.72 56.5559 53.9093 54.3318C56.096 52.1132 57.0747 49.2945 57.544 45.7612C58 42.3132 58 37.8972 58 32.2838V31.9825C58 26.3665 58 21.9505 57.544 18.5025C57.0747 14.9692 56.096 12.1505 53.9093 9.93185C51.7227 7.71051 48.9333 6.71051 45.4373 6.23318C42.0347 5.76918 37.68 5.76918 32.1547 5.76918H31.9547C30.296 5.7674 28.744 5.77096 27.2987 5.77985L28.4933 4.56918Z" fill="#491474"/>
<path d="M42.7466 27.2463C43.0999 26.8671 43.2922 26.3657 43.2831 25.8475C43.2739 25.3294 43.064 24.835 42.6976 24.4686C42.3311 24.1022 41.8368 23.8923 41.3186 23.8831C40.8005 23.874 40.2991 24.0663 39.9199 24.4196L27.9999 36.3396L24.0799 32.4196C23.8968 32.2231 23.676 32.0655 23.4307 31.9562C23.1854 31.8469 22.9205 31.7881 22.652 31.7833C22.3834 31.7786 22.1167 31.828 21.8677 31.9286C21.6186 32.0292 21.3924 32.1789 21.2025 32.3688C21.0126 32.5587 20.8628 32.785 20.7623 33.034C20.6617 33.283 20.6123 33.5498 20.617 33.8183C20.6217 34.0869 20.6805 34.3517 20.7898 34.597C20.8991 34.8424 21.0568 35.0632 21.2533 35.2463L26.5866 40.5796C26.9616 40.9541 27.4699 41.1645 27.9999 41.1645C28.5299 41.1645 29.0383 40.9541 29.4133 40.5796L42.7466 27.2463Z" fill="#491474"/>
</svg>
