<svg width="24" height="25" viewBox="0 0 24 25" fill="none" xmlns="http://www.w3.org/2000/svg">
<path fill-rule="evenodd" clip-rule="evenodd" d="M12 1.48633C10.7402 1.48633 9.53204 1.98677 8.64124 2.87757C7.75045 3.76837 7.25 4.97655 7.25 6.23633C7.25 7.49611 7.75045 8.70429 8.64124 9.59509C9.53204 10.4859 10.7402 10.9863 12 10.9863C13.2598 10.9863 14.468 10.4859 15.3588 9.59509C16.2496 8.70429 16.75 7.49611 16.75 6.23633C16.75 4.97655 16.2496 3.76837 15.3588 2.87757C14.468 1.98677 13.2598 1.48633 12 1.48633ZM8.75 6.23633C8.75 5.37437 9.09241 4.54772 9.7019 3.93823C10.3114 3.32874 11.138 2.98633 12 2.98633C12.862 2.98633 13.6886 3.32874 14.2981 3.93823C14.9076 4.54772 15.25 5.37437 15.25 6.23633C15.25 7.09828 14.9076 7.92493 14.2981 8.53442C13.6886 9.14392 12.862 9.48633 12 9.48633C11.138 9.48633 10.3114 9.14392 9.7019 8.53442C9.09241 7.92493 8.75 7.09828 8.75 6.23633ZM12 12.4863C9.96 12.4863 8.078 12.9563 6.678 13.7563C5.3 14.5443 4.25 15.7463 4.25 17.2363C4.25 18.7263 5.3 19.9283 6.678 20.7163C8.078 21.5163 9.961 21.9863 12 21.9863C14.039 21.9863 15.922 21.5163 17.322 20.7163C18.7 19.9283 19.75 18.7263 19.75 17.2363C19.75 15.7463 18.7 14.5443 17.322 13.7563C15.922 12.9563 14.039 12.4863 12 12.4863ZM5.75 17.2363C5.75 16.5163 6.267 15.7193 7.422 15.0593C8.556 14.4113 10.173 13.9863 12 13.9863C13.827 13.9863 15.444 14.4113 16.578 15.0593C17.733 15.7193 18.25 16.5173 18.25 17.2363C18.25 17.9553 17.733 18.7533 16.578 19.4133C15.444 20.0613 13.827 20.4863 12 20.4863C10.173 20.4863 8.556 20.0613 7.422 19.4133C6.267 18.7533 5.75 17.9563 5.75 17.2363Z" fill="#491474"/>
</svg>
