<svg width="64" height="65" viewBox="0 0 64 65" fill="none" xmlns="http://www.w3.org/2000/svg">
<path fill-rule="evenodd" clip-rule="evenodd" d="M55.7973 31.8339H48.6133C44.816 31.8339 41.9973 34.6579 41.9973 37.8339C41.9973 41.0099 44.816 43.8339 48.6107 43.8339H55.8587C56.408 43.7993 56.6453 43.4286 56.664 43.2046V32.4633C56.6453 32.2393 56.408 31.8686 55.8587 31.8366L55.7973 31.8339ZM55.6 27.8339C55.7778 27.8322 55.9467 27.8357 56.1067 27.8446C58.4267 27.9859 60.4827 29.7379 60.656 32.1859C60.6667 32.3459 60.6667 32.5193 60.6667 32.6793V42.9886C60.6667 43.1486 60.6667 43.3219 60.656 43.4819C60.4827 45.9299 58.4267 47.6819 56.104 47.8259C55.9458 47.8331 55.7769 47.8357 55.5973 47.8339H48.616C42.896 47.8339 38 43.4926 38 37.8339C38 32.1753 42.896 27.8339 48.6133 27.8339H55.6Z" fill="#491474"/>
<path d="M50.6667 37.8332C50.6667 38.5404 50.3857 39.2187 49.8856 39.7188C49.3855 40.2189 48.7073 40.4998 48 40.4998C47.2928 40.4998 46.6145 40.2189 46.1144 39.7188C45.6143 39.2187 45.3333 38.5404 45.3333 37.8332C45.3333 37.1259 45.6143 36.4477 46.1144 35.9476C46.6145 35.4475 47.2928 35.1665 48 35.1665C48.7073 35.1665 49.3855 35.4475 49.8856 35.9476C50.3857 36.4477 50.6667 37.1259 50.6667 37.8332Z" fill="#491474"/>
<path fill-rule="evenodd" clip-rule="evenodd" d="M55.6 27.8336C55.7778 27.8318 55.9467 27.8353 56.1067 27.8442C56.7067 27.8789 57.288 28.0229 57.8267 28.2602C57.5413 23.9776 56.7547 20.6762 54.2907 18.2096C52.2933 16.2149 49.7627 15.3296 46.6373 14.9082L46.5253 14.8949L46.44 14.8336L36.4773 8.22823C34.7489 7.1014 32.73 6.50146 30.6667 6.50146C28.6033 6.50146 26.5845 7.1014 24.856 8.22823L14.896 14.8336L14.808 14.8949L14.696 14.9082C11.5707 15.3296 9.04001 16.2149 7.04268 18.2096C5.04801 20.2069 4.16268 22.7376 3.74134 25.8629C3.33334 28.9029 3.33334 32.7829 3.33334 37.6842V37.9829C3.33334 42.8842 3.33334 46.7669 3.74134 49.8042C4.16268 52.9296 5.04801 55.4602 7.04268 57.4576C9.04001 59.4522 11.5707 60.3376 14.696 60.7589C17.736 61.1669 21.616 61.1669 26.5173 61.1669H34.816C39.7173 61.1669 43.6 61.1669 46.6373 60.7589C49.7627 60.3376 52.2933 59.4522 54.2907 57.4576C56.7547 54.9909 57.5413 51.6896 57.8267 47.4042C57.2845 47.646 56.7102 47.7865 56.104 47.8256C55.9458 47.8327 55.7769 47.8353 55.5973 47.8336H53.7813C53.4773 51.4122 52.792 53.3002 51.4613 54.6282C50.3333 55.7562 48.7867 56.4336 46.104 56.7936C43.3653 57.1616 39.752 57.1669 34.6667 57.1669H26.6667C21.5813 57.1669 17.9707 57.1616 15.2267 56.7936C12.5467 56.4336 11 55.7562 9.87201 54.6282C8.74401 53.5002 8.06668 51.9536 7.70668 49.2709C7.33868 46.5322 7.33334 42.9189 7.33334 37.8336C7.33334 32.7482 7.33868 29.1376 7.70668 26.3936C8.06668 23.7136 8.74401 22.1669 9.87201 21.0389C11 19.9109 12.5467 19.2336 15.2293 18.8736C17.9707 18.5056 21.5813 18.5002 26.6667 18.5002H34.6667C39.752 18.5002 43.3653 18.5056 46.1067 18.8736C48.7867 19.2336 50.3333 19.9109 51.4613 21.0389C52.792 22.3669 53.4773 24.2576 53.7813 27.8336H55.6ZM26.5173 14.5002H34.816C36.1938 14.5002 37.4916 14.5029 38.7093 14.5082L34.2667 11.5616C32.1333 10.1482 29.2 10.1482 27.0667 11.5616L22.6213 14.5082C23.8409 14.5011 25.1387 14.4985 26.5147 14.5002" fill="#491474"/>
<path d="M16 25.1665C15.4696 25.1665 14.9609 25.3772 14.5858 25.7523C14.2107 26.1274 14 26.6361 14 27.1665C14 27.6969 14.2107 28.2056 14.5858 28.5807C14.9609 28.9558 15.4696 29.1665 16 29.1665H26.6667C27.1971 29.1665 27.7058 28.9558 28.0809 28.5807C28.456 28.2056 28.6667 27.6969 28.6667 27.1665C28.6667 26.6361 28.456 26.1274 28.0809 25.7523C27.7058 25.3772 27.1971 25.1665 26.6667 25.1665H16Z" fill="#491474"/>
<path d="M50.6667 37.8332C50.6667 38.5404 50.3857 39.2187 49.8856 39.7188C49.3855 40.2189 48.7073 40.4998 48 40.4998C47.2928 40.4998 46.6145 40.2189 46.1144 39.7188C45.6143 39.2187 45.3333 38.5404 45.3333 37.8332C45.3333 37.1259 45.6143 36.4477 46.1144 35.9476C46.6145 35.4475 47.2928 35.1665 48 35.1665C48.7073 35.1665 49.3855 35.4475 49.8856 35.9476C50.3857 36.4477 50.6667 37.1259 50.6667 37.8332Z" fill="#491474"/>
</svg>
