<svg width="20" height="20" viewBox="0 0 20 20" fill="none" xmlns="http://www.w3.org/2000/svg">
<path fill-rule="evenodd" clip-rule="evenodd" d="M17.4367 9.79164H15.1917C14.005 9.79164 13.1242 10.6741 13.1242 11.6666C13.1242 12.6591 14.005 13.5416 15.1908 13.5416H17.4558C17.6275 13.5308 17.7017 13.415 17.7075 13.345V9.98831C17.7017 9.91831 17.6275 9.80248 17.4558 9.79248L17.4367 9.79164ZM17.375 8.54164C17.4306 8.54109 17.4833 8.5422 17.5333 8.54498C18.2583 8.58914 18.9008 9.13664 18.955 9.90164C18.9583 9.95164 18.9583 10.0058 18.9583 10.0558V13.2775C18.9583 13.3275 18.9583 13.3816 18.955 13.4316C18.9008 14.1966 18.2583 14.7441 17.5325 14.7891C17.4831 14.7914 17.4303 14.7922 17.3742 14.7916H15.1925C13.405 14.7916 11.875 13.435 11.875 11.6666C11.875 9.89831 13.405 8.54164 15.1917 8.54164H17.375Z" fill="black"/>
<path d="M15.8334 11.6667C15.8334 11.8877 15.7456 12.0997 15.5893 12.256C15.433 12.4122 15.221 12.5 15 12.5C14.779 12.5 14.567 12.4122 14.4108 12.256C14.2545 12.0997 14.1667 11.8877 14.1667 11.6667C14.1667 11.4457 14.2545 11.2337 14.4108 11.0775C14.567 10.9212 14.779 10.8334 15 10.8334C15.221 10.8334 15.433 10.9212 15.5893 11.0775C15.7456 11.2337 15.8334 11.4457 15.8334 11.6667" fill="black"/>
<path fill-rule="evenodd" clip-rule="evenodd" d="M17.375 8.54165C17.4306 8.54109 17.4834 8.5422 17.5334 8.54498C17.7209 8.55581 17.9025 8.60081 18.0709 8.67498C17.9817 7.33665 17.7359 6.30498 16.9659 5.53415C16.3417 4.91081 15.5509 4.63415 14.5742 4.50248L14.5392 4.49831L14.5125 4.47915L11.3992 2.41498C10.859 2.06285 10.2281 1.87537 9.58335 1.87537C8.93856 1.87537 8.30767 2.06285 7.76752 2.41498L4.65502 4.47915L4.62752 4.49831L4.59252 4.50248C3.61585 4.63415 2.82502 4.91081 2.20085 5.53415C1.57752 6.15831 1.30085 6.94915 1.16919 7.92581C1.04169 8.87581 1.04169 10.0883 1.04169 11.62V11.7133C1.04169 13.245 1.04169 14.4583 1.16919 15.4075C1.30085 16.3841 1.57752 17.175 2.20085 17.7991C2.82502 18.4225 3.61585 18.6991 4.59252 18.8308C5.54252 18.9583 6.75502 18.9583 8.28669 18.9583H10.88C12.4117 18.9583 13.625 18.9583 14.5742 18.8308C15.5509 18.6991 16.3417 18.4225 16.9659 17.7991C17.7359 17.0283 17.9817 15.9966 18.0709 14.6575C17.9014 14.733 17.722 14.7769 17.5325 14.7891C17.4831 14.7914 17.4303 14.7922 17.3742 14.7916H16.8067C16.7117 15.91 16.4975 16.5 16.0817 16.915C15.7292 17.2675 15.2459 17.4791 14.4075 17.5916C13.5517 17.7066 12.4225 17.7083 10.8334 17.7083H8.33335C6.74419 17.7083 5.61585 17.7066 4.75835 17.5916C3.92085 17.4791 3.43752 17.2675 3.08502 16.915C2.73252 16.5625 2.52085 16.0791 2.40835 15.2408C2.29335 14.385 2.29169 13.2558 2.29169 11.6666C2.29169 10.0775 2.29335 8.94915 2.40835 8.09165C2.52085 7.25415 2.73252 6.77081 3.08502 6.41831C3.43752 6.06581 3.92085 5.85415 4.75919 5.74165C5.61585 5.62665 6.74419 5.62498 8.33335 5.62498H10.8334C12.4225 5.62498 13.5517 5.62665 14.4084 5.74165C15.2459 5.85415 15.7292 6.06581 16.0817 6.41831C16.4975 6.83331 16.7117 7.42415 16.8067 8.54165H17.375ZM8.28669 4.37498H10.88C11.3106 4.37498 11.7161 4.37581 12.0967 4.37748L10.7084 3.45665C10.0417 3.01498 9.12502 3.01498 8.45835 3.45665L7.06919 4.37748C7.4503 4.37526 7.85585 4.37442 8.28585 4.37498" fill="black"/>
<path d="M5 7.70837C4.83424 7.70837 4.67527 7.77422 4.55806 7.89143C4.44085 8.00864 4.375 8.16761 4.375 8.33337C4.375 8.49913 4.44085 8.65811 4.55806 8.77532C4.67527 8.89253 4.83424 8.95837 5 8.95837H8.33333C8.49909 8.95837 8.65806 8.89253 8.77527 8.77532C8.89248 8.65811 8.95833 8.49913 8.95833 8.33337C8.95833 8.16761 8.89248 8.00864 8.77527 7.89143C8.65806 7.77422 8.49909 7.70837 8.33333 7.70837H5Z" fill="black"/>
<path d="M15.8334 11.6667C15.8334 11.8877 15.7456 12.0997 15.5893 12.256C15.433 12.4122 15.221 12.5 15 12.5C14.779 12.5 14.567 12.4122 14.4108 12.256C14.2545 12.0997 14.1667 11.8877 14.1667 11.6667C14.1667 11.4457 14.2545 11.2337 14.4108 11.0775C14.567 10.9212 14.779 10.8334 15 10.8334C15.221 10.8334 15.433 10.9212 15.5893 11.0775C15.7456 11.2337 15.8334 11.4457 15.8334 11.6667" fill="black"/>
</svg>
